<svg xmlns="http://www.w3.org/2000/svg" xmlns:xlink="http://www.w3.org/1999/xlink" viewBox="0 0 868.26 529.08"><defs><style>.cls-1{fill:none;}.cls-2{clip-path:url(#clip-path);}.cls-3{fill:#330f21;}.cls-4{fill:#230119;}.cls-5{fill:#2c061e;}.cls-6{fill:#4a0f26;}.cls-7{fill:#661a30;}.cls-8{fill:#cf4844;}.cls-9{fill:#ba263e;}.cls-10{fill:#e86b55;}.cls-11{fill:#3e1526;}.cls-12{fill:#fff6ff;}.cls-13{fill:#69342e;}</style><clipPath id="clip-path"><rect class="cls-1" x="49.39" y="14" width="750" height="500"/></clipPath></defs><title>Ресурс 1</title><g id="Слой_2" data-name="Слой 2"><g id="BACKGROUND2"><g class="cls-2"><rect class="cls-3" x="31.39" width="786" height="528"/><rect class="cls-4" x="49.39" y="14" width="750" height="500"/><path class="cls-5" d="M31.39,137.74c34.84,14.9,66,26.32,104.66,31.85C201.53,179,260.8,183.1,327.11,181.05c136.64-4.22,269.16-41.36,406.7-26.64,28.45,3,56.5,10.1,83.58,19.48V0h-786Z"/><path class="cls-5" d="M817.39,340.52a33.93,33.93,0,0,0-9.45-1.52c-8,0-8.55-16-8.55-16V299l-11.45-10-2-24-16-18s-8,2-16,12,0,0-10,2h-16l-22,8-18,18-18-4-20,2s-2,8-16,6l-18,14-14,8-22-6s-6-14-10-22l-20-14-2,12-16-6-18,4-16,2-8-8-14-10-20-4-2-16-4-22-18-4-2,26,2,14-4,18-18,4-24-12-18-10-28,16-20-8-24-14-26,8-10,10-14,4-22,6s-32,14-38,18l-78-64-14-14L84,214.59,73.94,203l-4-14-10-18-28-4-.55,1.57V528h786Z"/><path class="cls-3" d="M383.44,290l9-3-8-7.5-10-11-6.5-9.5,18,10,24,12,12.5,12.5,10.5,10,20.5,11,33.5,20.5a28.4,28.4,0,0,1-15.5-2c-7.5-3.5-17.5-2.5-17.5-2.5l-15-4-9.5-1-11.5-2-9.5-7.5-6.5-8.5-12.5-8-9-3.5Zm348-21,9.5-7.5,8.34.44c-.55-.87-1.84-1.64-5.34-.94h-16l-22,8-15.08,15.07,2.58,6.43,12.5,7,12,12,11.5,8,9,6.5,7,1.5-18.5-21-7-6-1-7-1.5-9.5,6-7.5Zm-420,3,14,13,12.5,9,6,6.5,9.5,7.5-16-24-2.5-3.5-2-3.5,4-.5a9.4,9.4,0,0,0,2-1.9l-19-7.6-24-14,7.5,15Zm474.5-7-16-18,2.5,7.5,5.5,14,4.5,4.5-15,9.5,6.5,9,8,8,9.5,11.5a41.35,41.35,0,0,1,7.95,5.22V299l-11.45-10Zm-221,26.5,8,1,.67.22c-1.27-2.75-2.55-5.47-3.67-7.72l-20-14,9,13Zm-83.5-4L465.94,273l-10-12-2-16-4-22-18-4,8.5,9,6.5,6-2,9-1,16,9,10,2.5,9.5,12.5,9,12,9.5,8.5,4.5Zm47.15-9.76.35.26,4.5,9.5,2,15,14.5,14,8.5,3,13,11.5,11.5,8,14,10,12,5,16.5-1.5-9-9.5-20-15-10-5.5-11-9.5-10-7.5-4-7.5-10-5.5-6-5.5-4.82-6.74L531.94,277Z"/><path class="cls-6" d="M0,261.09c10.5-6,61.5-30,61.5-30L84,214.59l43.49-1.5s46.5,45,60,51,30,9,30,9l25.5,12,25.5,12s6-13.5,19.5,1.5,15,21,22.49,25.5,18-3,18-3l10.5,4.5,15,10.5a26,26,0,0,1,12,7.5c9,10.5,25.5,21,25.5,21l12,3,13.5,6,10.5,12h0c18,1.5,22.5,3,22.5,3l10.5,6,15,6a169.71,169.71,0,0,0,18-3l61.49-42,19.5-12,9-10.5,10.5-4.5h12l27-6,10.5-16.5,18-9,12,4.5,19.5-4.5,27,18,13.5,10.5,10.5,9,13.5,6h0c9,9,18,24,18,24a15.4,15.4,0,0,0,9,10.49s10.36,4.5,14.93,4.5l13.57,3,18,13.5c6,12,12,25.5,12,25.5l-1.5,27-834,3Z"/><path class="cls-7" d="M412.48,390.08l9,6,10.5,4.5,18-12s-4.5-1.5-22.5-3h0l-10.5-12-13.5-6-12-3s-16.5-10.5-25.5-21a26,26,0,0,0-12-7.5l-15-10.5-10.5-4.5s-10.5,7.5-18,3c9.57,16.4,6.69,14.12,6.1,13.58L342,361.59l12,10.49H342l13.5,10.5,15,9-7.5-24,18,12-9-13.49-4.5-6,25.5,18Zm13-4.66,1.38.11Zm-4.2-.35.48,0Zm2.73.23,1.34.11Zm-3.26-.27-.24,0Zm-.46,0-.39,0Zm-.61-.05-.14,0Z"/><path class="cls-7" d="M316.58,337.67l-.1-.08Z"/><path class="cls-7" d="M162,268.59l-4.5,12-18-3,28.5,19.5,18,10.5,21,16.5,25.5,9-19.5-36c7.5,0,22.5,1.5,22.5,1.5l1.5-9,31.5,13.5,18,13.5s6.83-5.31,14.56-1.89c-2.93-3.87-6.64-9-13.06-16.11-13.5-15-19.5-1.5-19.5-1.5l-25.5-12-25.5-12s-16.5-3-30-9-60-51-60-51c0,4.5,18,39,18,39Z"/><path class="cls-7" d="M753.6,336.72l-.11-.1Z"/><path class="cls-7" d="M753.88,337l.11.11Z"/><path class="cls-7" d="M753.49,336.62Z"/><path class="cls-7" d="M753.67,336.79c.06.06.12.13.21.21Z"/><path class="cls-7" d="M754.82,337.94l-.51-.5Z"/><path class="cls-7" d="M754.12,337.24l-.13-.13Z"/><path class="cls-7" d="M755.93,339.05l-.56-.56Z"/><path class="cls-7" d="M831,396.08l-18-13.5-13.57-3c-4.57,0-14.93-4.5-14.93-4.5a15.4,15.4,0,0,1-9-10.49s-9-15-18-24l-13.5-6-10.5-9L720,315.09l-27-18-19.07,4.4L696,316.59l13.49,10.5,13.5,10.5c-3,4.5-19.5,1.5-19.5,1.5l7.5,13.5,12,6-16.5,3-27,1.5-22.5,7.5,16.5,6,25.5-3,16.49,3,13.5,4.5,13.5,6,10.5,1.5,13.5,4.5-15-27,21,13.49,13.5,7.5,9,6,15,4.5,13.5,4.5,11.28,1.74C833.52,401.27,832.24,398.64,831,396.08Z"/><path class="cls-8" d="M805.46,418.87c-51.08-4.19-104.9,1.35-155.29,1.75q-95.19.75-190.36,1.24c-64.13.31-129.72-6.92-193.93-10.08-25-1.22-49.36-4.36-74.57-1.89-23,2.25-43.62,4.44-66.73,3.34-22.49-1.07-44.27,1.28-66.24,3.21a129.82,129.82,0,0,1-15,.36v98H805.46Z"/><path class="cls-9" d="M420.42,418.6c1.09-1.37-6.93-8.75-10.23-9.41s-16.49,1.65-16.49,1.65,5.44,6.6,12.2,7.76S419.1,420.25,420.42,418.6Z"/><path class="cls-9" d="M396,428.82c1.43-1,.66-4.12-2.31-5.44s.33-2.8,0-4.62-3.14-10.3-4.13-9.68-11.05,7-15.83,9-22.43,7.75-21.61,8.91,26.39,2.47,32.5,2.47S394.36,430,396,428.82Z"/><path class="cls-10" d="M389.57,409.08c3,.28,15.67,9.68,23.59,13.64s19.13,6.87,19.13,6.87H392.21C381.33,429.58,389.57,409.08,389.57,409.08Z"/><path class="cls-10" d="M410.19,409.19c5.61.33,27.38,11.88,27.38,11.88s-18.8,2.31-31.34,0S410.19,409.19,410.19,409.19Z"/><path class="cls-9" d="M714,315.1c6.81,3.48,10.54,11.67,16.43,16.47,4.28,3.48,8.86,6.63,13.21,10,4.73,3.72,7.56,7.8,11.35,12.36a345.46,345.46,0,0,0,26.05,28.15c4.87,4.71,7.55,10.33,11.84,15.39,3.12,3.68,7.32,5.95,10.52,9.48,2.85,3.13,4.67,6.76,7.62,9.72a94,94,0,0,1,6.82,7.3c-6.39.41-13.08-1.29-19.4-.45-7.76,1-15.72,1.95-23.57,2.93S760,429.09,752,428c-4.84-.67-7.71-2.83-12-4.5-4.57-1.8-8.56.2-11-4.88-3.38-7-4-17.33-5.62-25-1.51-7-4-13.23-4.28-20.53-.28-6.37-1.86-12-3-18.2s-3.06-14.36-2.66-20.62c1.93,2.07,4.68,3.35,6.58,5.58C718.19,330.69,713.36,324.65,714,315.1Z"/><path class="cls-10" d="M803.43,407c-3.2-3.53-7.4-5.8-10.52-9.48-4.29-5.06-7-10.68-11.84-15.39A345.46,345.46,0,0,1,755,354c-3.79-4.56-6.62-8.64-11.35-12.36-4.35-3.41-8.93-6.56-13.21-10-5.89-4.8-9.62-13-16.43-16.47,5.25,8.47,16,29.74,25,39.5a24.07,24.07,0,0,0-8.81-5c1.67,3,4.66,5.45,5.3,8.93-3.87-1.1-7.87-5.56-11.82-5.84a453.47,453.47,0,0,0,24.88,44.19c-.32-1.38.19-3,.16-4.29,2.32.6,3.79,2.83,6.25,2.89-.15-1.38.41-3.11.11-4.45a13.59,13.59,0,0,0,3.39,2.86c-1.32-8.26-6.69-17.52-10.87-24.78,3.45,3.2,6.71,8.44,10.91,10.82-.42-4.41-4.3-8.49-4.9-12.86a159.86,159.86,0,0,1,22,29.34,8.53,8.53,0,0,0-7-2.3c-.7,3.33,1.7,5.76,1.88,8.91-1.07-.6-2.93-.4-3.93-.83.32,1.19-.1,2.6.45,3.84-.77-.39-2.31-.57-2.93-.9,2.5,3.25,6.46,5.61,9.09,8.91s4.11,7.6,6.86,11c.18.22.38.45.56.68,6-.72,12-1.44,17.88-2.23,6.32-.84,13,.86,19.4.45a94,94,0,0,0-6.82-7.3C808.1,413.75,806.28,410.12,803.43,407Z"/><path class="cls-9" d="M683.11,339.91c6.62,5.61,38.56,48.11,46.94,63.62A97.58,97.58,0,0,0,740.53,419c2.77,3.33,12.16,9.52,11.82,13.52-7.12.68-13.1-2.67-19.92-3.45-5.64-.64-9.82,2.05-15.14,3.14-4.74,1-9.31.88-14.15.89-5.15,0-9,0-12.32-2.63a32.06,32.06,0,0,1-8.3-11.38c-1.09-2.4-1.15-3.84-3-6-2.08-2.45-4.53-3.95-5.92-7-3-6.69-5.37-13.95-5.53-20.92a18.15,18.15,0,0,1,2.35.38c-.05-4.81-2.06-12.16-.34-16.37L671,369c-1.54-3.69-.5-5.76.14-8.87.45-.11.94.07,1.35-.15.44-3.1-.07-7.16-.31-10.31-.17-2.18-1.83-6.57-1.15-8.55.6.43,2.82.88,3.45,1.37-.08-.72.22-1.66.17-2.39.52.51,1.86,1,2.35,1.44-1-.94-1-8.88-.44-9.48C676.53,332.1,680.61,337.8,683.11,339.91Z"/><path class="cls-10" d="M740.53,419a97.58,97.58,0,0,1-10.48-15.47c-8.38-15.51-40.32-58-46.94-63.62a45.23,45.23,0,0,1-5.3-6.09c2.07,3.86,4.69,8,5.86,10.28,3,5.93,6.49,11.58,9.71,17.52-2.36-4.16-8.64-8-12.33-11.42,2.44,6.4,8.32,12.78,12,18.65,4.32,7,9.14,13.62,13.41,20.64-6.92-5.29-14.35-12.9-22.31-16.34,0,3.58,3.27,7.09,4.91,10.23-3.12-2.27-6.08-6.32-10-6.75,2.9,12.54,15.34,22.08,19.5,34.36-.27-3.29-.78-6.65-.35-9.87,2.66,1.38,5.38,3.7,8.27,4.35,1.3-2.88,0-6.17.14-9.25,3.42,4.16,7.43,7.87,11.07,11.83,2.84-.33,7.42,6,10.31,7.93a36.36,36.36,0,0,0-.42-5.14c5.06,5.22,11.39,9,17.44,12.74.54.34,1.1.71,1.65,1.07A76.25,76.25,0,0,1,740.53,419Z"/><path class="cls-9" d="M594.43,351.12a18,18,0,0,0,6.3,3.46,22.14,22.14,0,0,1,.36-2.74c4.07,1.1,7.48-1.22,11.24-.61,5.35.88,9.13,7.54,13.6,10.4,12.15,7.79,23.33,14,32.81,24.91C667,396,675.45,405.12,684.36,414c5.15,5.12,16.66,13,17.62,20.37-6.1.44-10.92,1.24-17,1.41-8.32.23-15.8-4.2-24.07-3.95-9.63.3-19.7,2.29-29.34,3.33-5.08.55-11.07,3.23-16.1,1.29-3-1.13-6.58-4.73-8.58-7.15-2.87-3.45-1.85-2-2.6-5.84-.6-3.11.51-3.66-2.27-7.68s-2.25-2.59-3.62-6.91c-1.78-5.66-4.83-12.48-5.92-18.33-.45-2.46.38-5.3.06-7.37-.63-4.22-3.21-7.63-3.91-11.78C592.82,369.85,592,356.15,594.43,351.12Z"/><path class="cls-10" d="M684.94,435.77c6.12-.17,10.94-1,17-1.41-1-7.39-12.47-15.25-17.62-20.37-8.91-8.87-17.39-18-25.62-27.45-9.48-10.94-20.66-17.12-32.81-24.91-4.47-2.86-8.25-9.52-13.6-10.4-2.1-.34-4.09.23-6.15.61,4.42,6.92,9.6,13.48,12.48,20.83-1.7-.29-3.74.7-5.2.68.89,2.23,2.72,4,4.44,5.9-3.09-.19-6.47-1.06-9.5-1,.55,6.33,8.06,16,10.93,22.27,4.49,9.87,6.11,18.92,15.7,25.5.34-3.69-.48-7.39-.57-11.07,2.92,2.41,6.49,9,10.45,8.17,1.51-5.81,9.19,4.7,13.14,8.89.94-.06,1.88-.12,2.82-.15C669.14,431.57,676.62,436,684.94,435.77Z"/><path class="cls-9" d="M562.88,366.57c5.71,4.67,9,10.46,12.67,16.73.59,1,7,9,6.91,9.28.16-.69.52-1.35.66-2,.7,1.07,2.49,2.19,3.34,3,.12-1.15,1-2.36,1.19-3.46,12.78,11.81,17.76,34.23,32.85,43.92a18.91,18.91,0,0,1-.27-1.91c7.74,3.22,17,16.94,19.86,24.88-2,.14-4,0-6,.15-.27,6.71-39,1.68-45.13,2.3-4,.41-8.49,2.08-12.49,1.45-5.87-.92-10.77-4.68-17-3.35-2.38.51-3.38,1.88-6.3,2.06-3.9.24-8-1.1-12-1.06.19-3.23-1.65-5.83-3-8.62,1.63,2,1.29-3.49,1.63-5.29,11.85,1.42-1.65-22.61-2.1-27.32-.49-5.13.78-10.69-.06-15.76-.61-3.74-2.2-7.71-3-11.5,3.42.84,6.24,5.25,9.54,4.92-4.27-12.95-4.91-26.36-6-39.94,4.36,2.33,6.88,7.69,11.41,9.51-.24-1.53.29-3.39.1-4.95-.05-.35,11.95,5.86,13.11,6.8Z"/><path class="cls-10" d="M620.23,432.14a18.91,18.91,0,0,0,.27,1.91c-15.09-9.69-20.07-32.11-32.85-43.92-.15,1.1-1.07,2.31-1.19,3.46-.85-.79-2.64-1.91-3.34-3-.14.62-.5,1.28-.66,2,.06-.25-6.32-8.25-6.91-9.28-3.62-6.27-7-12.06-12.67-16.73l-.19-.15c-1-.77-9.18-5.08-12.09-6.42,4.89,8,11.79,14.83,15.12,24-2.67-2.63-6.55-3.89-10.11-4.85,1,2.44,3,4.52,4.09,7a14.83,14.83,0,0,1-5.13-.57c1.24,6.11,4.76,10.65,5,17.46.23,7.14-2.78,14.9-.41,21.94,5.94-2.79,5.23,2.37,9.9,4.56,3.15-6.06,5.36-2.4,8.1,1.11a126.35,126.35,0,0,0,17,17.88c0-4.66-2-9.51-1.54-14.4,2.81.28,4.14,4.35,5.88,6.64a49.88,49.88,0,0,0,10.66,9.8c4.43,3.23,8.65,6.6,12.81,10,6.82-.17,12-1.06,12.08-3.49,2-.13,4,0,6-.15C637.21,449.08,628,435.36,620.23,432.14Z"/><path class="cls-9" d="M544.13,397.74c3.26,5.15,8.41,9,12,14.25,2,3,4.15,6.06,6.5,8.87.64-2.21.56-5.13.63-7.69,4.76,9.33,16.68,18.69,23.6,27.42,6.63,8.38,13.59,17.11,21.07,24.69-3.07-1.85-6.08-3.45-9.59-3.57.29,1.38-.56,3.53-.34,4.75-3.74.06-6.29-2.52-9.48-4.06-.17,2.72-.06,5.56-.17,8.29-10.76-4.7-27.63-2.25-39.13-2.19-4,0-12.95,2-16.23.94-5-1.54-7.44-8.1-11.75-10.45,2.4-1.52,4.61-3.37,7.39-3.74-.25-4.22,2.36-14.3,6.32-14.78.63-4.77-1.69-9.43-2.61-13.83,1,.52,2.78.44,4,1.27.2-5.88-.62-10.45.15-16.25C537.31,405.12,540.83,401.86,544.13,397.74Z"/><path class="cls-10" d="M563.79,437.06l-14-4.91,7,9.83,2.81,9.12h7l11.23,10.53,4.61,7.27a29.44,29.44,0,0,1,5.86,1.79c.11-2.73,0-5.57.17-8.29,3.18,1.54,5.74,4.12,9.48,4.06-.22-1.22.63-3.37.34-4.75,3.51.12,6.52,1.72,9.59,3.57-7.48-7.58-14.44-16.31-21.07-24.69-6.92-8.73-18.84-18.09-23.6-27.42-.07,2.56,0,5.48-.63,7.69-2.35-2.81-4.45-5.85-6.5-8.87-3.54-5.23-8.69-9.1-12-14.25l7.73,21.07Z"/><path class="cls-9" d="M654.24,410c3.77,3.2,22,27.39,26.73,36.23a54.5,54.5,0,0,0,6,8.8c1.57,1.9,6.92,5.42,6.73,7.7-4.06.39-7.46-1.52-11.35-2-3.21-.37-5.59,1.16-8.62,1.78a40.06,40.06,0,0,1-8.05.51c-2.93,0-5.12,0-7-1.5a18.21,18.21,0,0,1-4.72-6.48c-.62-1.37-.66-2.18-1.69-3.4-1.18-1.39-2.58-2.24-3.37-4a32,32,0,0,1-3.15-11.91A9.74,9.74,0,0,1,647,436c0-2.73-1.17-6.92-.19-9.31l.48-.08c-.88-2.1-.28-3.28.08-5.05.26-.07.54,0,.77-.09a29.63,29.63,0,0,0-.18-5.87c-.1-1.24-1-3.74-.65-4.87.34.25,1.6.5,2,.78,0-.4.13-.94.1-1.36.3.29,1.06.56,1.34.82-.56-.53-.58-5.05-.25-5.4A33.83,33.83,0,0,0,654.24,410Z"/><path class="cls-10" d="M686.94,455.07a54.5,54.5,0,0,1-6-8.8c-4.77-8.84-23-33-26.73-36.23a25.7,25.7,0,0,1-3-3.47c1.17,2.2,2.67,4.55,3.33,5.86,1.73,3.38,3.7,6.59,5.53,10-1.34-2.37-4.92-4.57-7-6.5,1.39,3.64,4.74,7.27,6.81,10.62,2.46,4,5.21,7.76,7.63,11.75-3.94-3-8.16-7.34-12.69-9.3,0,2,1.85,4,2.79,5.82-1.78-1.29-3.46-3.6-5.68-3.84,1.65,7.13,8.73,12.57,11.11,19.56a25.89,25.89,0,0,1-.2-5.62c1.51.79,3.06,2.11,4.7,2.47.74-1.63,0-3.5.08-5.26,2,2.37,4.23,4.48,6.31,6.73,1.62-.18,4.22,3.44,5.87,4.52a21.85,21.85,0,0,0-.24-2.93c2.88,3,6.48,5.11,9.93,7.26.31.19.62.4.93.61A43.79,43.79,0,0,1,686.94,455.07Z"/><path class="cls-9" d="M474.11,400.72c2.88,1.48,4.46,4.94,6.95,7,1.81,1.47,3.75,2.81,5.59,4.25a31.32,31.32,0,0,1,4.8,5.23,146.31,146.31,0,0,0,11,11.91c2.07,2,3.2,4.37,5,6.51,1.33,1.56,3.1,2.52,4.46,4,1.2,1.33,2,2.86,3.22,4.12a36.57,36.57,0,0,1,2.88,3.09c-2.7.17-5.53-.55-8.2-.19-3.29.44-6.66.82-10,1.23s-6.32,1.11-9.68.64c-2.05-.28-3.26-1.2-5.06-1.9s-3.62.08-4.66-2.07c-1.43-3-1.67-7.33-2.37-10.58-.65-3-1.68-5.6-1.82-8.69a55.18,55.18,0,0,0-1.26-7.7c-.49-2.67-1.3-6.08-1.13-8.73.82.88,2,1.42,2.79,2.37C475.87,407.32,473.82,404.76,474.11,400.72Z"/><path class="cls-10" d="M511.94,439.6c-1.36-1.49-3.13-2.45-4.46-4-1.81-2.14-2.94-4.52-5-6.51a146.31,146.31,0,0,1-11-11.91,31.32,31.32,0,0,0-4.8-5.23c-1.84-1.44-3.78-2.78-5.59-4.25-2.49-2-4.07-5.49-6.95-7,2.22,3.59,6.78,12.59,10.57,16.71a10.35,10.35,0,0,0-3.73-2.09c.7,1.27,2,2.31,2.24,3.78-1.64-.46-3.33-2.35-5-2.47a192.13,192.13,0,0,0,10.53,18.7,8.41,8.41,0,0,1,.07-1.82c1,.26,1.6,1.2,2.64,1.23-.06-.59.17-1.32.05-1.89a5.62,5.62,0,0,0,1.43,1.21c-.56-3.49-2.83-7.41-4.6-10.48,1.46,1.35,2.84,3.57,4.62,4.58-.18-1.87-1.82-3.6-2.07-5.45a68,68,0,0,1,9.32,12.42,3.57,3.57,0,0,0-3-1c-.29,1.4.72,2.43.8,3.77-.46-.26-1.24-.17-1.66-.36.13.51,0,1.11.19,1.63-.33-.17-1-.24-1.25-.38,1.06,1.37,2.74,2.37,3.85,3.77s1.74,3.21,2.91,4.66c.07.1.15.19.23.29,2.53-.31,5.07-.61,7.57-.94,2.67-.36,5.5.36,8.2.19a36.57,36.57,0,0,0-2.88-3.09C513.91,442.46,513.14,440.93,511.94,439.6Z"/><path class="cls-9" d="M796.65,368.6c3.65,5.78,9.44,10.13,13.42,16a120.53,120.53,0,0,0,7.3,10c.71-2.47.63-5.76.71-8.63,5.35,10.48,18.74,21,26.5,30.8,7.46,9.42,15.28,19.23,23.68,27.74-3.46-2.08-6.83-3.88-10.78-4,.33,1.56-.63,4-.38,5.34-4.2.07-7.07-2.83-10.64-4.56-.19,3.06-.07,6.25-.2,9.32-12.09-5.29-31-2.53-44-2.47-4.5,0-14.55,2.22-18.24,1.07-5.57-1.74-8.35-9.11-13.2-11.75,2.7-1.7,5.18-3.78,8.31-4.2-.29-4.74,2.64-16.07,7.1-16.61.71-5.35-1.9-10.59-2.94-15.53,1.14.59,3.13.49,4.51,1.43.22-6.61-.7-11.74.16-18.25C789,376.89,792.93,373.22,796.65,368.6Z"/><path class="cls-10" d="M818.73,412.77,803,407.25l7.88,11L814,428.54h7.88l12.62,11.83,5.18,8.17a32.57,32.57,0,0,1,6.58,2c.13-3.07,0-6.26.2-9.32,3.57,1.73,6.44,4.63,10.64,4.56-.25-1.37.71-3.78.38-5.34,3.95.14,7.32,1.94,10.78,4-8.4-8.51-16.22-18.32-23.68-27.74-7.76-9.8-21.15-20.32-26.5-30.8-.08,2.87,0,6.16-.71,8.63a120.53,120.53,0,0,1-7.3-10c-4-5.87-9.77-10.22-13.42-16l8.67,23.66Z"/><path class="cls-9" d="M457.78,427s-2.81-6.27-4.54-6.49-1.3-2.81-3.25-2.81-5.84,8.43-6.05,9.3S452.16,429.38,457.78,427Z"/><path class="cls-10" d="M450.79,417.91c1,.62,1,2.42,2.45,2.6,1.73.22,4.54,6.49,4.54,6.49C455.26,424.9,449.9,425.43,450.79,417.91Z"/><path class="cls-9" d="M709.6,507.14s-2.6-6.49-3.25-7.35-1.51-2.6-3-2.38-3.46,2.16-3.46,2.16a1.37,1.37,0,0,0-2-.22c-1.08.87-4.76,7.79-4.76,7.79S703.54,510.39,709.6,507.14Z"/><path class="cls-10" d="M702.88,508.58a3.4,3.4,0,0,1,1.09-1.44c4.12-3.65-1.46-1.82-1.16-4.15.26-2-1.15-2.79,1.83-5.2a8.44,8.44,0,0,1,1.71,2c.65.86,3.25,7.35,3.25,7.35A14.63,14.63,0,0,1,702.88,508.58Z"/><path class="cls-9" d="M675.72,524.41c.72-1.35-7.58-7.14-10-8.65s-8.22-2.38-9.3,0,0,6.7,0,6.7-3,0-3.68,1.95S674.2,527.22,675.72,524.41Z"/><path class="cls-9" d="M637.85,520.24s-3.24-6.57-5-6-5.84,6-5.84,6S634.61,521.49,637.85,520.24Z"/><path class="cls-9" d="M659.06,493c1.43-1.8-9.09-11.47-13.42-12.33S624,482.87,624,482.87s7.14,8.65,16,10.17S657.33,495.2,659.06,493Z"/><path class="cls-9" d="M627,506.45c1.88-1.32.86-5.41-3-7.14s.43-3.68,0-6.06-4.11-13.5-5.41-12.7-14.5,9.24-20.77,11.84-29.43,10.17-28.34,11.68,34.61,3.25,42.62,3.25S624.87,508,627,506.45Z"/><path class="cls-10" d="M618.6,480.55c3.89.37,20.55,12.7,30.94,17.9s25.1,9,25.1,9l-52.58,0C607.78,507.44,618.6,480.55,618.6,480.55Z"/><path class="cls-9" d="M392.22,504.24c1.33-.93.61-3.8-2.12-5s.3-2.58,0-4.25-2.89-9.48-3.8-8.92-10.18,6.49-14.59,8.31-20.65,7.14-19.9,8.21,24.31,2.28,29.93,2.28S390.7,505.3,392.22,504.24Z"/><path class="cls-10" d="M386.3,486.05c2.73.26,14.43,8.92,21.72,12.57s17.62,6.32,17.62,6.32H388.73C378.7,504.93,386.3,486.05,386.3,486.05Z"/><path class="cls-10" d="M645.64,480.71c7.36.43,35.92,15.57,35.92,15.57s-24.67,3-41.11,0S645.64,480.71,645.64,480.71Z"/><path class="cls-10" d="M660,514.3a11.87,11.87,0,0,1,5.76,1.46c2.38,1.51,10.68,7.3,10,8.65C670.35,524.41,659.92,519,660,514.3Z"/><path class="cls-9" d="M727.91,470.16c.72-1.34-7.57-7.14-9.95-8.65s-8.23-2.38-9.31,0,0,6.71,0,6.71-3,0-3.68,1.94S726.39,473,727.91,470.16Z"/><path class="cls-10" d="M712.19,460.05a11.91,11.91,0,0,1,5.77,1.46c2.38,1.51,10.67,7.31,9.95,8.65C722.54,470.16,712.11,464.8,712.19,460.05Z"/><path class="cls-10" d="M632.88,514.28c1.73-.61,5,6,5,6a2.63,2.63,0,0,1-1,0C634.23,519.82,630.58,516.41,632.88,514.28Z"/><path class="cls-9" d="M550.69,486.2c.72-1.35-7.58-7.14-10-8.66s-8.22-2.38-9.3,0,0,6.71,0,6.71-3,0-3.68,1.95S549.17,489,550.69,486.2Z"/><path class="cls-9" d="M512.82,482s-3.24-6.58-5-6-5.84,6-5.84,6S509.58,483.27,512.82,482Z"/><path class="cls-10" d="M535,476.09a11.87,11.87,0,0,1,5.76,1.45c2.38,1.52,10.68,7.31,10,8.66C545.32,486.2,534.89,480.83,535,476.09Z"/><path class="cls-10" d="M507.85,476.06c1.73-.61,5,6,5,6a2.87,2.87,0,0,1-1,0C509.2,481.6,505.55,478.2,507.85,476.06Z"/><path class="cls-9" d="M537,490.06s-2.81-6.27-4.54-6.49-1.3-2.81-3.25-2.81-5.84,8.44-6,9.3S531.33,492.44,537,490.06Z"/><path class="cls-10" d="M530,481c1.06.61,1,2.41,2.46,2.59,1.73.22,4.54,6.49,4.54,6.49C534.43,488,529.07,488.49,530,481Z"/><path class="cls-9" d="M654.68,469.16c-.35-.35-13.7-7.15-15.22-8.55s-12.77,6.32-15.69,8.31S654.68,469.16,654.68,469.16Z"/><path class="cls-10" d="M639.46,460.61c1.52,1.4,14.87,8.2,15.22,8.55C654.68,469.16,635.59,466.35,639.46,460.61Z"/><path class="cls-9" d="M460.24,466.66c-1.76.35-13.7,1.76-23.89-4.1,0,0,10.42-3.27,13.58-3.86S460.24,466.66,460.24,466.66Z"/><path class="cls-10" d="M451.72,459.07c3.49,1.58,8.52,7.59,8.52,7.59S448.18,463,451.72,459.07Z"/><path class="cls-9" d="M580.9,521.45s-17.15-13.92-19.31-14.24-8.63,3.45-8.63,3.45-6.25-1.18-7.66-.43-6.25,4.64-6.25,4.64-12.95-8.95-14.46-9.92-4.75-4.21-5.61-4.64-7.12,7.55-7.12,7.55-5.72-2.16-6.91-1.4a32.55,32.55,0,0,0-3.88,3.82s-5.39-3.29-6-3-10.14,11-10.14,11-5.07-4.1-7.34-2.37a61.09,61.09,0,0,0-5.72,5.5Z"/><path class="cls-10" d="M484.89,518.32s-7.54,2.09-7.7-2.08l.36-.29C479.82,514.22,484.89,518.32,484.89,518.32Z"/><path class="cls-10" d="M521.24,512.28a59.15,59.15,0,0,0-4.74-5.18,58.29,58.29,0,0,1-4.43,4.32c-.45.23-5.2-2.64-7.92-4.32a6.72,6.72,0,0,1,.8-.64c1.19-.76,6.91,1.4,6.91,1.4s6.26-8,7.12-7.55,4.1,3.66,5.61,4.64c1.13.72,8.64,5.9,12.36,8.47C537,513.42,523.08,514.65,521.24,512.28Z"/><path class="cls-10" d="M561.7,510.12s-6.9,2.48-8.74.54c0,0,6.48-3.77,8.63-3.45s19.31,14.24,19.31,14.24C570.76,520.37,561.7,510.12,561.7,510.12Z"/><path class="cls-10" d="M495,507.32c.44-.22,3.11,1.24,4.74,2.19C499.77,509.51,495.14,511.09,495,507.32Z"/><path class="cls-9" d="M472.67,488.16c-.35-.35-13.7-7.14-15.23-8.55s-12.76,6.33-15.69,8.32S472.67,488.16,472.67,488.16Z"/><path class="cls-10" d="M457.44,479.61c1.53,1.41,14.88,8.2,15.23,8.55C472.67,488.16,453.58,485.35,457.44,479.61Z"/><path class="cls-9" d="M839.87,486.46s-17.16-13.92-19.31-14.24-8.63,3.45-8.63,3.45-6.26-1.19-7.66-.43-6.26,4.64-6.26,4.64-13-9-14.46-9.93-4.74-4.2-5.61-4.64-7.12,7.56-7.12,7.56-5.72-2.16-6.9-1.41a32.82,32.82,0,0,0-3.89,3.82s-5.39-3.28-6-2.95-10.14,11-10.14,11-5.07-4.1-7.33-2.37a58.51,58.51,0,0,0-5.72,5.5Z"/><path class="cls-10" d="M743.85,483.33s-7.54,2.09-7.69-2.08a3.26,3.26,0,0,1,.36-.29C738.78,479.23,743.85,483.33,743.85,483.33Z"/><path class="cls-10" d="M780.21,477.29a60.26,60.26,0,0,0-4.75-5.18,58,58,0,0,1-4.42,4.32c-.46.23-5.21-2.64-7.93-4.32a6.94,6.94,0,0,1,.81-.65c1.18-.75,6.9,1.41,6.9,1.41s6.26-8,7.12-7.56S782,469,783.55,470c1.13.73,8.64,5.91,12.37,8.48C795.92,478.43,782,479.66,780.21,477.29Z"/><path class="cls-10" d="M820.66,475.13s-6.9,2.48-8.73.54c0,0,6.47-3.78,8.63-3.45s19.31,14.24,19.31,14.24C829.73,485.38,820.66,475.13,820.66,475.13Z"/><path class="cls-10" d="M754,472.33c.45-.23,3.11,1.24,4.75,2.19C758.74,474.52,754.1,476.1,754,472.33Z"/><path class="cls-9" d="M778.59,512.69c.72-1.35-7.57-7.14-10-8.66s-8.23-2.38-9.31,0,0,6.71,0,6.71-3,0-3.68,2S777.07,515.5,778.59,512.69Z"/><path class="cls-9" d="M740.73,508.52s-3.25-6.58-5-6-5.84,6-5.84,6S737.48,509.76,740.73,508.52Z"/><path class="cls-10" d="M762.87,502.58a11.91,11.91,0,0,1,5.77,1.45c2.38,1.52,10.67,7.31,10,8.66C773.22,512.69,762.79,507.32,762.87,502.58Z"/><path class="cls-10" d="M735.75,502.55c1.73-.61,5,6,5,6a2.93,2.93,0,0,1-1,0C737.1,508.1,733.45,504.69,735.75,502.55Z"/><path class="cls-9" d="M764.85,516.56s-2.81-6.28-4.54-6.5-1.3-2.81-3.25-2.81-5.84,8.44-6,9.31S759.23,518.94,764.85,516.56Z"/><path class="cls-10" d="M757.85,507.47c1.06.61,1,2.42,2.46,2.59,1.73.22,4.54,6.5,4.54,6.5C762.33,514.45,757,515,757.85,507.47Z"/><path class="cls-9" d="M767.47,492.49c-1.75.35-13.7,1.75-23.89-4.1,0,0,10.43-3.28,13.59-3.87S767.47,492.49,767.47,492.49Z"/><path class="cls-10" d="M759,484.89c3.48,1.59,8.51,7.6,8.51,7.6S755.41,488.78,759,484.89Z"/><path class="cls-9" d="M205.86,474.4s-2.81-7.73-4.54-8-1.3-3.47-3.24-3.47-5.85,10.41-6.06,11.47S200.24,477.34,205.86,474.4Z"/><path class="cls-10" d="M198.87,463.2c1,.76,1,3,2.45,3.2,1.73.27,4.54,8,4.54,8C203.34,471.81,198,472.46,198.87,463.2Z"/><path class="cls-9" d="M225.12,526.7s-2.6-8-3.24-9.07-1.52-3.21-3-2.94-3.47,2.67-3.47,2.67a1.2,1.2,0,0,0-1.94-.27c-1.08,1.07-4.76,9.61-4.76,9.61S219.06,530.7,225.12,526.7Z"/><path class="cls-10" d="M218.4,528.47a4.24,4.24,0,0,1,1.1-1.77c4.11-4.5-1.47-2.25-1.17-5.13.26-2.49-1.15-3.43,1.83-6.41a10.3,10.3,0,0,1,1.72,2.47c.64,1.06,3.24,9.07,3.24,9.07A12.42,12.42,0,0,1,218.4,528.47Z"/><path class="cls-9" d="M473.23,506c.72-1.66-7.57-8.8-10-10.67s-8.22-2.93-9.3,0,0,8.27,0,8.27-3,0-3.68,2.4S471.71,509.46,473.23,506Z"/><path class="cls-9" d="M435.36,500.85s-3.24-8.11-5-7.35-5.84,7.35-5.84,7.35S432.12,502.39,435.36,500.85Z"/><path class="cls-9" d="M174.58,509.3c1.44-2.21-9.09-14.14-13.41-15.2s-21.64,2.66-21.64,2.66,7.14,10.68,16,12.54S172.85,512,174.58,509.3Z"/><path class="cls-9" d="M142.56,525.85c1.89-1.63.87-6.67-3-8.81s.43-4.53,0-7.47-4.11-16.66-5.41-15.66-14.49,11.39-20.77,14.59S83.93,521,85,522.91s34.62,4,42.62,4S140.4,527.71,142.56,525.85Z"/><path class="cls-10" d="M134.12,493.91c3.9.45,20.56,15.66,30.94,22.06s25.1,11.11,25.1,11.11H137.59C123.3,527.07,134.12,493.91,134.12,493.91Z"/><path class="cls-9" d="M780.22,462.26c1.33-1.14.61-4.68-2.12-6.18s.3-3.18,0-5.24-2.89-11.7-3.8-11-10.18,8-14.59,10.25-20.65,8.8-19.9,10.11S764.12,463,769.74,463,778.7,463.57,780.22,462.26Z"/><path class="cls-10" d="M774.3,439.84c2.73.32,14.43,11,21.72,15.49s17.62,7.8,17.62,7.8H776.73C766.7,463.12,774.3,439.84,774.3,439.84Z"/><path class="cls-10" d="M161.17,494.1c7.35.53,35.91,19.21,35.91,19.21s-24.66,3.73-41.1,0S161.17,494.1,161.17,494.1Z"/><path class="cls-10" d="M457.51,493.53a10.15,10.15,0,0,1,5.76,1.79c2.39,1.87,10.68,9,10,10.67C467.86,506,457.43,499.37,457.51,493.53Z"/><path class="cls-9" d="M243.43,481.1c.73-1.67-7.57-8.81-10-10.68s-8.22-2.93-9.3,0,0,8.27,0,8.27-3,0-3.68,2.41S241.92,484.56,243.43,481.1Z"/><path class="cls-10" d="M227.72,468.63a10.18,10.18,0,0,1,5.76,1.79c2.38,1.87,10.68,9,10,10.68C238.07,481.1,227.63,474.48,227.72,468.63Z"/><path class="cls-10" d="M430.39,493.5c1.73-.76,5,7.35,5,7.35a2.26,2.26,0,0,1-1,0C431.74,500.33,428.09,496.13,430.39,493.5Z"/><path class="cls-9" d="M421.76,465.31c.72-1.66-7.57-8.8-9.95-10.67s-8.23-2.93-9.31,0,0,8.27,0,8.27-3,0-3.68,2.4S420.24,468.78,421.76,465.31Z"/><path class="cls-9" d="M383.9,460.18s-3.25-8.12-5-7.36-5.84,7.36-5.84,7.36S380.65,461.71,383.9,460.18Z"/><path class="cls-10" d="M406,452.85a10.19,10.19,0,0,1,5.77,1.79c2.38,1.87,10.67,9,9.95,10.67C416.39,465.31,406,458.7,406,452.85Z"/><path class="cls-10" d="M378.92,452.82c1.73-.76,5,7.36,5,7.36a2.32,2.32,0,0,1-1,0C380.27,459.65,376.63,455.45,378.92,452.82Z"/><path class="cls-9" d="M408,470.08s-2.81-7.73-4.54-8-1.3-3.47-3.25-3.47-5.84,10.41-6.05,11.47S402.4,473,408,470.08Z"/><path class="cls-10" d="M401,458.88c1.05.76,1,3,2.45,3.2,1.73.27,4.54,8,4.54,8C405.5,467.49,400.14,468.14,401,458.88Z"/><path class="cls-9" d="M165.23,453.5c-.36-.43-13.71-8.81-15.23-10.54s-12.76,7.8-15.69,10.25S165.23,453.5,165.23,453.5Z"/><path class="cls-10" d="M150,443c1.52,1.73,14.87,10.11,15.23,10.54C165.23,453.5,146.14,450,150,443Z"/><path class="cls-9" d="M410.64,440.41c-1.75.43-13.7,2.16-23.88-5.06,0,0,10.42-4,13.58-4.76S410.64,440.41,410.64,440.41Z"/><path class="cls-10" d="M402.13,431c3.49,2,8.51,9.37,8.51,9.37S398.58,435.84,402.13,431Z"/><path class="cls-9" d="M133.45,483.49s-17.16-17.16-19.32-17.56-8.63,4.26-8.63,4.26-6.25-1.47-7.66-.54-6.25,5.72-6.25,5.72-13-11-14.46-12.23-4.75-5.19-5.61-5.73-7.12,9.32-7.12,9.32-5.72-2.66-6.9-1.73a37,37,0,0,0-3.89,4.71s-5.39-4-6-3.65-10.14,13.57-10.14,13.57-5.07-5.05-7.34-2.93a68.23,68.23,0,0,0-5.71,6.79Z"/><path class="cls-10" d="M37.43,479.63s-7.54,2.58-7.7-2.56l.36-.37C32.36,474.58,37.43,479.63,37.43,479.63Z"/><path class="cls-10" d="M73.79,472.18A68.93,68.93,0,0,0,69,465.8a67,67,0,0,1-4.42,5.32c-.46.28-5.21-3.25-7.93-5.33a6.44,6.44,0,0,1,.81-.79c1.18-.93,6.9,1.73,6.9,1.73s6.26-9.85,7.12-9.32,4.1,4.53,5.61,5.73c1.13.89,8.64,7.28,12.36,10.45C89.49,473.59,75.62,475.11,73.79,472.18Z"/><path class="cls-10" d="M114.24,469.52s-6.9,3.06-8.74.67c0,0,6.48-4.66,8.63-4.26s19.32,17.56,19.32,17.56C123.3,482.16,114.24,469.52,114.24,469.52Z"/><path class="cls-10" d="M47.57,466.06c.45-.27,3.11,1.54,4.74,2.71C52.31,468.77,47.68,470.72,47.57,466.06Z"/><path class="cls-9" d="M817.17,467.94c-.35-.43-13.7-8.81-15.22-10.54s-12.77,7.8-15.7,10.25S817.17,467.94,817.17,467.94Z"/><path class="cls-10" d="M802,457.4c1.52,1.73,14.87,10.11,15.22,10.54C817.17,467.94,798.08,464.47,802,457.4Z"/><path class="cls-9" d="M355.39,501.19S338.24,484,336.08,483.63s-8.63,4.26-8.63,4.26-6.26-1.47-7.66-.53-6.26,5.72-6.26,5.72S300.59,482,299.08,480.84s-4.75-5.19-5.61-5.72-7.12,9.31-7.12,9.31-5.72-2.66-6.91-1.73a37.66,37.66,0,0,0-3.88,4.71s-5.4-4.05-6-3.65-10.14,13.57-10.14,13.57-5.07-5.05-7.34-2.92a67.67,67.67,0,0,0-5.72,6.78Z"/><path class="cls-10" d="M259.38,497.33s-7.55,2.58-7.7-2.56l.36-.36C254.31,492.28,259.38,497.33,259.38,497.33Z"/><path class="cls-10" d="M295.73,489.88A69.23,69.23,0,0,0,291,483.5a65.24,65.24,0,0,1-4.43,5.32c-.46.28-5.2-3.25-7.92-5.33a8.25,8.25,0,0,1,.8-.79c1.19-.93,6.91,1.73,6.91,1.73s6.25-9.85,7.12-9.31,4.1,4.52,5.61,5.72c1.13.89,8.63,7.28,12.36,10.45C311.44,491.29,297.57,492.81,295.73,489.88Z"/><path class="cls-10" d="M336.19,487.22s-6.91,3.06-8.74.67c0,0,6.47-4.66,8.63-4.26s19.31,17.56,19.31,17.56C345.25,499.86,336.19,487.22,336.19,487.22Z"/><path class="cls-10" d="M269.52,483.76c.44-.27,3.1,1.54,4.74,2.71C274.26,486.47,269.62,488.42,269.52,483.76Z"/><path class="cls-9" d="M97.73,502.31c.73-1.66-7.57-8.81-10-10.67s-8.22-2.94-9.3,0,0,8.27,0,8.27-3,0-3.68,2.4S96.22,505.78,97.73,502.31Z"/><path class="cls-9" d="M256.25,528.4s-3.25-8.12-5-7.36-5.84,7.36-5.84,7.36S253,529.93,256.25,528.4Z"/><path class="cls-10" d="M82,489.84a10.18,10.18,0,0,1,5.76,1.8c2.38,1.86,10.68,9,10,10.67C92.37,502.31,81.93,495.69,82,489.84Z"/><path class="cls-10" d="M251.27,521c1.73-.76,5,7.36,5,7.36a2.32,2.32,0,0,1-1,0C252.62,527.87,249,523.67,251.27,521Z"/><path class="cls-9" d="M84,507.08s-2.82-7.74-4.55-8-1.3-3.46-3.24-3.46-5.84,10.4-6.06,11.47S78.37,510,84,507.08Z"/><path class="cls-10" d="M77,495.88c1,.75,1,3,2.45,3.19,1.73.27,4.55,8,4.55,8C81.47,504.49,76.11,505.14,77,495.88Z"/><path class="cls-9" d="M283,508.62c-1.76.44-13.7,2.17-23.89-5.05,0,0,10.42-4,13.58-4.76S283,508.62,283,508.62Z"/><path class="cls-10" d="M274.48,499.26c3.49,2,8.52,9.36,8.52,9.36S270.93,504.06,274.48,499.26Z"/><path class="cls-9" d="M136.56,315.1c6.81,3.48,10.54,11.67,16.43,16.47,4.28,3.48,8.86,6.63,13.2,10,4.74,3.72,7.56,7.8,11.36,12.36a345.46,345.46,0,0,0,26,28.15c4.87,4.71,7.55,10.33,11.84,15.39,3.12,3.68,7.32,5.95,10.52,9.48,2.85,3.13,4.67,6.76,7.61,9.72a90.24,90.24,0,0,1,6.82,7.3c-6.38.41-13.07-1.29-19.39-.45-7.76,1-15.72,1.95-23.57,2.93s-14.94,2.6-22.89,1.5c-4.84-.67-7.71-2.83-11.95-4.5-4.57-1.8-8.56.2-11-4.88-3.38-7-4-17.33-5.62-25-1.51-7-4-13.23-4.29-20.53-.27-6.37-1.85-12-3-18.2s-3.06-14.36-2.66-20.62c1.93,2.07,4.68,3.35,6.58,5.58C140.72,330.69,135.89,324.65,136.56,315.1Z"/><path class="cls-10" d="M226,407c-3.2-3.53-7.4-5.8-10.52-9.48-4.29-5.06-7-10.68-11.84-15.39a345.46,345.46,0,0,1-26-28.15c-3.8-4.56-6.62-8.64-11.36-12.36-4.34-3.41-8.92-6.56-13.2-10-5.89-4.8-9.62-13-16.43-16.47,5.25,8.47,16,29.74,25,39.5a24.15,24.15,0,0,0-8.81-5c1.67,3,4.66,5.45,5.3,8.93-3.87-1.1-7.87-5.56-11.82-5.84a453.47,453.47,0,0,0,24.88,44.19c-.32-1.38.19-3,.16-4.29,2.32.6,3.79,2.83,6.25,2.89-.15-1.38.41-3.11.11-4.45a13.59,13.59,0,0,0,3.39,2.86c-1.32-8.26-6.69-17.52-10.87-24.78,3.45,3.2,6.7,8.44,10.9,10.82-.41-4.41-4.29-8.49-4.89-12.86a159.36,159.36,0,0,1,22,29.34,8.5,8.5,0,0,0-7-2.3c-.7,3.33,1.7,5.76,1.88,8.91-1.08-.6-2.93-.4-3.93-.83.32,1.19-.1,2.6.45,3.84-.77-.39-2.31-.57-2.93-.9,2.5,3.25,6.46,5.61,9.09,8.91s4.11,7.6,6.86,11l.56.68c6-.72,12-1.44,17.88-2.23,6.32-.84,13,.86,19.39.45a90.24,90.24,0,0,0-6.82-7.3C230.63,413.75,228.81,410.12,226,407Z"/><path class="cls-9" d="M105.63,339.91c6.63,5.61,38.57,48.11,46.94,63.62A98.32,98.32,0,0,0,163.06,419c2.76,3.33,12.15,9.52,11.82,13.52-7.12.68-13.1-2.67-19.92-3.45-5.64-.64-9.82,2.05-15.15,3.14-4.73,1-9.3.88-14.14.89-5.15,0-9,0-12.32-2.63a32.06,32.06,0,0,1-8.3-11.38c-1.09-2.4-1.15-3.84-3-6-2.08-2.45-4.54-3.95-5.93-7-3-6.69-5.36-13.95-5.52-20.92a18.15,18.15,0,0,1,2.35.38c0-4.81-2.06-12.16-.34-16.37l.85-.14c-1.54-3.69-.5-5.76.14-8.87.44-.11.94.07,1.35-.15.44-3.1-.07-7.16-.32-10.31-.17-2.18-1.82-6.57-1.14-8.55.6.43,2.82.88,3.45,1.37-.08-.72.22-1.66.17-2.39.52.51,1.86,1,2.34,1.44-1-.94-1-8.88-.43-9.48C99.06,332.1,103.14,337.8,105.63,339.91Z"/><path class="cls-10" d="M163.06,419a97.64,97.64,0,0,1-10.49-15.47c-8.37-15.51-40.31-58-46.94-63.62a45.9,45.9,0,0,1-5.29-6.09c2.07,3.86,4.69,8,5.86,10.28,3,5.93,6.49,11.58,9.71,17.52-2.36-4.16-8.64-8-12.33-11.42,2.44,6.4,8.32,12.78,12,18.65,4.31,7,9.14,13.62,13.4,20.64-6.91-5.29-14.34-12.9-22.3-16.34,0,3.58,3.26,7.09,4.91,10.23-3.12-2.27-6.08-6.32-10-6.75,2.9,12.54,15.34,22.08,19.5,34.36-.27-3.29-.78-6.65-.35-9.87,2.66,1.38,5.38,3.7,8.27,4.35,1.3-2.88,0-6.17.14-9.25,3.42,4.16,7.43,7.87,11.07,11.83,2.84-.33,7.42,6,10.31,7.93a36.36,36.36,0,0,0-.42-5.14c5.06,5.22,11.39,9,17.44,12.74.54.34,1.09.71,1.65,1.07A76.25,76.25,0,0,1,163.06,419Z"/><path class="cls-9" d="M17,351.12a18.06,18.06,0,0,0,6.29,3.46,24.29,24.29,0,0,1,.37-2.74c4.07,1.1,7.48-1.22,11.23-.61,5.36.88,9.14,7.54,13.61,10.4,12.14,7.79,23.33,14,32.81,24.91C89.5,396,98,405.12,106.89,414c5.15,5.12,16.66,13,17.62,20.37-6.1.44-10.92,1.24-17,1.41-8.32.23-15.8-4.2-24.07-3.95-9.63.3-19.71,2.29-29.34,3.33C49,435.7,43,438.38,38,436.44c-3-1.13-6.58-4.73-8.59-7.15-2.86-3.45-1.84-2-2.59-5.84-.6-3.11.51-3.66-2.27-7.68s-2.25-2.59-3.62-6.91c-1.78-5.66-4.83-12.48-5.92-18.33-.45-2.46.38-5.3.06-7.37-.63-4.22-3.21-7.63-3.92-11.78C15.35,369.85,14.49,356.15,17,351.12Z"/><path class="cls-10" d="M107.47,435.77c6.12-.17,10.94-1,17-1.41-1-7.39-12.47-15.25-17.62-20.37C98,405.12,89.5,396,81.27,386.54c-9.48-10.94-20.67-17.12-32.81-24.91-4.47-2.86-8.25-9.52-13.61-10.4-2.09-.34-4.08.23-6.14.61,4.42,6.92,9.6,13.48,12.47,20.83-1.69-.29-3.73.7-5.19.68.89,2.23,2.71,4,4.44,5.9-3.09-.19-6.47-1.06-9.5-1,.55,6.33,8.06,16,10.93,22.27,4.49,9.87,6.11,18.92,15.7,25.5.34-3.69-.48-7.39-.57-11.07,2.92,2.41,6.49,9,10.45,8.17,1.51-5.81,9.19,4.7,13.14,8.89.94-.06,1.88-.12,2.82-.15C91.67,431.57,99.15,436,107.47,435.77Z"/><path class="cls-9" d="M285.39,329.07c5.72,4.67,9.05,10.46,12.68,16.74.59,1,7,9,6.91,9.27.15-.69.51-1.35.66-2,.7,1.07,2.49,2.19,3.34,3,.11-1.15,1-2.36,1.18-3.46,12.78,11.81,17.76,34.23,32.85,43.93-.17-.69-.19-1.41-.27-1.92,7.74,3.22,17,16.94,19.87,24.88-2,.14-4.05,0-6,.15-.26,6.71-39,1.68-45.13,2.3-4,.42-8.48,2.08-12.49,1.45-5.87-.92-10.77-4.68-17-3.35-2.37.51-3.37,1.88-6.29,2.06-3.91.24-8-1.1-12-1.06.19-3.23-1.64-5.83-3-8.62,1.62,2,1.28-3.49,1.62-5.28,11.85,1.41-1.65-22.62-2.1-27.33-.49-5.13.78-10.69-.05-15.76-.62-3.74-2.2-7.71-3-11.5,3.41.85,6.23,5.25,9.53,4.92-4.26-12.95-4.9-26.35-6-39.94,4.37,2.33,6.88,7.69,11.42,9.52-.25-1.54.28-3.4.09-5,0-.35,12,5.87,13.12,6.8Z"/><path class="cls-10" d="M342.74,394.64c.08.51.1,1.23.27,1.92-15.09-9.7-20.07-32.12-32.85-43.93-.14,1.1-1.07,2.31-1.18,3.46-.85-.79-2.64-1.91-3.34-3-.15.62-.51,1.28-.66,2,0-.24-6.32-8.25-6.91-9.27-3.63-6.28-7-12.07-12.68-16.74l-.18-.15c-1-.77-9.18-5.08-12.1-6.41,4.89,8,11.8,14.82,15.12,24-2.66-2.63-6.54-3.89-10.1-4.84,1,2.43,3,4.51,4.09,7a14.86,14.86,0,0,1-5.14-.57c1.25,6.11,4.76,10.66,5,17.46.24,7.14-2.78,14.9-.41,21.94,6-2.79,5.24,2.37,9.9,4.57,3.15-6.07,5.37-2.41,8.1,1.1a126.35,126.35,0,0,0,17,17.88c0-4.66-2-9.51-1.54-14.4,2.82.28,4.14,4.35,5.89,6.64a49.41,49.41,0,0,0,10.66,9.8c4.43,3.24,8.64,6.61,12.8,10.05,6.82-.18,12-1.07,12.08-3.5,2-.13,4,0,6-.15C359.72,411.58,350.48,397.86,342.74,394.64Z"/><path class="cls-9" d="M235.06,380.6c2.32,3.66,6,6.42,8.51,10.14,1.46,2.15,3,4.32,4.63,6.32a24.06,24.06,0,0,0,.45-5.47c3.39,6.64,11.88,13.3,16.8,19.52a216,216,0,0,0,15,17.58c-2.19-1.31-4.33-2.46-6.83-2.54.21,1-.4,2.51-.24,3.38-2.66.05-4.48-1.79-6.75-2.89-.12,1.94,0,4-.13,5.91-7.66-3.35-19.67-1.61-27.86-1.56-2.84,0-9.22,1.4-11.56.67-3.53-1.1-5.29-5.77-8.36-7.45,1.7-1.08,3.28-2.39,5.26-2.66-.18-3,1.68-10.19,4.5-10.53.45-3.39-1.2-6.71-1.86-9.85.72.38,2,.32,2.86.91.14-4.19-.45-7.44.1-11.57C230.21,385.85,232.71,383.53,235.06,380.6Z"/><path class="cls-10" d="M249.06,408.6l-10-3.5,5,7,2,6.5h5l8,7.5,3.28,5.17a20.94,20.94,0,0,1,4.17,1.28c.09-1.95,0-4,.13-5.91,2.27,1.1,4.09,2.94,6.75,2.89-.16-.87.45-2.4.24-3.38,2.5.08,4.64,1.23,6.83,2.54a216,216,0,0,1-15-17.58c-4.92-6.22-13.41-12.88-16.8-19.52a24.06,24.06,0,0,1-.45,5.47c-1.67-2-3.17-4.17-4.63-6.32-2.52-3.72-6.19-6.48-8.51-10.14l5.5,15Z"/><path class="cls-9" d="M298.81,410c3.77,3.2,21.95,27.39,26.72,36.23a55.21,55.21,0,0,0,6,8.8c1.57,1.9,6.91,5.42,6.73,7.7-4.06.39-7.46-1.52-11.35-2-3.21-.37-5.59,1.16-8.62,1.78a40.06,40.06,0,0,1-8,.51c-2.94,0-5.12,0-7-1.5a18.09,18.09,0,0,1-4.72-6.48c-.62-1.37-.66-2.18-1.69-3.4-1.18-1.39-2.58-2.24-3.37-4a31.77,31.77,0,0,1-3.15-11.91,10,10,0,0,1,1.34.21c0-2.73-1.17-6.92-.2-9.31l.49-.08c-.88-2.1-.28-3.28.08-5.05.25-.07.53,0,.77-.09a29.63,29.63,0,0,0-.18-5.87c-.1-1.24-1-3.74-.65-4.87.34.25,1.6.5,2,.78,0-.4.12-.94.1-1.36.3.29,1.06.56,1.33.82-.55-.53-.58-5.05-.24-5.4A33.83,33.83,0,0,0,298.81,410Z"/><path class="cls-10" d="M331.51,455.07a55.21,55.21,0,0,1-6-8.8c-4.77-8.84-22.95-33-26.72-36.23a25.75,25.75,0,0,1-3-3.47c1.18,2.2,2.68,4.55,3.34,5.86,1.73,3.38,3.7,6.59,5.53,10-1.34-2.37-4.92-4.57-7-6.5,1.39,3.64,4.74,7.27,6.81,10.62,2.46,4,5.2,7.76,7.63,11.75-3.94-3-8.17-7.34-12.7-9.3,0,2,1.86,4,2.8,5.82-1.78-1.29-3.46-3.6-5.68-3.84,1.65,7.13,8.73,12.57,11.11,19.56a26.55,26.55,0,0,1-.21-5.62c1.52.79,3.07,2.11,4.71,2.47.74-1.63,0-3.5.08-5.26,1.95,2.37,4.23,4.48,6.31,6.73,1.61-.18,4.22,3.44,5.87,4.52a23.63,23.63,0,0,0-.24-2.93c2.88,3,6.48,5.11,9.92,7.26.31.19.63.4.94.61A43.79,43.79,0,0,1,331.51,455.07Z"/><path class="cls-9" d="M215,404.43c2.88,1.48,4.46,4.94,7,7,1.81,1.47,3.75,2.8,5.59,4.25a31.32,31.32,0,0,1,4.8,5.23,144.54,144.54,0,0,0,11,11.91c2.06,2,3.2,4.37,5,6.51,1.32,1.56,3.1,2.52,4.46,4,1.2,1.33,2,2.86,3.22,4.12a36.57,36.57,0,0,1,2.88,3.09c-2.7.17-5.53-.55-8.2-.19-3.29.44-6.66.82-10,1.23s-6.32,1.1-9.68.64c-2.05-.29-3.26-1.2-5.06-1.9s-3.62.08-4.66-2.07c-1.43-3-1.67-7.33-2.37-10.58-.65-3-1.68-5.6-1.82-8.69a55.18,55.18,0,0,0-1.26-7.7c-.49-2.67-1.3-6.08-1.13-8.73.82.88,2,1.42,2.79,2.37C216.77,411,214.72,408.47,215,404.43Z"/><path class="cls-10" d="M252.84,443.31c-1.36-1.49-3.14-2.45-4.46-4-1.81-2.14-2.95-4.52-5-6.51a144.54,144.54,0,0,1-11-11.91,31.32,31.32,0,0,0-4.8-5.23c-1.84-1.45-3.78-2.78-5.59-4.25-2.49-2-4.07-5.49-7-7,2.22,3.59,6.78,12.59,10.57,16.71a10.35,10.35,0,0,0-3.73-2.09c.7,1.27,2,2.31,2.24,3.78-1.64-.46-3.33-2.35-5-2.47a192.13,192.13,0,0,0,10.53,18.7,8.38,8.38,0,0,1,.07-1.82c1,.26,1.6,1.2,2.64,1.22-.06-.58.17-1.31,0-1.88a5.62,5.62,0,0,0,1.43,1.21c-.56-3.49-2.83-7.41-4.6-10.48,1.46,1.35,2.84,3.57,4.62,4.58-.18-1.87-1.82-3.6-2.07-5.45a68,68,0,0,1,9.32,12.42,3.57,3.57,0,0,0-3-1c-.29,1.4.72,2.43.8,3.77-.46-.26-1.24-.17-1.67-.36.14.51,0,1.11.19,1.63-.32-.17-1-.24-1.24-.38,1.06,1.37,2.74,2.37,3.85,3.77s1.74,3.21,2.91,4.66c.07.1.15.19.23.29,2.53-.31,5.07-.61,7.57-.94,2.67-.36,5.5.36,8.2.19a36.57,36.57,0,0,0-2.88-3.09C254.81,446.17,254,444.64,252.84,443.31Z"/><path class="cls-3" d="M31.39,77.53A339.61,339.61,0,0,0,139.25,91.17c25.25-.94,48.65-9.46,73.64-11.87,35.3-3.39,71.65-.57,106.38,5.22,66.07,11,126.53,31.08,192.83,10.56C558.58,80.69,604,59,653.64,61c41.83,1.64,104,23.87,163.75,35V0h-786Z"/><path class="cls-11" d="M817.39,0H645.85a22.33,22.33,0,0,1,2.31,4.67c6.76,19.15-29,21.14-21.7,35,5,9.49,20.91,8.61,28.87,4.4,14.16-7.49,26.18-20.6,43.55-20,20.06.7,36.13,14.84,54.88,21.3,23.32,8,43.8,10.24,63.63,2.49Z"/><path class="cls-11" d="M485.63,58.9c10.2-16.9-.11-19.65-16.14-21.37-45.71-4.9-88.24,12.73-132.7-7.09C312.92,19.79,292,6.09,265.55,1.46,251.29-1,229,.69,207.35,0h-176V25C83,48,137.68,56,196.83,43.85c79-16.19,149.81,18.85,226.5,27.1C441.71,72.93,473.93,78.29,485.63,58.9Z"/><path class="cls-11" d="M460.31,0a189.76,189.76,0,0,0,51.51,6.75A188.66,188.66,0,0,0,560.29,0Z"/><path class="cls-12" d="M220,32.15A2.17,2.17,0,1,1,217.8,30,2.17,2.17,0,0,1,220,32.15Z"/><path class="cls-12" d="M76.43,76.64l.9,4a.46.46,0,0,0,.33.34l4,.89a.44.44,0,0,1,0,.86l-4,.9a.43.43,0,0,0-.33.33l-.9,4a.43.43,0,0,1-.85,0l-.9-4a.4.4,0,0,0-.33-.33l-4-.9a.44.44,0,0,1,0-.86l4-.89a.43.43,0,0,0,.33-.34l.9-4A.44.44,0,0,1,76.43,76.64Z"/><path class="cls-12" d="M110.11,46.83l.9,4a.43.43,0,0,0,.33.34l4,.89a.44.44,0,0,1,0,.86l-4,.9a.4.4,0,0,0-.33.33l-.9,4a.44.44,0,0,1-.86,0l-.89-4a.43.43,0,0,0-.34-.33l-4-.9a.44.44,0,0,1,0-.86l4-.89a.45.45,0,0,0,.34-.34l.89-4A.44.44,0,0,1,110.11,46.83Z"/><path class="cls-12" d="M120,114a2.17,2.17,0,1,1-2.17-2.17A2.17,2.17,0,0,1,120,114Z"/><path class="cls-12" d="M105.7,115.85l.63,2.81a.3.3,0,0,0,.23.23l2.81.62a.31.31,0,0,1,0,.6l-2.81.63a.28.28,0,0,0-.23.23l-.63,2.81a.31.31,0,0,1-.6,0l-.62-2.81a.3.3,0,0,0-.24-.23l-2.81-.63a.31.31,0,0,1,0-.6l2.81-.62a.33.33,0,0,0,.24-.23l.62-2.81A.31.31,0,0,1,105.7,115.85Z"/><path class="cls-12" d="M107,97.88l.63,2.81a.33.33,0,0,0,.23.23l2.81.63a.3.3,0,0,1,0,.59l-2.81.63a.3.3,0,0,0-.23.23l-.63,2.81a.3.3,0,0,1-.59,0l-.63-2.81a.3.3,0,0,0-.23-.23l-2.81-.63a.3.3,0,0,1,0-.59l2.81-.63a.33.33,0,0,0,.23-.23l.63-2.81A.3.3,0,0,1,107,97.88Z"/><path class="cls-12" d="M105.63,161.79l.63,2.81a.33.33,0,0,0,.23.23l2.81.63a.3.3,0,0,1,0,.59l-2.81.63a.33.33,0,0,0-.23.23l-.63,2.81a.3.3,0,0,1-.59,0l-.63-2.81a.33.33,0,0,0-.23-.23l-2.81-.63a.3.3,0,0,1,0-.59l2.81-.63a.33.33,0,0,0,.23-.23l.63-2.81A.3.3,0,0,1,105.63,161.79Z"/><path class="cls-12" d="M266.8,26.88l.63,2.81a.33.33,0,0,0,.23.23l2.81.63a.3.3,0,0,1,0,.59l-2.81.63a.3.3,0,0,0-.23.23l-.63,2.81a.3.3,0,0,1-.59,0L265.58,32a.3.3,0,0,0-.23-.23l-2.81-.63a.3.3,0,0,1,0-.59l2.81-.63a.33.33,0,0,0,.23-.23l.63-2.81A.3.3,0,0,1,266.8,26.88Z"/><path class="cls-12" d="M183.69,76.15l.63,2.81a.33.33,0,0,0,.23.23l2.81.63a.3.3,0,0,1,0,.59l-2.81.63a.33.33,0,0,0-.23.23l-.63,2.81a.3.3,0,0,1-.59,0l-.63-2.81a.3.3,0,0,0-.23-.23l-2.81-.63a.3.3,0,0,1,0-.59l2.81-.63a.3.3,0,0,0,.23-.23l.63-2.81A.3.3,0,0,1,183.69,76.15Z"/><path class="cls-12" d="M171.47,54.58l1.33,6a.65.65,0,0,0,.49.49l6,1.33a.65.65,0,0,1,0,1.27l-6,1.33a.66.66,0,0,0-.49.49l-1.33,6a.65.65,0,0,1-1.27,0l-1.33-6a.68.68,0,0,0-.49-.49l-6-1.33a.65.65,0,0,1,0-1.27l6-1.33a.66.66,0,0,0,.49-.49l1.33-6A.65.65,0,0,1,171.47,54.58Z"/><path class="cls-12" d="M148,33.11l.63,2.81a.33.33,0,0,0,.23.23l2.81.63a.3.3,0,0,1,0,.59l-2.81.63a.33.33,0,0,0-.23.23L148,41a.3.3,0,0,1-.59,0l-.63-2.81a.3.3,0,0,0-.23-.23l-2.81-.63a.3.3,0,0,1,0-.59l2.81-.63a.3.3,0,0,0,.23-.23l.63-2.81A.3.3,0,0,1,148,33.11Z"/><path class="cls-12" d="M71.25,164.11l1.33,6a.68.68,0,0,0,.49.49l6,1.33a.65.65,0,0,1,0,1.27l-6,1.33a.65.65,0,0,0-.49.49l-1.33,6A.65.65,0,0,1,70,181l-1.33-6a.65.65,0,0,0-.49-.49l-6-1.33a.65.65,0,0,1,0-1.27l6-1.33a.68.68,0,0,0,.49-.49l1.33-6A.65.65,0,0,1,71.25,164.11Z"/><path class="cls-12" d="M170.47,163.42a1.88,1.88,0,1,1-1.88-1.87A1.88,1.88,0,0,1,170.47,163.42Z"/><path class="cls-13" d="M319.75,22.83a2.17,2.17,0,1,1-2.17-2.16A2.17,2.17,0,0,1,319.75,22.83Z"/><path class="cls-13" d="M259.32,100.3a1.25,1.25,0,1,1-1.24-1.25A1.24,1.24,0,0,1,259.32,100.3Z"/><circle class="cls-13" cx="69.05" cy="30.62" r="2.5"/><path class="cls-13" d="M149.34,163a3.38,3.38,0,1,1-3.38-3.38A3.38,3.38,0,0,1,149.34,163Z"/><path class="cls-13" d="M92.34,190A3.38,3.38,0,1,1,89,186.62,3.38,3.38,0,0,1,92.34,190Z"/><path class="cls-13" d="M220.34,65A3.38,3.38,0,1,1,217,61.62,3.38,3.38,0,0,1,220.34,65Z"/><circle class="cls-13" cx="145.96" cy="215.55" r="1.99"/><path class="cls-12" d="M628.81,32.15A2.17,2.17,0,1,0,631,30,2.17,2.17,0,0,0,628.81,32.15Z"/><path class="cls-12" d="M772.34,76.64l-.89,4a.45.45,0,0,1-.34.34l-4,.89a.44.44,0,0,0,0,.86l4,.9a.43.43,0,0,1,.34.33l.89,4a.44.44,0,0,0,.86,0l.89-4a.43.43,0,0,1,.34-.33l4-.9a.44.44,0,0,0,0-.86l-4-.89a.45.45,0,0,1-.34-.34l-.89-4A.44.44,0,0,0,772.34,76.64Z"/><path class="cls-12" d="M738.67,46.83l-.9,4a.44.44,0,0,1-.33.34l-4,.89a.44.44,0,0,0,0,.86l4,.9a.42.42,0,0,1,.33.33l.9,4a.43.43,0,0,0,.85,0l.9-4a.43.43,0,0,1,.33-.33l4-.9a.44.44,0,0,0,0-.86l-4-.89a.46.46,0,0,1-.33-.34l-.9-4A.44.44,0,0,0,738.67,46.83Z"/><path class="cls-12" d="M728.74,114a2.17,2.17,0,1,0,2.17-2.17A2.17,2.17,0,0,0,728.74,114Z"/><path class="cls-12" d="M743.08,115.85l-.63,2.81a.3.3,0,0,1-.23.23l-2.81.62a.31.31,0,0,0,0,.6l2.81.63a.28.28,0,0,1,.23.23l.63,2.81a.3.3,0,0,0,.59,0l.63-2.81a.3.3,0,0,1,.23-.23l2.81-.63a.31.31,0,0,0,0-.6l-2.81-.62a.33.33,0,0,1-.23-.23l-.63-2.81A.3.3,0,0,0,743.08,115.85Z"/><path class="cls-12" d="M741.82,97.88l-.62,2.81a.33.33,0,0,1-.24.23l-2.81.63a.3.3,0,0,0,0,.59l2.81.63a.3.3,0,0,1,.24.23l.62,2.81a.31.31,0,0,0,.6,0l.63-2.81a.28.28,0,0,1,.23-.23l2.81-.63a.3.3,0,0,0,0-.59l-2.81-.63a.3.3,0,0,1-.23-.23l-.63-2.81A.31.31,0,0,0,741.82,97.88Z"/><path class="cls-12" d="M743.14,161.79l-.62,2.81a.33.33,0,0,1-.23.23l-2.81.63a.3.3,0,0,0,0,.59l2.81.63a.33.33,0,0,1,.23.23l.62,2.81a.31.31,0,0,0,.6,0l.63-2.81a.3.3,0,0,1,.23-.23l2.81-.63a.3.3,0,0,0,0-.59l-2.81-.63a.3.3,0,0,1-.23-.23l-.63-2.81A.31.31,0,0,0,743.14,161.79Z"/><path class="cls-12" d="M582,26.88l-.62,2.81a.33.33,0,0,1-.24.23l-2.81.63a.3.3,0,0,0,0,.59l2.81.63a.3.3,0,0,1,.24.23l.62,2.81a.31.31,0,0,0,.6,0L583.2,32a.28.28,0,0,1,.23-.23l2.81-.63a.3.3,0,0,0,0-.59l-2.81-.63a.3.3,0,0,1-.23-.23l-.63-2.81A.31.31,0,0,0,582,26.88Z"/><path class="cls-12" d="M665.08,76.15,664.45,79a.3.3,0,0,1-.23.23l-2.81.63a.3.3,0,0,0,0,.59l2.81.63a.3.3,0,0,1,.23.23l.63,2.81a.31.31,0,0,0,.6,0l.62-2.81a.33.33,0,0,1,.24-.23l2.81-.63a.3.3,0,0,0,0-.59l-2.81-.63a.33.33,0,0,1-.24-.23l-.62-2.81A.31.31,0,0,0,665.08,76.15Z"/><path class="cls-12" d="M677.31,54.58l-1.33,6a.66.66,0,0,1-.5.49l-6,1.33a.65.65,0,0,0,0,1.27l6,1.33a.67.67,0,0,1,.5.49l1.33,6a.65.65,0,0,0,1.27,0l1.33-6a.65.65,0,0,1,.49-.49l6-1.33a.65.65,0,0,0,0-1.27l-6-1.33a.63.63,0,0,1-.49-.49l-1.33-6A.65.65,0,0,0,677.31,54.58Z"/><path class="cls-12" d="M700.74,33.11l-.63,2.81a.3.3,0,0,1-.23.23l-2.81.63a.3.3,0,0,0,0,.59l2.81.63a.3.3,0,0,1,.23.23l.63,2.81a.31.31,0,0,0,.6,0l.62-2.81a.33.33,0,0,1,.24-.23l2.81-.63a.3.3,0,0,0,0-.59l-2.81-.63a.33.33,0,0,1-.24-.23l-.62-2.81A.31.31,0,0,0,700.74,33.11Z"/><path class="cls-12" d="M777.53,164.11l-1.33,6a.67.67,0,0,1-.5.49l-6,1.33a.65.65,0,0,0,0,1.27l6,1.33a.64.64,0,0,1,.5.49l1.33,6a.64.64,0,0,0,1.26,0l1.34-6a.62.62,0,0,1,.49-.49l6-1.33a.65.65,0,0,0,0-1.27l-6-1.33a.65.65,0,0,1-.49-.49l-1.34-6A.65.65,0,0,0,777.53,164.11Z"/><path class="cls-12" d="M678.31,163.42a1.88,1.88,0,1,0,1.87-1.87A1.88,1.88,0,0,0,678.31,163.42Z"/><path class="cls-13" d="M529,22.83a2.17,2.17,0,1,0,2.17-2.16A2.17,2.17,0,0,0,529,22.83Z"/><path class="cls-13" d="M589.45,100.3a1.25,1.25,0,1,0,1.25-1.25A1.25,1.25,0,0,0,589.45,100.3Z"/><circle class="cls-13" cx="779.72" cy="30.62" r="2.5"/><path class="cls-13" d="M699.43,163a3.39,3.39,0,1,0,3.38-3.38A3.38,3.38,0,0,0,699.43,163Z"/><path class="cls-13" d="M756.43,190a3.39,3.39,0,1,0,3.38-3.38A3.38,3.38,0,0,0,756.43,190Z"/><path class="cls-13" d="M628.43,65a3.39,3.39,0,1,0,3.38-3.38A3.38,3.38,0,0,0,628.43,65Z"/><circle class="cls-13" cx="702.81" cy="215.55" r="1.99"/><text/></g></g></g></svg>