<svg id="BACKGROUND1" xmlns="http://www.w3.org/2000/svg" xmlns:xlink="http://www.w3.org/1999/xlink" viewBox="0 0 730.47 500"><defs><style>.cls-1{fill:none;}.cls-2{clip-path:url(#clip-path);}.cls-3{fill:#330f21;}.cls-4{fill:#230119;}.cls-5{fill:#2c061e;}.cls-6{fill:#4a0f26;}.cls-7{fill:#661a30;}.cls-8{fill:#cf4844;}.cls-9{fill:#ba263e;}.cls-10{fill:#e86b55;}.cls-11{fill:#3e1526;}.cls-12{fill:#fff6ff;}.cls-13{fill:#69342e;}</style><clipPath id="clip-path"><path class="cls-1" d="M565.1,501.3,0,500V0A1752.44,1752.44,0,0,1,254.88-21c16.49-.14,247.42-1.39,263.79,36.71,5.12,11.92-12.74,23.08.63,41.19,9.78,13.24,23.41,12.8,31.91,25.28,13.38,19.66-13.53,30.91-3.92,45.76,12.38,19.11,64.09,11.42,113.23,31.06,47.1,18.82,72.89,55.17,69.68,88.94-4.76,50.22-72.08,78.71-81.37,82.5,6.25,8.34,12.75,20.88,4.51,32.64-21.47,30.61-124.17,29.39-126,46.51-1.08,10.35,36.31,12.21,52.26,33.88,14.1,19.16-2.4,35,7,38.14"/></clipPath></defs><title>bg_big</title><g class="cls-2"><rect class="cls-3" x="-252.08" y="-14" width="1385.54" height="528"/><rect class="cls-4" x="-56.42" width="994.22" height="500"/><path class="cls-5" d="M-252.08,123.74c61.42,14.9,116.41,26.32,184.51,31.85C47.85,165,152.32,169.1,269.21,167.05c240.87-4.22,474.47-41.36,716.92-26.64,50.16,3,99.6,10.1,147.33,19.48V-14H-252.08Z"/><path class="cls-5" d="M985.13,367.92a79.86,79.86,0,0,0-13-1.19c-11,0-11.76-12.48-11.76-12.48V335.51l-15.76-7.8L941.86,309l-22-14.05a55.73,55.73,0,0,0-22,9.37c-11,7.8,0,0-13.76,1.56h-22L831.8,312.1l-24.76,14L782.28,323l-27.52,1.56s-2.75,6.24-22,4.68L708,340.2l-19.27,6.24-30.26-4.68s-8.26-10.93-13.76-17.17l-27.51-10.93L614.43,323l-22-4.69-24.76,3.13-22,1.56-11-6.25L515.38,309l-27.51-3.12-2.76-12.49-5.5-17.17-24.76-3.12-2.75,20.29,2.75,10.93-5.51,14-24.76,3.13-33-9.37-24.76-7.8-38.52,12.48-27.52-6.24-33-10.93L232,305.86l-13.76,7.8L199,316.78l-30.27,4.69s-44,10.92-52.28,14L9.11,285.57l-19.26-10.93-13.68-5-13.84-9.05-5.5-10.92-13.76-14-38.52-3.12-.75,1.22V514.24H985.13Z"/><path class="cls-3" d="M388.12,328.49l12.39-2.34-11-5.85-13.76-8.59-8.94-7.41,24.76,7.8,33,9.37,17.2,9.75L456.22,339l28.21,8.58,46.08,16a67.34,67.34,0,0,1-21.32-1.56c-10.32-2.73-24.08-1.95-24.08-1.95L464.48,357l-13.07-.78-15.82-1.56-13.07-5.86-8.94-6.63-17.2-6.25L384,333.17ZM866.88,312.1,880,306.25l11.48.34c-.76-.68-2.53-1.28-7.35-.73h-22L831.8,312.1l-20.73,11.76,3.54,5,17.19,5.46,16.51,9.37L864.13,350,876.51,355l9.63,1.17-25.45-16.39-9.63-4.69-1.37-5.46-2.07-7.41,8.26-5.86Zm-577.81,2.34,19.26,10.15,17.2,7,8.25,5.08,13.07,5.85-22-18.73-3.44-2.73-2.75-2.74,5.5-.39a12.65,12.65,0,0,0,2.75-1.48l-26.14-5.93-33-10.93,10.31,11.71ZM941.86,309l-22-14.05,3.44,5.85,7.57,10.93,6.19,3.51-20.64,7.42,8.94,7,11,6.24,13.07,9A73.06,73.06,0,0,1,960.37,349V335.51l-15.76-7.8Zm-304,20.68,11,.78.92.18c-1.74-2.15-3.5-4.28-5-6l-27.51-10.93,12.38,10.15ZM523,326.54l-21.33-11.32-13.75-9.36-2.76-12.49-5.5-17.17-24.76-3.12,11.69,7,8.94,4.69-2.75,7-1.37,12.49,12.38,7.8,3.44,7.42,17.19,7L520.88,334l11.7,3.52Zm64.86-7.61.49.2,6.19,7.41,2.75,11.71,20,10.92,11.69,2.34,17.88,9,15.83,6.24,19.26,7.81,16.51,3.9,22.69-1.17-12.38-7.42-27.51-11.7-13.76-4.29-15.13-7.42-13.76-5.85-5.5-5.86-13.76-4.29L611,326.15l-6.63-5.26-12-2.55Z"/><path class="cls-6" d="M-139.39,305.93c14.45-4.68,84.61-23.41,84.61-23.41l31-12.88L36,268.47s64,35.12,82.54,39.8,41.27,7,41.27,7l35.08,9.37L230,334s8.26-10.53,26.83,1.17,20.63,16.39,30.95,19.9,24.76-2.34,24.76-2.34L327,356.26l20.63,8.2s9.8,1.41,16.51,5.85c12.38,8.2,35.08,16.39,35.08,16.39L415.7,389l18.57,4.68,14.45,9.37h0c24.76,1.17,30.95,2.34,30.95,2.34l14.44,4.68,20.64,4.68c16.51-1.17,24.76-2.34,24.76-2.34l84.6-32.77,26.83-9.37,12.38-8.19,14.45-3.51h16.5l37.15-4.69,14.44-12.87,24.76-7,16.51,3.51L814,334l37.14,14.05,18.57,8.19,14.45,7L902.69,368h0c12.38,7,24.76,18.73,24.76,18.73s2.06,5.85,12.38,8.19c0,0,14.25,3.52,20.54,3.52L979,400.75l24.76,10.53c8.26,9.37,16.51,19.9,16.51,19.9l-2.06,21.07L-129.07,454.6Z"/><path class="cls-7" d="M428.08,406.6l12.38,4.68,14.45,3.51,24.76-9.36s-6.19-1.17-30.95-2.34l-.31,0,.31,0-14.45-9.37L415.7,389l-16.51-2.34s-22.7-8.19-35.08-16.39c-6.71-4.44-16.51-5.85-16.51-5.85L327,356.26l-14.45-3.51s-14.44,5.86-24.76,2.34c13.16,12.81,9.19,11,8.38,10.61l35,18.66,16.5,8.19H331.1l18.57,8.2,20.63,7L360,389l24.77,9.37-12.38-10.54-6.2-4.68,35.08,14.05ZM446,403l1.9.09Zm-5.77-.27.66,0Zm3.75.17,1.85.09Zm-4.48-.21h0Zm-.63,0-.54,0Zm-.85,0h0Z"/><path class="cls-7" d="M296.14,365.7l-.12-.07Z"/><path class="cls-7" d="M83.47,311.78l-6.19,9.37-24.76-2.34L91.73,334l24.76,8.2,28.89,12.87,35.08,7L153.63,334c10.32,0,31,1.17,31,1.17l2.06-7L230,338.71l24.76,10.53a34.09,34.09,0,0,1,20-1.47c-4-3-9.13-7-18-12.58C238.24,323.49,230,334,230,334l-35.08-9.36-35.08-9.37s-22.7-2.34-41.27-7S36,268.47,36,268.47C36,272,60.77,298.9,60.77,298.9Z"/><path class="cls-8" d="M968.72,429.07c-70.27-3.27-144.31,1.05-213.64,1.36q-131,.58-261.89,1c-88.22.24-178.46-5.4-266.79-7.86-34.35-1-67.91-3.41-102.6-1.49-31.68,1.76-60,3.47-91.8,2.61-30.94-.83-60.9,1-91.13,2.51-6.88.34-13.77.4-20.66.28V504H968.72Z"/><path class="cls-9" d="M439,428.85c1.51-1.07-9.53-6.82-14.07-7.33s-22.69,1.28-22.69,1.28A40,40,0,0,0,419,428.85C428.33,429.75,437.18,430.14,439,428.85Z"/><path class="cls-9" d="M405.42,436.83c2-.78.9-3.21-3.18-4.24s.45-2.19,0-3.61-4.31-8-5.67-7.56-15.21,5.5-21.79,7.05-30.85,6-29.72,6.95,36.3,1.93,44.7,1.93S403.15,437.73,405.42,436.83Z"/><path class="cls-10" d="M396.57,421.42c4.08.22,21.55,7.56,32.44,10.65s26.33,5.36,26.33,5.36H400.2C385.22,437.42,396.57,421.42,396.57,421.42Z"/><path class="cls-10" d="M424.93,421.52c7.71.25,37.67,9.26,37.67,9.26s-25.87,1.81-43.12,0S424.93,421.52,424.93,421.52Z"/><path class="cls-9" d="M678.39,376.19a33.58,33.58,0,0,0,8.67,2.7,11,11,0,0,1,.5-2.14c5.6.86,10.29-.95,15.46-.47,7.36.68,12.57,5.88,18.72,8.12,16.7,6.07,32.1,10.9,45.13,19.43,11.33,7.41,23,14.51,35.25,21.42,7.09,4,22.93,10.14,24.24,15.91-8.39.34-15,1-23.44,1.1-11.45.18-21.74-3.28-33.12-3.08-13.25.23-27.11,1.78-40.36,2.59-7,.43-15.23,2.52-22.16,1-4.06-.88-9-3.69-11.8-5.58-3.94-2.69-2.53-1.54-3.57-4.56-.83-2.43.7-2.85-3.13-6s-3.09-2-5-5.38c-2.46-4.42-6.65-9.75-8.15-14.31-.62-1.92.52-4.13.09-5.76-.88-3.28-4.42-5.95-5.39-9.19C676.19,390.81,675,380.11,678.39,376.19Z"/><path class="cls-10" d="M802.92,442.26c8.41-.14,15.05-.76,23.44-1.1-1.31-5.77-17.15-11.91-24.24-15.91-12.25-6.91-23.92-14-35.25-21.42-13-8.53-28.43-13.36-45.13-19.43-6.15-2.24-11.36-7.44-18.72-8.12a42.55,42.55,0,0,0-8.45.47c6.08,5.41,13.2,10.52,17.16,16.26-2.33-.22-5.15.54-7.15.53,1.23,1.74,3.74,3.14,6.11,4.6-4.26-.14-8.9-.83-13.08-.81.77,4.94,11.09,12.46,15,17.39,6.18,7.7,8.41,14.76,21.6,19.89.48-2.88-.65-5.76-.78-8.63,4,1.88,8.92,7,14.38,6.38,2.07-4.54,12.64,3.66,18.07,6.93,1.3-.05,2.6-.09,3.88-.11C781.18,439,791.47,442.44,802.92,442.26Z"/><path class="cls-9" d="M635,388.25c7.87,3.64,12.45,8.16,17.44,13.06.81.8,9.58,7.05,9.5,7.24.22-.54.71-1.06.91-1.54,1,.83,3.43,1.71,4.6,2.33.15-.9,1.43-1.85,1.63-2.71,17.58,9.22,24.43,26.72,45.19,34.29a8.55,8.55,0,0,1-.37-1.5c10.65,2.51,23.36,13.22,27.33,19.42-2.75.11-5.57,0-8.31.12-.36,5.23-53.71,1.31-62.08,1.79-5.56.33-11.67,1.63-17.19,1.13-8.07-.71-14.81-3.65-23.41-2.61-3.27.4-4.64,1.47-8.66,1.61-5.37.19-11.05-.86-16.52-.83.26-2.52-2.26-4.55-4.14-6.73,2.24,1.56,1.76-2.72,2.23-4.12,16.3,1.1-2.27-17.65-2.89-21.33-.67-4,1.07-8.34-.07-12.3-.85-2.92-3-6-4.17-9,4.7.66,8.58,4.1,13.12,3.83-5.87-10.1-6.75-20.56-8.27-31.16,6,1.81,9.46,6,15.7,7.42-.34-1.2.39-2.65.13-3.87-.06-.27,16.45,4.58,18,5.31Z"/><path class="cls-10" d="M713.89,439.42a8.55,8.55,0,0,0,.37,1.5c-20.76-7.57-27.61-25.07-45.19-34.29-.2.86-1.48,1.81-1.63,2.71-1.17-.62-3.63-1.5-4.6-2.33-.2.48-.69,1-.91,1.54.08-.19-8.69-6.44-9.5-7.24-5-4.9-9.57-9.42-17.44-13.06l-.26-.12c-1.3-.6-12.62-4-16.63-5,6.72,6.25,16.22,11.58,20.8,18.76-3.67-2.05-9-3-13.9-3.78,1.42,1.9,4.16,3.53,5.62,5.47a34.91,34.91,0,0,1-7.06-.45c1.71,4.77,6.55,8.32,6.85,13.63.32,5.57-3.82,11.63-.57,17.12,8.19-2.18,7.21,1.85,13.63,3.57,4.33-4.74,7.38-1.88,11.14.86A158,158,0,0,0,678,452.25c0-3.63-2.76-7.42-2.11-11.24,3.87.23,5.7,3.4,8.1,5.19,4.12,3.07,9.22,5.39,14.66,7.65,6.1,2.52,11.89,5.15,17.62,7.83,9.38-.13,16.48-.83,16.61-2.72,2.74-.11,5.56,0,8.31-.12C737.25,452.64,724.54,441.93,713.89,439.42Z"/><path class="cls-9" d="M609.2,412.58c4.48,4,11.57,7,16.44,11.12a112.91,112.91,0,0,0,8.94,6.92c.87-1.72.77-4,.87-6,6.55,7.28,22.95,14.59,32.46,21.4,9.13,6.54,18.71,13.35,29,19.27a41.91,41.91,0,0,0-13.2-2.79c.41,1.08-.76,2.75-.46,3.71-5.14.05-8.66-2-13-3.17-.23,2.12-.08,4.34-.24,6.47-14.8-3.67-38-1.76-53.83-1.71-5.5,0-17.81,1.54-22.33.74-6.82-1.21-10.23-6.33-16.16-8.17,3.3-1.18,6.34-2.62,10.17-2.91-.35-3.29,3.24-11.17,8.69-11.54.87-3.72-2.32-7.35-3.6-10.79,1.4.41,3.84.34,5.53,1,.27-4.59-.86-8.16.2-12.68C599.82,418.34,604.65,415.79,609.2,412.58Z"/><path class="cls-10" d="M636.25,443.26l-19.32-3.83,9.66,7.67,3.86,7.12h9.66l15.46,8.22,6.33,5.67a66.69,66.69,0,0,1,8.06,1.4c.16-2.13,0-4.35.24-6.47,4.38,1.2,7.9,3.22,13,3.17-.3-1,.87-2.63.46-3.71a41.91,41.91,0,0,1,13.2,2.79c-10.28-5.92-19.86-12.73-29-19.27-9.51-6.81-25.91-14.12-32.46-21.4-.1,2,0,4.28-.87,6a112.91,112.91,0,0,1-8.94-6.92c-4.87-4.08-12-7.11-16.44-11.12L619.83,429Z"/><path class="cls-9" d="M512.87,414.9c4,1.15,6.13,3.86,9.56,5.44,2.49,1.15,5.16,2.19,7.69,3.32a38.6,38.6,0,0,1,6.61,4.08c4.84,3.31,9.73,6.32,15.16,9.3,2.84,1.55,4.4,3.41,6.89,5.08,1.82,1.21,4.27,2,6.13,3.13,1.66,1,2.72,2.23,4.43,3.21,1.35.77,2.79,1.57,4,2.41-3.71.13-7.61-.43-11.29-.15-4.52.34-9.15.65-13.72,1s-8.7.86-13.33.49c-2.81-.22-4.48-.93-7-1.48-2.66-.6-5,.06-6.41-1.62-2-2.31-2.31-5.72-3.27-8.25-.88-2.33-2.31-4.37-2.5-6.78-.16-2.11-1.08-4-1.74-6s-1.78-4.75-1.54-6.81c1.12.68,2.72,1.1,3.83,1.84C515.29,420.05,512.48,418.06,512.87,414.9Z"/><path class="cls-10" d="M564.91,445.25c-1.86-1.17-4.31-1.92-6.13-3.13-2.49-1.67-4-3.53-6.89-5.08-5.43-3-10.32-6-15.16-9.3a38.6,38.6,0,0,0-6.61-4.08c-2.53-1.13-5.2-2.17-7.69-3.32-3.43-1.58-5.6-4.29-9.56-5.44,3,2.8,9.32,9.82,14.54,13.05a19,19,0,0,0-5.13-1.64c1,1,2.71,1.8,3.08,2.95-2.25-.36-4.58-1.84-6.88-1.93A156.91,156.91,0,0,0,533,441.93c-.19-.46.11-1,.09-1.42,1.35.2,2.2.93,3.64.95-.09-.45.24-1,.06-1.47a8.71,8.71,0,0,0,2,.95c-.77-2.73-3.89-5.79-6.32-8.18,2,1.05,3.9,2.78,6.35,3.57-.25-1.46-2.5-2.81-2.85-4.25a69.87,69.87,0,0,1,12.83,9.69,7.66,7.66,0,0,0-4.1-.76c-.41,1.1,1,1.9,1.09,2.94-.62-.19-1.7-.13-2.29-.27.19.39-.05.86.27,1.27-.45-.13-1.35-.19-1.71-.3,1.46,1.07,3.76,1.85,5.29,2.94s2.4,2.51,4,3.64l.32.23c3.49-.24,7-.48,10.41-.74,3.68-.28,7.58.28,11.29.15-1.18-.84-2.62-1.64-4-2.41C567.63,447.48,566.57,446.28,564.91,445.25Z"/><path class="cls-9" d="M490.41,435.41s-3.87-4.9-6.25-5.06-1.79-2.2-4.47-2.2-8,6.59-8.33,7.26S482.67,437.27,490.41,435.41Z"/><path class="cls-10" d="M480.78,428.32c1.45.48,1.4,1.89,3.38,2,2.38.16,6.25,5.06,6.25,5.06C486.94,433.77,479.56,434.18,480.78,428.32Z"/><path class="cls-9" d="M767.31,487c2-1.4-12.5-8.95-18.46-9.62S719.09,479,719.09,479a52.34,52.34,0,0,0,22,7.94C753.32,488.13,764.93,488.64,767.31,487Z"/><path class="cls-9" d="M723.26,497.42c2.59-1,1.19-4.22-4.17-5.57s.59-2.87,0-4.73-5.66-10.54-7.44-9.92-19.94,7.22-28.58,9.24-40.48,7.94-39,9.12,47.63,2.54,58.64,2.54S720.28,498.6,723.26,497.42Z"/><path class="cls-10" d="M711.65,477.2c5.36.29,28.28,9.92,42.56,14s34.53,7,34.53,7H716.42C696.77,498.19,711.65,477.2,711.65,477.2Z"/><path class="cls-9" d="M400.21,495.69c1.82-.72.84-3-2.92-3.91s.41-2,0-3.32-4-7.4-5.23-7-14,5.06-20.06,6.49-28.42,5.57-27.38,6.4,33.44,1.78,41.17,1.78S398.12,496.52,400.21,495.69Z"/><path class="cls-10" d="M392.06,481.5c3.76.2,19.86,7,29.89,9.8a232.83,232.83,0,0,0,24.24,4.94H395.41C381.61,496.24,392.06,481.5,392.06,481.5Z"/><path class="cls-9" d="M618.22,481.61c1-1.05-10.42-5.57-13.69-6.75s-11.31-1.86-12.8,0,0,5.23,0,5.23-4.17,0-5.06,1.52S616.14,483.81,618.22,481.61Z"/><path class="cls-9" d="M566.13,478.36s-4.47-5.14-6.85-4.66-8,4.66-8,4.66S561.66,479.33,566.13,478.36Z"/><path class="cls-10" d="M596.6,473.72a26.91,26.91,0,0,1,7.93,1.14c3.27,1.18,14.69,5.7,13.69,6.75C610.84,481.61,596.48,477.42,596.6,473.72Z"/><path class="cls-10" d="M559.28,473.7c2.38-.48,6.85,4.66,6.85,4.66a7.6,7.6,0,0,1-1.35,0C561.14,478,556.13,475.37,559.28,473.7Z"/><path class="cls-9" d="M599.32,484.63s-3.87-4.9-6.25-5.07-1.78-2.19-4.46-2.19-8,6.58-8.34,7.26S591.58,486.49,599.32,484.63Z"/><path class="cls-10" d="M589.7,477.54c1.45.48,1.39,1.88,3.37,2,2.38.17,6.25,5.07,6.25,5.07C595.85,483,588.47,483.4,589.7,477.54Z"/><path class="cls-9" d="M761.29,468.31c-.48-.27-18.85-5.57-20.94-6.67s-17.56,4.94-21.59,6.49S761.29,468.31,761.29,468.31Z"/><path class="cls-9" d="M493.79,466.37c-2.42.27-18.85,1.37-32.87-3.2,0,0,14.34-2.56,18.69-3S493.79,466.37,493.79,466.37Z"/><path class="cls-10" d="M482.07,460.44c4.8,1.24,11.72,5.93,11.72,5.93S477.19,463.47,482.07,460.44Z"/><path class="cls-9" d="M659.79,509.13s-23.6-10.87-26.57-11.12-11.87,2.7-11.87,2.7-8.61-.93-10.54-.34S602.2,504,602.2,504s-17.81-7-19.88-7.75-6.54-3.28-7.72-3.62-9.8,5.9-9.8,5.9-7.86-1.69-9.5-1.1a42.75,42.75,0,0,0-5.34,3s-7.42-2.56-8.31-2.3-13.95,8.58-13.95,8.58-7-3.2-10.1-1.85a79.93,79.93,0,0,0-7.86,4.3Z"/><path class="cls-10" d="M577.71,502a72.14,72.14,0,0,0-6.53-4S566,501,565.1,501.3c-.63.17-7.16-2.06-10.9-3.37a11,11,0,0,1,1.1-.51c1.64-.59,9.5,1.1,9.5,1.1s8.61-6.23,9.8-5.9,5.64,2.87,7.72,3.62c1.55.57,11.88,4.61,17,6.62C599.32,502.86,580.24,503.82,577.71,502Z"/><path class="cls-10" d="M633.37,500.28s-9.5,1.94-12,.43c0,0,8.9-2.95,11.87-2.7s26.57,11.12,26.57,11.12C645.84,508.28,633.37,500.28,633.37,500.28Z"/><path class="cls-10" d="M541.65,498.1c.61-.18,4.27,1,6.52,1.71C548.17,499.81,541.8,501,541.65,498.1Z"/><path class="cls-9" d="M510.88,483.15c-.48-.28-18.85-5.58-20.94-6.68s-17.56,4.94-21.59,6.49S510.88,483.15,510.88,483.15Z"/><path class="cls-10" d="M489.94,476.47c2.09,1.1,20.46,6.4,20.94,6.68C510.88,483.15,484.62,481,489.94,476.47Z"/><path class="cls-9" d="M143.83,472.41s-3.87-6-6.25-6.25-1.79-2.71-4.47-2.71-8,8.13-8.33,9S136.09,474.7,143.83,472.41Z"/><path class="cls-10" d="M134.2,463.66c1.45.59,1.4,2.33,3.38,2.5,2.38.21,6.25,6.25,6.25,6.25C140.36,470.38,133,470.89,134.2,463.66Z"/><path class="cls-9" d="M511.65,497.06c1-1.3-10.41-6.87-13.69-8.33s-11.31-2.29-12.8,0,0,6.46,0,6.46-4.16,0-5.06,1.87S509.57,499.77,511.65,497.06Z"/><path class="cls-9" d="M459.56,493.05s-4.46-6.33-6.84-5.74-8,5.74-8,5.74S455.1,494.25,459.56,493.05Z"/><path class="cls-9" d="M100.79,499.65c2-1.73-12.5-11-18.45-11.87s-29.77,2.08-29.77,2.08,9.83,8.33,22,9.79S98.41,501.73,100.79,499.65Z"/><path class="cls-9" d="M56.74,512.55c2.59-1.26,1.19-5.2-4.17-6.87s.6-3.54,0-5.83-5.65-13-7.44-12.22S25.19,496.52,16.56,499s-40.48,9.79-39,11.24,47.63,3.13,58.64,3.13S53.76,514,56.74,512.55Z"/><path class="cls-10" d="M45.13,487.63c5.36.35,28.28,12.22,42.57,17.22s34.52,8.67,34.52,8.67H49.9C30.25,513.51,45.13,487.63,45.13,487.63Z"/><path class="cls-10" d="M82.34,487.78c10.12.41,49.41,15,49.41,15s-33.93,2.91-56.55,0S82.34,487.78,82.34,487.78Z"/><path class="cls-10" d="M490,487.33a22.25,22.25,0,0,1,7.93,1.4c3.28,1.46,14.69,7,13.69,8.33C504.27,497.06,489.92,491.9,490,487.33Z"/><path class="cls-9" d="M195.51,477.63c1-1.3-10.41-6.87-13.69-8.33s-11.31-2.29-12.8,0,0,6.46,0,6.46-4.16,0-5.06,1.87S193.43,480.34,195.51,477.63Z"/><path class="cls-10" d="M173.89,467.9a22.25,22.25,0,0,1,7.93,1.4c3.28,1.46,14.69,7,13.69,8.33C188.13,477.63,173.78,472.47,173.89,467.9Z"/><path class="cls-10" d="M452.72,487.31c2.38-.59,6.84,5.74,6.84,5.74a5.45,5.45,0,0,1-1.34,0C454.57,492.64,449.56,489.36,452.72,487.31Z"/><path class="cls-9" d="M440.85,465.31c1-1.29-10.42-6.87-13.7-8.33s-11.31-2.29-12.8,0,0,6.46,0,6.46-4.16,0-5.06,1.87S438.76,468,440.85,465.31Z"/><path class="cls-9" d="M388.76,461.3s-4.47-6.33-6.85-5.74-8,5.74-8,5.74S384.29,462.5,388.76,461.3Z"/><path class="cls-10" d="M419.23,455.59a22,22,0,0,1,7.92,1.39c3.28,1.46,14.69,7,13.7,8.33C433.46,465.31,419.11,460.15,419.23,455.59Z"/><path class="cls-10" d="M381.91,455.56c2.38-.59,6.85,5.74,6.85,5.74a5.54,5.54,0,0,1-1.35,0C383.77,460.89,378.75,457.62,381.91,455.56Z"/><path class="cls-9" d="M422,469s-3.87-6-6.25-6.25-1.79-2.71-4.47-2.71-8,8.12-8.33,9S414.21,471.33,422,469Z"/><path class="cls-10" d="M412.32,460.29c1.45.59,1.4,2.33,3.38,2.5C418.08,463,422,469,422,469,418.48,467,411.1,467.52,412.32,460.29Z"/><path class="cls-9" d="M87.92,456.1c-.48-.34-18.85-6.88-20.94-8.23s-17.56,6.08-21.59,8S87.92,456.1,87.92,456.1Z"/><path class="cls-10" d="M67,447.87c2.09,1.35,20.46,7.89,20.94,8.23C87.92,456.1,61.66,453.39,67,447.87Z"/><path class="cls-9" d="M425.56,445.87c-2.42.34-18.85,1.69-32.87-3.94,0,0,14.34-3.16,18.69-3.72S425.56,445.87,425.56,445.87Z"/><path class="cls-10" d="M413.84,438.57c4.8,1.52,11.71,7.3,11.71,7.3S409,442.31,413.84,438.57Z"/><path class="cls-9" d="M44.2,479.5s-23.6-13.4-26.57-13.71-11.87,3.33-11.87,3.33S-2.85,468-4.78,468.7s-8.61,4.46-8.61,4.46-17.81-8.61-19.88-9.55-6.53-4.05-7.72-4.46-9.8,7.27-9.8,7.27-7.86-2.08-9.5-1.35a40.75,40.75,0,0,0-5.34,3.67s-7.42-3.15-8.31-2.84-14,10.59-14,10.59-7-3.95-10.1-2.29a76.38,76.38,0,0,0-7.86,5.3Z"/><path class="cls-10" d="M17.78,468.6s-9.5,2.38-12,.52c0,0,8.91-3.64,11.87-3.33S44.2,479.5,44.2,479.5C30.25,478.46,17.78,468.6,17.78,468.6Z"/><path class="cls-9" d="M349.54,493.31s-23.6-13.39-26.57-13.7-11.87,3.32-11.87,3.32-8.61-1.14-10.54-.41S292,487,292,487s-17.81-8.62-19.88-9.55-6.53-4.05-7.72-4.47-9.8,7.27-9.8,7.27-7.86-2.07-9.5-1.35a41.57,41.57,0,0,0-5.34,3.68s-7.42-3.16-8.31-2.85-14,10.59-14,10.59-7-3.94-10.09-2.28a76.3,76.3,0,0,0-7.87,5.29Z"/><path class="cls-10" d="M217.45,490.3s-10.38,2-10.59-2l.5-.28C210.47,486.36,217.45,490.3,217.45,490.3Z"/><path class="cls-10" d="M267.47,484.49a70.92,70.92,0,0,0-6.53-5,73.3,73.3,0,0,1-6.09,4.15c-.63.22-7.16-2.54-10.9-4.16a12.62,12.62,0,0,1,1.1-.62c1.64-.72,9.5,1.35,9.5,1.35s8.61-7.68,9.8-7.27,5.64,3.53,7.72,4.47c1.55.7,11.88,5.68,17,8.16C289.07,485.59,270,486.77,267.47,484.49Z"/><path class="cls-10" d="M323.12,482.41s-9.5,2.39-12,.52c0,0,8.91-3.63,11.87-3.32s26.57,13.7,26.57,13.7C335.59,492.28,323.12,482.41,323.12,482.41Z"/><path class="cls-10" d="M231.4,479.71c.61-.21,4.27,1.2,6.52,2.11C237.92,481.82,231.55,483.34,231.4,479.71Z"/><path class="cls-9" d="M250,499.11c-2.42.34-18.85,1.7-32.87-3.94,0,0,14.34-3.15,18.69-3.72S250,499.11,250,499.11Z"/><path class="cls-10" d="M238.23,491.81c4.8,1.52,11.72,7.3,11.72,7.3S233.35,495.55,238.23,491.81Z"/><path class="cls-9" d="M48.49,348.08c9.36,2.72,14.49,9.11,22.6,12.85,5.88,2.72,12.19,5.18,18.16,7.84,6.52,2.9,10.4,6.09,15.63,9.65,11.45,7.81,23,14.93,35.83,22,6.7,3.67,10.39,8.06,16.29,12,4.3,2.88,10.08,4.65,14.48,7.4,3.92,2.45,6.42,5.28,10.47,7.59,3.19,1.82,6.59,3.7,9.38,5.7-8.77.32-18-1-26.67-.35-10.69.81-21.64,1.52-32.44,2.28s-20.55,2-31.49,1.17c-6.65-.52-10.6-2.2-16.44-3.51-6.29-1.41-11.77.16-15.14-3.81-4.66-5.46-5.45-13.52-7.73-19.52-2.09-5.48-5.46-10.32-5.9-16-.38-5-2.55-9.37-4.11-14.2s-4.2-11.21-3.66-16.1c2.66,1.62,6.44,2.62,9.06,4.36C54.21,360.25,47.56,355.53,48.49,348.08Z"/><path class="cls-10" d="M171.48,419.79c-4.41-2.75-10.18-4.52-14.48-7.4-5.9-3.94-9.59-8.33-16.29-12-12.84-7-24.38-14.16-35.83-22-5.23-3.56-9.11-6.75-15.63-9.65-6-2.66-12.28-5.12-18.16-7.84-8.11-3.74-13.24-10.13-22.6-12.85,7.21,6.61,22,23.21,34.36,30.82a44.41,44.41,0,0,0-12.12-3.85c2.29,2.34,6.41,4.25,7.29,7-5.33-.85-10.83-4.34-16.26-4.55A370.64,370.64,0,0,0,96,411.94c-.44-1.07.26-2.37.22-3.35,3.19.48,5.21,2.22,8.59,2.26-.2-1.07.57-2.42.16-3.48,1.09.95,3.44,1.73,4.66,2.24-1.82-6.45-9.2-13.67-15-19.34,4.75,2.5,9.22,6.59,15,8.45-.57-3.45-5.9-6.63-6.73-10a165.32,165.32,0,0,1,30.32,22.89,18,18,0,0,0-9.69-1.78c-1,2.59,2.34,4.49,2.59,6.94-1.48-.46-4-.31-5.41-.65.44.94-.13,2,.62,3-1.06-.31-3.18-.45-4-.71,3.44,2.54,8.88,4.38,12.51,6.95s5.66,5.94,9.44,8.61l.76.53c8.24-.57,16.5-1.13,24.61-1.74,8.68-.66,17.9.67,26.67.35-2.79-2-6.19-3.88-9.38-5.7C177.9,425.07,175.4,422.24,171.48,419.79Z"/><path class="cls-9" d="M5.94,367.44C15.05,371.82,59,405,70.52,417.1A92,92,0,0,0,85,429.17c3.8,2.6,16.71,7.43,16.26,10.55-9.8.53-18-2.09-27.42-2.69-7.76-.5-13.5,1.6-20.83,2.45a169.73,169.73,0,0,1-19.45.69c-7.09,0-12.37,0-17-2.05a32.2,32.2,0,0,1-11.41-8.88c-1.51-1.88-1.59-3-4.08-4.66-2.86-1.91-6.24-3.08-8.15-5.49-4.14-5.22-7.38-10.88-7.6-16.32.95.15,2.16,0,3.23.29-.07-3.75-2.84-9.49-.47-12.77l1.18-.11c-2.13-2.88-.69-4.5.18-6.92a13.84,13.84,0,0,0,1.86-.12c.61-2.43-.09-5.59-.43-8.05-.23-1.7-2.5-5.13-1.57-6.67.83.34,3.87.68,4.74,1.07-.11-.56.3-1.3.24-1.87.72.4,2.55.77,3.22,1.12-1.34-.73-1.4-6.92-.59-7.39C-3.1,361.35,2.51,365.79,5.94,367.44Z"/><path class="cls-10" d="M85,429.17A92,92,0,0,1,70.52,417.1C59,405,15.05,371.82,5.94,367.44a54,54,0,0,1-7.29-4.75c2.85,3,6.46,6.24,8.07,8,4.18,4.63,8.93,9,13.35,13.67-3.24-3.24-11.88-6.26-17-8.91,3.36,5,11.45,10,16.45,14.56,5.94,5.45,12.59,10.63,18.45,16.11C28.49,402,18.28,396.07,7.33,393.39c0,2.79,4.48,5.52,6.74,8-4.29-1.78-8.36-4.93-13.71-5.27,4,9.78,21.1,17.23,26.83,26.82-.37-2.57-1.08-5.19-.48-7.71,3.65,1.08,7.4,2.89,11.37,3.4,1.79-2.25.06-4.81.2-7.22,4.7,3.25,10.22,6.14,15.23,9.23,3.91-.26,10.2,4.71,14.19,6.19a17.41,17.41,0,0,0-.58-4c6.95,4.08,15.66,7,24,9.95.75.26,1.51.54,2.27.83C90.08,431.9,86.62,430.32,85,429.17Z"/><path class="cls-9" d="M-116.06,376.19a33.62,33.62,0,0,0,8.66,2.7,12.67,12.67,0,0,1,.5-2.14c5.6.86,10.29-.95,15.46-.47,7.37.68,12.57,5.88,18.72,8.12,16.71,6.07,32.1,10.9,45.14,19.43,11.32,7.41,23,14.51,35.25,21.42,7.08,4,22.92,10.14,24.24,15.91-8.39.34-15,1-23.44,1.1-11.46.18-21.75-3.28-33.12-3.08-13.25.23-27.11,1.78-40.37,2.59-7,.43-15.22,2.52-22.15,1-4.06-.88-9-3.69-11.8-5.58-4-2.69-2.54-1.54-3.57-4.56-.83-2.43.69-2.85-3.13-6s-3.1-2-5-5.38c-2.46-4.42-6.66-9.75-8.15-14.31-.63-1.92.52-4.13.08-5.76-.87-3.28-4.42-5.95-5.39-9.19C-118.27,390.81-119.45,380.11-116.06,376.19Z"/><path class="cls-10" d="M8.47,442.26c8.41-.14,15.05-.76,23.44-1.1-1.32-5.77-17.16-11.91-24.24-15.91-12.26-6.91-23.93-14-35.25-21.42-13-8.53-28.43-13.36-45.14-19.43-6.15-2.24-11.35-7.44-18.72-8.12a42.45,42.45,0,0,0-8.44.47c6.07,5.41,13.2,10.52,17.15,16.26-2.33-.22-5.14.54-7.14.53,1.22,1.74,3.73,3.14,6.1,4.6-4.25-.14-8.9-.83-13.07-.81.76,4.94,11.09,12.46,15,17.39,6.18,7.7,8.4,14.76,21.6,19.89.47-2.88-.66-5.76-.78-8.63,4,1.88,8.92,7,14.37,6.38,2.08-4.54,12.65,3.66,18.08,6.93,1.29-.05,2.59-.09,3.88-.11C-13.28,439-3,442.44,8.47,442.26Z"/><path class="cls-9" d="M253.24,359c7.86,3.65,12.45,8.17,17.44,13.06.81.8,9.58,7,9.5,7.24.22-.54.71-1,.91-1.53,1,.83,3.43,1.7,4.6,2.32.15-.89,1.43-1.84,1.63-2.7,17.58,9.22,24.43,26.72,45.19,34.28a8.34,8.34,0,0,1-.37-1.5c10.65,2.52,23.36,13.23,27.33,19.43-2.75.1-5.57,0-8.31.11-.36,5.24-53.71,1.32-62.08,1.8-5.56.32-11.67,1.62-17.19,1.13-8.07-.72-14.81-3.66-23.41-2.61-3.27.39-4.64,1.46-8.66,1.6-5.38.19-11.06-.86-16.52-.82.26-2.53-2.26-4.56-4.14-6.73,2.24,1.55,1.76-2.72,2.23-4.13,16.3,1.11-2.27-17.64-2.89-21.33-.67-4,1.07-8.33-.07-12.29-.85-2.92-3-6-4.17-9,4.69.66,8.58,4.1,13.12,3.84-5.87-10.11-6.75-20.57-8.27-31.17,6,1.82,9.46,6,15.7,7.43-.34-1.2.39-2.65.13-3.87-.06-.27,16.45,4.58,18,5.31Z"/><path class="cls-10" d="M332.14,410.15a8.34,8.34,0,0,0,.37,1.5c-20.76-7.56-27.61-25.06-45.19-34.28-.2.86-1.48,1.81-1.63,2.7-1.17-.62-3.63-1.49-4.6-2.32-.2.48-.69,1-.91,1.53.08-.19-8.69-6.44-9.5-7.24-5-4.89-9.58-9.41-17.44-13.06l-.26-.11c-1.3-.6-12.62-4-16.63-5,6.72,6.25,16.22,11.57,20.8,18.76-3.67-2.06-9-3-13.9-3.78,1.42,1.9,4.16,3.52,5.62,5.46a35.63,35.63,0,0,1-7.06-.44c1.71,4.77,6.54,8.31,6.85,13.62.32,5.58-3.82,11.64-.57,17.13,8.19-2.18,7.2,1.85,13.63,3.56,4.33-4.73,7.37-1.87,11.14.86a158.89,158.89,0,0,0,23.42,14c0-3.64-2.76-7.42-2.11-11.24,3.87.22,5.7,3.39,8.1,5.18,4.12,3.07,9.22,5.4,14.66,7.65,6.1,2.52,11.89,5.15,17.62,7.84,9.38-.14,16.48-.83,16.61-2.73,2.74-.1,5.56,0,8.31-.11C355.5,423.38,342.79,412.67,332.14,410.15Z"/><path class="cls-9" d="M184,399.2c3.19,2.86,8.24,5,11.71,7.91a75.37,75.37,0,0,0,6.36,4.93,10.58,10.58,0,0,0,.62-4.27C207.36,413,219,418.16,225.81,423a245.74,245.74,0,0,0,20.65,13.72,30.17,30.17,0,0,0-9.4-2c.28.77-.55,2-.33,2.64-3.67,0-6.17-1.4-9.29-2.26-.16,1.51-.06,3.09-.17,4.61-10.54-2.61-27.07-1.25-38.33-1.22-3.92,0-12.69,1.1-15.91.53-4.85-.86-7.28-4.51-11.51-5.82,2.36-.84,4.52-1.86,7.25-2.07-.25-2.34,2.3-8,6.19-8.22.62-2.65-1.66-5.24-2.56-7.68,1,.29,2.72.24,3.93.71.19-3.27-.61-5.82.14-9C177.32,403.3,180.76,401.48,184,399.2Z"/><path class="cls-10" d="M203.26,421.05l-13.76-2.73,6.88,5.46,2.75,5.07H206l11,5.86,4.51,4a46.22,46.22,0,0,1,5.74,1c.11-1.52,0-3.1.17-4.61,3.12.86,5.62,2.29,9.29,2.26-.22-.68.61-1.87.33-2.64a30.17,30.17,0,0,1,9.4,2A245.74,245.74,0,0,1,225.81,423c-6.77-4.85-18.45-10.05-23.12-15.24a10.58,10.58,0,0,1-.62,4.27,75.37,75.37,0,0,1-6.36-4.93c-3.47-2.9-8.52-5.05-11.71-7.91l7.57,11.7Z"/><path class="cls-9" d="M271.7,422.18c5.19,2.49,30.2,21.37,36.77,28.27a52.93,52.93,0,0,0,8.21,6.87c2.16,1.48,9.52,4.23,9.26,6-5.58.3-10.26-1.19-15.61-1.54-4.42-.28-7.69.92-11.86,1.4a94.8,94.8,0,0,1-11.08.39c-4,0-7,0-9.65-1.16a18.44,18.44,0,0,1-6.5-5.06c-.85-1.07-.9-1.71-2.32-2.65-1.63-1.09-3.55-1.76-4.64-3.13-2.35-3-4.2-6.2-4.33-9.29.54.08,1.24,0,1.84.16,0-2.13-1.61-5.4-.26-7.27l.67-.06c-1.21-1.64-.4-2.56.1-3.94a7.26,7.26,0,0,0,1.06-.07,12.9,12.9,0,0,0-.25-4.58c-.13-1-1.42-2.92-.89-3.8.47.19,2.2.39,2.7.61-.06-.32.17-.74.14-1.06.4.23,1.45.44,1.83.64-.76-.42-.8-3.95-.34-4.22A38.47,38.47,0,0,0,271.7,422.18Z"/><path class="cls-10" d="M316.68,457.32a52.93,52.93,0,0,1-8.21-6.87c-6.57-6.9-31.58-25.78-36.77-28.27a30.52,30.52,0,0,1-4.15-2.71c1.62,1.72,3.68,3.55,4.59,4.57,2.38,2.64,5.09,5.14,7.61,7.78-1.85-1.85-6.77-3.56-9.66-5.07,1.91,2.84,6.52,5.68,9.37,8.29,3.38,3.1,7.16,6,10.5,9.17-5.42-2.35-11.24-5.73-17.47-7.26,0,1.59,2.55,3.14,3.84,4.54-2.44-1-4.76-2.81-7.81-3,2.28,5.57,12,9.81,15.28,15.27a12.11,12.11,0,0,1-.28-4.39c2.09.62,4.22,1.65,6.48,1.94,1-1.28,0-2.74.11-4.11,2.68,1.85,5.82,3.49,8.67,5.25,2.23-.15,5.81,2.68,8.08,3.53a9.81,9.81,0,0,0-.33-2.29c4,2.32,8.92,4,13.66,5.67l1.29.47C319.6,458.87,317.64,458,316.68,457.32Z"/><path class="cls-9" d="M156.41,417.8c4,1.15,6.13,3.85,9.56,5.44,2.49,1.15,5.16,2.19,7.69,3.31a38.24,38.24,0,0,1,6.61,4.09c4.85,3.3,9.73,6.31,15.16,9.29,2.84,1.56,4.4,3.41,6.9,5.08,1.81,1.22,4.26,2,6.12,3.13,1.66,1,2.72,2.24,4.43,3.21,1.35.77,2.79,1.57,4,2.41-3.71.14-7.61-.42-11.29-.14-4.52.34-9.15.64-13.72,1s-8.7.86-13.32.5c-2.82-.22-4.49-.94-7-1.49-2.66-.59-5,.07-6.41-1.61-2-2.31-2.3-5.72-3.27-8.26-.88-2.32-2.31-4.37-2.49-6.78-.17-2.1-1.08-4-1.74-6s-1.78-4.74-1.55-6.81c1.12.69,2.72,1.11,3.83,1.85C158.83,423,156,421,156.41,417.8Z"/><path class="cls-10" d="M208.45,448.14c-1.86-1.16-4.31-1.91-6.12-3.13-2.5-1.67-4.06-3.52-6.9-5.08-5.43-3-10.31-6-15.16-9.29a38.24,38.24,0,0,0-6.61-4.09c-2.53-1.12-5.2-2.16-7.69-3.31-3.43-1.59-5.6-4.29-9.56-5.44,3.05,2.8,9.33,9.82,14.54,13a18.89,18.89,0,0,0-5.13-1.63c1,1,2.71,1.8,3.09,3-2.26-.37-4.59-1.84-6.89-1.93a156.84,156.84,0,0,0,14.49,14.59c-.19-.45.11-1,.09-1.42,1.35.2,2.21.94,3.64,1-.09-.46.24-1,.07-1.47a8.51,8.51,0,0,0,2,.95c-.77-2.73-3.9-5.79-6.33-8.19,2,1.06,3.9,2.79,6.35,3.57-.24-1.45-2.5-2.8-2.85-4.24a69.43,69.43,0,0,1,12.83,9.69,7.55,7.55,0,0,0-4.1-.76c-.4,1.1,1,1.9,1.1,2.94-.63-.2-1.71-.13-2.29-.28.18.4-.06.86.26,1.27-.45-.13-1.35-.19-1.71-.29,1.46,1.07,3.76,1.85,5.3,2.94s2.39,2.51,4,3.64l.33.22c3.48-.24,7-.47,10.4-.73,3.68-.28,7.58.28,11.29.14-1.18-.84-2.62-1.64-4-2.41C211.17,450.38,210.11,449.18,208.45,448.14Z"/><path class="cls-3" d="M-252.08,63.53A1033.88,1033.88,0,0,0-61.95,77.17c44.52-.94,85.77-9.46,129.82-11.87,62.23-3.39,126.3-.57,187.53,5.22,116.46,11,223,31.08,339.91,10.56C677.24,66.69,757.25,45,844.81,47c73.74,1.64,183.38,23.87,288.65,35V-14H-252.08Z"/><path class="cls-11" d="M548.66,44.9c18-16.9-.2-19.65-28.46-21.37-80.57-4.9-155.56,12.73-233.92-7.09C244.2,5.79,207.36-7.91,160.7-12.54,135.56-15,96.18-13.31,58.11-14H-252.08V11C-161.09,34-64.7,42,39.56,29.85,178.89,13.66,303.64,48.7,438.82,57,471.23,58.93,528,64.29,548.66,44.9Z"/><path class="cls-12" d="M239.89,15.88c0,1-1.37,1.73-3.06,1.73s-3.06-.77-3.06-1.73,1.37-1.74,3.06-1.74S239.89,14.92,239.89,15.88Z"/><path class="cls-12" d="M37,51.55l1.27,3.23a.58.58,0,0,0,.47.27l5.69.72c.64.08.64.6,0,.68l-5.69.72a.55.55,0,0,0-.47.27L37,60.66c-.14.37-1.06.37-1.2,0l-1.27-3.22a.57.57,0,0,0-.47-.27l-5.69-.72c-.65-.08-.65-.6,0-.68l5.69-.72a.59.59,0,0,0,.47-.27l1.27-3.23C35.93,51.19,36.85,51.19,37,51.55Z"/><path class="cls-12" d="M84.59,27.65l1.27,3.22a.55.55,0,0,0,.47.27l5.69.72c.64.08.64.6,0,.68l-5.69.72a.58.58,0,0,0-.47.27l-1.27,3.23c-.14.36-1.06.36-1.2,0l-1.27-3.23a.59.59,0,0,0-.47-.27L76,32.54c-.64-.08-.64-.6,0-.68l5.69-.72a.57.57,0,0,0,.47-.27l1.27-3.22C83.53,27.28,84.45,27.28,84.59,27.65Z"/><path class="cls-12" d="M98.63,81.53c0,1-1.37,1.74-3.07,1.74s-3.06-.78-3.06-1.74,1.37-1.74,3.06-1.74S98.63,80.57,98.63,81.53Z"/><path class="cls-12" d="M78.36,83l.89,2.26a.38.38,0,0,0,.32.18l4,.5c.45.06.45.42,0,.48l-4,.5c-.16,0-.29.1-.32.19l-.89,2.25c-.1.26-.74.26-.84,0l-.89-2.25a.43.43,0,0,0-.33-.19l-4-.5c-.45-.06-.45-.42,0-.48l4-.5a.4.4,0,0,0,.33-.18L77.52,83C77.62,82.74,78.26,82.74,78.36,83Z"/><path class="cls-12" d="M80.13,68.58,81,70.84a.4.4,0,0,0,.33.18l4,.5c.45.06.45.43,0,.48l-4,.51a.4.4,0,0,0-.33.18l-.89,2.25c-.1.26-.74.26-.84,0l-.89-2.25a.38.38,0,0,0-.32-.18l-4-.51c-.45,0-.45-.42,0-.48l4-.5a.38.38,0,0,0,.32-.18l.89-2.26C79.39,68.33,80,68.33,80.13,68.58Z"/><path class="cls-12" d="M78.27,119.83l.88,2.26a.41.41,0,0,0,.33.18l4,.51c.45,0,.45.42,0,.47l-4,.51a.41.41,0,0,0-.33.18l-.88,2.26c-.1.25-.74.25-.85,0l-.88-2.26a.41.41,0,0,0-.33-.18l-4-.51c-.45,0-.45-.42,0-.47l4-.51a.41.41,0,0,0,.33-.18l.88-2.26C77.53,119.58,78.17,119.58,78.27,119.83Z"/><path class="cls-12" d="M306.1,11.65,307,13.9a.42.42,0,0,0,.33.19l4,.5c.45.06.45.42,0,.48l-4,.5a.39.39,0,0,0-.33.19L306.1,18c-.1.25-.74.25-.84,0l-.89-2.25a.38.38,0,0,0-.33-.19l-4-.5c-.45-.06-.45-.42,0-.48l4-.5a.4.4,0,0,0,.33-.19l.89-2.25C305.36,11.39,306,11.39,306.1,11.65Z"/><path class="cls-12" d="M188.62,51.16l.88,2.25a.42.42,0,0,0,.33.19l4,.5c.45.06.45.42,0,.48l-4,.5a.39.39,0,0,0-.33.19l-.88,2.25c-.11.26-.75.26-.85,0l-.88-2.25a.39.39,0,0,0-.33-.19l-4-.5c-.45-.06-.45-.42,0-.48l4-.5a.42.42,0,0,0,.33-.19l.88-2.25C187.87,50.9,188.51,50.9,188.62,51.16Z"/><path class="cls-12" d="M171.33,33.86l1.88,4.79a.82.82,0,0,0,.7.39l8.44,1.07c1,.12,1,.9,0,1l-8.44,1.07a.82.82,0,0,0-.7.39l-1.88,4.79c-.21.54-1.58.54-1.79,0l-1.88-4.79a.82.82,0,0,0-.7-.39l-8.44-1.07c-1-.12-1-.9,0-1L167,39a.82.82,0,0,0,.7-.39l1.88-4.79C169.75,33.32,171.12,33.32,171.33,33.86Z"/><path class="cls-12" d="M138.21,16.64l.88,2.26a.41.41,0,0,0,.33.18l4,.51c.45.05.45.42,0,.47l-4,.51a.41.41,0,0,0-.33.18L138.21,23c-.1.25-.75.25-.85,0l-.88-2.26a.41.41,0,0,0-.33-.18l-4-.51c-.45,0-.45-.42,0-.47l4-.51a.41.41,0,0,0,.33-.18l.88-2.26C137.46,16.39,138.11,16.39,138.21,16.64Z"/><path class="cls-12" d="M29.66,121.7l1.88,4.79a.85.85,0,0,0,.7.39L40.68,128c1,.12,1,.9,0,1L32.24,130a.85.85,0,0,0-.7.4l-1.88,4.79c-.21.54-1.58.54-1.79,0L26,130.43a.85.85,0,0,0-.7-.4L16.85,129c-1-.12-1-.9,0-1l8.44-1.07a.85.85,0,0,0,.7-.39l1.88-4.79C28.08,121.16,29.45,121.16,29.66,121.7Z"/><path class="cls-12" d="M169.92,121.15c0,.83-1.19,1.5-2.65,1.5s-2.65-.67-2.65-1.5,1.19-1.51,2.65-1.51S169.92,120.32,169.92,121.15Z"/><path class="cls-13" d="M380.94,8.4c0,1-1.37,1.74-3.06,1.74s-3.07-.78-3.07-1.74,1.37-1.73,3.07-1.73S380.94,7.44,380.94,8.4Z"/><path class="cls-13" d="M295.53,70.53c0,.55-.79,1-1.77,1s-1.77-.45-1.77-1,.79-1,1.77-1S295.53,70,295.53,70.53Z"/><ellipse class="cls-13" cx="26.56" cy="14.65" rx="3.53" ry="2"/><ellipse class="cls-13" cx="135.28" cy="120.81" rx="4.78" ry="2.71"/><path class="cls-13" d="M59.48,142.46c0,1.5-2.14,2.71-4.78,2.71s-4.78-1.21-4.78-2.71,2.14-2.71,4.78-2.71S59.48,141,59.48,142.46Z"/><path class="cls-13" d="M240.42,42.22c0,1.5-2.14,2.71-4.78,2.71s-4.78-1.21-4.78-2.71,2.14-2.71,4.78-2.71S240.42,40.72,240.42,42.22Z"/><path class="cls-13" d="M138.09,163c0,.88-1.26,1.6-2.81,1.6s-2.82-.72-2.82-1.6,1.26-1.6,2.82-1.6S138.09,162.07,138.09,163Z"/><path class="cls-12" d="M641.49,15.88c0,1,1.37,1.73,3.07,1.73s3.06-.77,3.06-1.73-1.37-1.74-3.06-1.74S641.49,14.92,641.49,15.88Z"/><path class="cls-12" d="M575.29,11.65l-.89,2.25a.38.38,0,0,1-.32.19l-4,.5c-.45.06-.45.42,0,.48l4,.5a.36.36,0,0,1,.32.19l.89,2.25c.1.25.74.25.84,0l.89-2.25a.38.38,0,0,1,.33-.19l4-.5c.45-.06.45-.42,0-.48l-4-.5a.4.4,0,0,1-.33-.19l-.89-2.25C576,11.39,575.39,11.39,575.29,11.65Z"/><path class="cls-12" d="M692.77,51.16l-.88,2.25a.42.42,0,0,1-.33.19l-4,.5c-.45.06-.45.42,0,.48l4,.5a.39.39,0,0,1,.33.19l.88,2.25c.1.26.74.26.84,0l.89-2.25a.38.38,0,0,1,.33-.19l4-.5c.45-.06.45-.42,0-.48l-4-.5a.4.4,0,0,1-.33-.19l-.89-2.25C693.51,50.9,692.87,50.9,692.77,51.16Z"/><path class="cls-12" d="M710.06,33.86l-1.89,4.79a.81.81,0,0,1-.69.39L699,40.11c-1,.12-1,.9,0,1l8.44,1.07a.81.81,0,0,1,.69.39l1.89,4.79c.21.54,1.57.54,1.79,0l1.88-4.79a.82.82,0,0,1,.7-.39l8.44-1.07c1-.12,1-.9,0-1L714.43,39a.82.82,0,0,1-.7-.39l-1.88-4.79C711.63,33.32,710.27,33.32,710.06,33.86Z"/><path class="cls-12" d="M711.47,121.15c0,.83,1.18,1.5,2.65,1.5s2.65-.67,2.65-1.5-1.19-1.51-2.65-1.51S711.47,120.32,711.47,121.15Z"/><path class="cls-13" d="M500.45,8.4c0,1,1.37,1.74,3.06,1.74s3.06-.78,3.06-1.74-1.37-1.73-3.06-1.73S500.45,7.44,500.45,8.4Z"/><path class="cls-13" d="M585.86,70.53c0,.55.79,1,1.77,1s1.76-.45,1.76-1-.79-1-1.76-1S585.86,70,585.86,70.53Z"/><path class="cls-13" d="M641,42.22c0,1.5,2.15,2.71,4.79,2.71s4.78-1.21,4.78-2.71-2.14-2.71-4.78-2.71S641,40.72,641,42.22Z"/></g></svg>