<svg id="BACKGROUND1" xmlns="http://www.w3.org/2000/svg" xmlns:xlink="http://www.w3.org/1999/xlink" viewBox="0 0 500 500"><defs><style>.cls-1{fill:none;}.cls-2{clip-path:url(#clip-path);}.cls-3{fill:#330f21;}.cls-4{fill:#230119;}.cls-5{fill:#2c061e;}.cls-6{fill:#4a0f26;}.cls-7{fill:#661a30;}.cls-8{fill:#cf4844;}.cls-9{fill:#ba263e;}.cls-10{fill:#e86b55;}.cls-11{fill:#3e1526;}.cls-12{fill:#fff6ff;}.cls-13{fill:#69342e;}</style><clipPath id="clip-path"><path class="cls-1" d="M320.57,501.3,0,500V0A576.61,576.61,0,0,1,144.59-21C154-21.14,285-22.39,294.24,15.71c2.9,11.92-7.23,23.08.35,41.19,5.55,13.24,13.28,12.8,18.1,25.28,7.6,19.66-7.67,30.91-2.22,45.76,7,19.11,36.36,11.42,64.24,31.06,26.71,18.82,41.34,55.17,39.53,88.94-2.71,50.22-40.9,78.71-46.17,82.5,3.55,8.34,7.24,20.88,2.56,32.64-12.18,30.61-70.44,29.39-71.45,46.51-.62,10.35,20.6,12.21,29.64,33.88,8,19.16-1.36,35,4,38.14"/></clipPath></defs><title>bg</title><g class="cls-2"><rect class="cls-3" x="-143" y="-14" width="786" height="528"/><rect class="cls-4" x="-32" width="564.01" height="500"/><path class="cls-5" d="M-143,123.74c34.84,14.9,66,26.32,104.67,31.85C27.14,165,86.41,169.1,152.72,167.05c136.64-4.22,269.16-41.36,406.7-26.64,28.45,3,56.5,10.1,83.58,19.48V-14H-143Z"/><path class="cls-5" d="M558.85,367.92a26.45,26.45,0,0,0-7.37-1.19c-6.25,0-6.67-12.48-6.67-12.48V335.51l-8.94-7.8L534.31,309l-12.49-14.05s-6.24,1.56-12.49,9.37,0,0-7.8,1.56H489l-17.17,6.24-14.05,14L443.77,323l-15.6,1.56s-1.56,6.24-12.49,4.68L401.63,340.2l-10.93,6.24-17.17-4.68s-4.68-10.93-7.8-17.17l-15.61-10.93L348.56,323l-12.49-4.69-14,3.13L309.54,323l-6.24-6.25L292.37,309l-15.61-3.12-1.56-12.49-3.12-17.17L258,273.08l-1.56,20.29L258,304.3l-3.12,14-14,3.13-18.73-9.37-14-7.8-21.85,12.48-15.61-6.24-18.73-10.93-20.29,6.25-7.81,7.8-10.92,3.12L95.7,321.47s-25,10.92-29.66,14L5.17,285.57-5.76,274.64l-7.76-5-7.85-9.05-3.12-10.92-7.81-14-21.85-3.12-.43,1.22V514.24H558.85Z"/><path class="cls-3" d="M220.18,328.49l7-2.34L221,320.3l-7.81-8.59-5.07-7.41,14,7.8,18.73,9.37,9.76,9.75,8.19,7.81,16,8.58,26.14,16a22.15,22.15,0,0,1-12.09-1.56c-5.86-2.73-13.66-1.95-13.66-1.95L263.49,357l-7.41-.78-9-1.56-7.41-5.86-5.07-6.63-9.76-6.25-7-2.73ZM491.77,312.1l7.42-5.85,6.51.34c-.43-.68-1.44-1.28-4.17-.73H489l-17.17,6.24-11.76,11.76,2,5,9.75,5.46,9.37,9.37,9,6.24,7,5.08,5.46,1.17-14.44-16.39-5.46-4.69-.78-5.46-1.17-7.41,4.68-5.86ZM164,314.44l10.92,10.15,9.76,7,4.68,5.08,7.41,5.85-12.48-18.73-1.95-2.73-1.56-2.74,3.12-.39a7.44,7.44,0,0,0,1.56-1.48l-14.83-5.93-18.73-10.93,5.85,11.71ZM534.31,309l-12.49-14.05,1.95,5.85,4.29,10.93,3.51,3.51-11.7,7.42,5.07,7,6.24,6.24,7.42,9a32.5,32.5,0,0,1,6.21,4.08V335.51l-8.94-7.8ZM361.83,329.66l6.24.78.52.18c-1-2.15-2-4.28-2.86-6l-15.61-10.93,7,10.15Zm-65.17-3.12-12.1-11.32-7.8-9.36-1.56-12.49-3.12-17.17L258,273.08l6.63,7,5.08,4.69-1.56,7-.79,12.49,7,7.8,1.95,7.42,9.76,7,9.36,7.41,6.63,3.52Zm36.8-7.61.27.2,3.51,7.41,1.57,11.71,11.31,10.92,6.64,2.34,10.14,9,9,6.24,10.92,7.81,9.37,3.9,12.88-1.17-7-7.42-15.61-11.7-7.8-4.29L370,346.44l-7.8-5.85-3.12-5.86-7.81-4.29-4.68-4.29-3.76-5.26-6.78-2.55Z"/><path class="cls-6" d="M-79.07,305.93c8.19-4.68,48-23.41,48-23.41l17.56-12.88,34-1.17s36.29,35.12,46.82,39.8,23.42,7,23.42,7l19.9,9.37,19.9,9.36s4.68-10.53,15.21,1.17,11.71,16.39,17.56,19.9,14-2.34,14-2.34l8.19,3.51,11.71,8.2a20.35,20.35,0,0,1,9.37,5.85c7,8.2,19.9,16.39,19.9,16.39l9.36,2.34,10.54,4.68,8.19,9.37h0c14.05,1.17,17.56,2.34,17.56,2.34l8.19,4.68L292,414.79a133,133,0,0,0,14.05-2.34l48-32.77,15.22-9.37,7-8.19,8.2-3.51h9.36l21.07-4.69,8.2-12.87,14.05-7,9.36,3.51L461.75,334l21.07,14.05,10.53,8.19,8.2,7L512.08,368h0c7,7,14,18.73,14,18.73a12,12,0,0,0,7,8.19s8.08,3.52,11.65,3.52l10.59,2.34,14,10.53c4.69,9.37,9.37,19.9,9.37,19.9l-1.17,21.07L-73.22,454.6Z"/><path class="cls-7" d="M242.84,406.6l7,4.68,8.19,3.51,14.05-9.36s-3.51-1.17-17.56-2.34l-.17,0,.17,0-8.19-9.37L235.82,389l-9.36-2.34s-12.88-8.19-19.9-16.39a20.35,20.35,0,0,0-9.37-5.85l-11.71-8.2-8.19-3.51s-8.19,5.86-14,2.34c7.47,12.81,5.22,11,4.76,10.61l19.83,18.66,9.36,8.19h-9.36l10.53,8.2,11.71,7L204.21,389l14,9.37-7-10.54-3.51-4.68,19.9,14.05ZM253,403l1.08.09Zm-3.27-.27.38,0Zm2.13.17,1,.09Zm-2.54-.21h0Zm-.36,0-.3,0Zm-.48,0h0Z"/><path class="cls-7" d="M168,365.7l-.07-.07A.36.36,0,0,0,168,365.7Z"/><path class="cls-7" d="M47.35,311.78l-3.51,9.37-14.05-2.34L52,334l14,8.2,16.39,12.87,19.9,7L87.15,334c5.86,0,17.56,1.17,17.56,1.17l1.17-7,24.59,10.54,14,10.53s5.34-4.14,11.37-1.47c-2.29-3-5.18-7-10.2-12.58-10.53-11.7-15.21-1.17-15.21-1.17l-19.9-9.36-19.9-9.37s-12.88-2.34-23.42-7-46.82-39.8-46.82-39.8c0,3.51,14,30.43,14,30.43Z"/><path class="cls-7" d="M569.44,411.28l-14-10.53-10.59-2.34c-3.57,0-11.65-3.52-11.65-3.52a12,12,0,0,1-7-8.19s-7-11.71-14-18.73l-10.53-4.68-8.2-7-10.53-8.19L461.75,334l-14.88,3.44,17.22,11.78,10.53,8.2,10.54,8.19c-2.34,3.51-15.22,1.17-15.22,1.17l5.86,10.54,9.36,4.68-12.88,2.34-21.07,1.17-17.56,5.85,12.88,4.69,19.9-2.35,12.88,2.35,10.53,3.51,10.54,4.68,8.19,1.17,10.54,3.51L507.4,387.87l16.39,10.54,10.54,5.85,7,4.68,11.71,3.51L563.59,416l8.8,1.35C571.44,415.33,570.44,413.28,569.44,411.28Z"/><path class="cls-8" d="M549.54,429.07c-39.86-3.27-81.87,1.05-121.19,1.36q-74.28.58-148.57,1c-50,.24-101.24-5.4-151.35-7.86-19.49-1-38.52-3.41-58.2-1.49-18,1.76-34,3.47-52.07,2.61-17.56-.83-34.55,1-51.7,2.51a99.88,99.88,0,0,1-11.73.28V504H549.54Z"/><path class="cls-9" d="M249,428.85c.85-1.07-5.41-6.82-8-7.33s-12.87,1.28-12.87,1.28,4.24,5.15,9.52,6.05S248,430.14,249,428.85Z"/><path class="cls-9" d="M230,436.83c1.12-.78.51-3.21-1.8-4.24s.25-2.19,0-3.61-2.45-8-3.22-7.56-8.63,5.5-12.36,7.05-17.51,6-16.86,6.95,20.59,1.93,25.36,1.93S228.7,437.73,230,436.83Z"/><path class="cls-10" d="M225,421.42c2.31.22,12.23,7.56,18.4,10.65a91.67,91.67,0,0,0,14.94,5.36H227C218.53,437.42,225,421.42,225,421.42Z"/><path class="cls-10" d="M241.06,421.52c4.37.25,21.36,9.26,21.36,9.26s-14.67,1.81-24.45,0S241.06,421.52,241.06,421.52Z"/><path class="cls-9" d="M478.19,348.08c5.31,2.72,8.22,9.11,12.82,12.85,3.34,2.72,6.92,5.18,10.31,7.84,3.69,2.9,5.9,6.09,8.86,9.65a271,271,0,0,0,20.33,22c3.8,3.67,5.89,8.06,9.24,12,2.43,2.88,5.71,4.65,8.21,7.4,2.23,2.45,3.64,5.28,5.94,7.59a71.62,71.62,0,0,1,5.33,5.7c-5,.32-10.21-1-15.14-.35-6.06.81-12.27,1.52-18.4,2.28s-11.66,2-17.86,1.17c-3.78-.52-6-2.2-9.33-3.51-3.57-1.41-6.67.16-8.59-3.81-2.64-5.46-3.09-13.52-4.38-19.52-1.19-5.48-3.1-10.32-3.35-16-.22-5-1.45-9.37-2.33-14.2s-2.39-11.21-2.08-16.1c1.51,1.62,3.66,2.62,5.14,4.36C481.44,360.25,477.67,355.53,478.19,348.08Z"/><path class="cls-10" d="M548,419.79c-2.5-2.75-5.78-4.52-8.21-7.4-3.35-3.94-5.44-8.33-9.24-12a271,271,0,0,1-20.33-22c-3-3.56-5.17-6.75-8.86-9.65-3.39-2.66-7-5.12-10.31-7.84-4.6-3.74-7.51-10.13-12.82-12.85,4.09,6.61,12.5,23.21,19.49,30.82a18.75,18.75,0,0,0-6.87-3.85c1.3,2.34,3.63,4.25,4.14,7-3-.85-6.15-4.34-9.23-4.55a352.31,352.31,0,0,0,19.42,34.48c-.25-1.07.15-2.37.12-3.35,1.81.48,3,2.22,4.88,2.26-.12-1.07.32-2.42.09-3.48a10.37,10.37,0,0,0,2.64,2.24c-1-6.45-5.22-13.67-8.48-19.34,2.69,2.5,5.23,6.59,8.51,8.45-.33-3.45-3.35-6.63-3.82-10a125,125,0,0,1,17.2,22.89,6.61,6.61,0,0,0-5.5-1.78c-.54,2.59,1.33,4.49,1.47,6.94-.84-.46-2.29-.31-3.06-.65.24.94-.08,2,.35,3-.6-.31-1.81-.45-2.29-.71,2,2.54,5,4.38,7.09,6.95s3.21,5.94,5.36,8.61l.44.53c4.67-.57,9.35-1.13,14-1.74,4.93-.66,10.16.67,15.14.35a71.62,71.62,0,0,0-5.33-5.7C551.6,425.07,550.19,422.24,548,419.79Z"/><path class="cls-9" d="M454.05,367.44c5.17,4.38,30.1,37.55,36.64,49.66a75.77,75.77,0,0,0,8.18,12.07c2.16,2.6,9.49,7.43,9.23,10.55-5.56.53-10.23-2.09-15.55-2.69-4.41-.5-7.66,1.6-11.82,2.45a55,55,0,0,1-11,.69c-4,0-7,0-9.61-2.05a25,25,0,0,1-6.48-8.88c-.85-1.88-.9-3-2.32-4.66-1.62-1.91-3.53-3.08-4.62-5.49-2.35-5.22-4.18-10.88-4.31-16.32a12.81,12.81,0,0,1,1.83.29c0-3.75-1.61-9.49-.26-12.77l.66-.11c-1.2-2.88-.39-4.5.11-6.92.35-.09.73.05,1.06-.12a41,41,0,0,0-.25-8.05c-.13-1.7-1.42-5.13-.89-6.67.47.34,2.19.68,2.69,1.07-.07-.56.17-1.3.13-1.87.41.4,1.45.77,1.83,1.12-.76-.73-.79-6.92-.34-7.39A47.51,47.51,0,0,0,454.05,367.44Z"/><path class="cls-10" d="M498.87,429.17a75.77,75.77,0,0,1-8.18-12.07c-6.54-12.11-31.47-45.28-36.64-49.66a36.38,36.38,0,0,1-4.13-4.75c1.61,3,3.66,6.24,4.58,8,2.37,4.63,5.06,9,7.57,13.67-1.84-3.24-6.74-6.26-9.62-8.91,1.9,5,6.49,10,9.33,14.56,3.37,5.45,7.14,10.63,10.46,16.11-5.39-4.13-11.19-10.07-17.4-12.75,0,2.79,2.55,5.52,3.83,8-2.44-1.78-4.74-4.93-7.78-5.27,2.26,9.78,12,17.23,15.22,26.82a37,37,0,0,1-.28-7.71c2.08,1.08,4.2,2.89,6.46,3.4,1-2.25,0-4.81.11-7.22,2.66,3.25,5.8,6.14,8.64,9.23,2.22-.26,5.79,4.71,8,6.19a29.31,29.31,0,0,0-.33-4c3.94,4.08,8.88,7,13.6,9.95.43.26.86.54,1.29.83A59.36,59.36,0,0,1,498.87,429.17Z"/><path class="cls-9" d="M384.84,376.19a14.14,14.14,0,0,0,4.92,2.7,18.48,18.48,0,0,1,.28-2.14c3.18.86,5.84-.95,8.77-.47,4.18.68,7.13,5.88,10.62,8.12,9.48,6.07,18.21,10.9,25.61,19.43,6.42,7.41,13,14.51,20,21.42,4,4,13,10.14,13.75,15.91-4.76.34-8.52,1-13.29,1.1-6.5.18-12.34-3.28-18.79-3.08-7.52.23-15.38,1.78-22.9,2.59-4,.43-8.63,2.52-12.57,1-2.3-.88-5.13-3.69-6.69-5.58-2.24-2.69-1.44-1.54-2-4.56-.47-2.43.4-2.85-1.77-6s-1.76-2-2.82-5.38c-1.4-4.42-3.78-9.75-4.62-14.31-.36-1.92.29-4.13,0-5.76-.49-3.28-2.5-5.95-3-9.19C383.59,390.81,382.92,380.11,384.84,376.19Z"/><path class="cls-10" d="M455.49,442.26c4.77-.14,8.53-.76,13.29-1.1-.74-5.77-9.73-11.91-13.74-15.91-7-6.91-13.58-14-20-21.42-7.4-8.53-16.13-13.36-25.61-19.43-3.49-2.24-6.44-7.44-10.62-8.12a13.89,13.89,0,0,0-4.79.47c3.45,5.41,7.49,10.52,9.73,16.26-1.32-.22-2.91.54-4.05.53a16.18,16.18,0,0,0,3.46,4.6c-2.41-.14-5.05-.83-7.41-.81.43,4.94,6.29,12.46,8.53,17.39,3.5,7.7,4.77,14.76,12.25,19.89.27-2.88-.37-5.76-.44-8.63,2.27,1.88,5.06,7,8.15,6.38,1.18-4.54,7.18,3.66,10.26,6.93.73-.05,1.47-.09,2.2-.11C443.15,439,449,442.44,455.49,442.26Z"/><path class="cls-9" d="M360.22,388.25c4.46,3.64,7.07,8.16,9.89,13.06.46.8,5.44,7.05,5.4,7.24.12-.54.4-1.06.51-1.54a17.79,17.79,0,0,0,2.61,2.33c.09-.9.81-1.85.92-2.71,10,9.22,13.87,26.72,25.64,34.29-.13-.54-.15-1.1-.21-1.5,6,2.51,13.25,13.22,15.51,19.42-1.57.11-3.16,0-4.72.12-.2,5.23-30.47,1.31-35.22,1.79-3.15.33-6.62,1.63-9.75,1.13-4.58-.71-8.4-3.65-13.28-2.61-1.85.4-2.63,1.47-4.91,1.61-3.05.19-6.27-.86-9.37-.83.15-2.52-1.29-4.55-2.35-6.73,1.27,1.56,1-2.72,1.26-4.12,9.25,1.1-1.28-17.65-1.63-21.33-.38-4,.6-8.34,0-12.3-.48-2.92-1.71-6-2.36-9,2.66.66,4.87,4.1,7.44,3.83-3.33-10.1-3.83-20.56-4.69-31.16,3.41,1.81,5.37,6,8.91,7.42-.19-1.2.22-2.65.07-3.87,0-.27,9.33,4.58,10.24,5.31Z"/><path class="cls-10" d="M405,439.42c.06.4.08,1,.21,1.5-11.77-7.57-15.66-25.07-25.64-34.29-.11.86-.83,1.81-.92,2.71A17.79,17.79,0,0,1,376,407c-.11.48-.39,1-.51,1.54,0-.19-4.94-6.44-5.4-7.24-2.82-4.9-5.43-9.42-9.89-13.06l-.14-.12c-.75-.6-7.17-4-9.44-5,3.81,6.25,9.2,11.58,11.8,18.76-2.08-2.05-5.11-3-7.89-3.78.81,1.9,2.37,3.53,3.2,5.47a11.44,11.44,0,0,1-4-.45c1,4.77,3.71,8.32,3.89,13.63.18,5.57-2.17,11.63-.33,17.12,4.64-2.18,4.09,1.85,7.73,3.57,2.46-4.74,4.19-1.88,6.32.86a98.55,98.55,0,0,0,13.29,13.95c0-3.63-1.57-7.42-1.2-11.24,2.2.23,3.23,3.4,4.59,5.19a39,39,0,0,0,8.32,7.65c3.46,2.52,6.75,5.15,10,7.83,5.32-.13,9.35-.83,9.42-2.72,1.56-.11,3.15,0,4.72-.12C418.23,452.64,411,441.93,405,439.42Z"/><path class="cls-9" d="M345.59,412.58c2.54,4,6.57,7,9.33,11.12a85.18,85.18,0,0,0,5.07,6.92,25.74,25.74,0,0,0,.49-6c3.72,7.28,13,14.59,18.42,21.4a238.62,238.62,0,0,0,16.44,19.27c-2.4-1.45-4.74-2.7-7.48-2.79.22,1.08-.44,2.75-.27,3.71-2.91.05-4.91-2-7.39-3.17-.13,2.12-.05,4.34-.14,6.47-8.4-3.67-21.56-1.76-30.54-1.71-3.12,0-10.1,1.54-12.67.74-3.86-1.21-5.8-6.33-9.16-8.17,1.87-1.18,3.59-2.62,5.77-2.91-.2-3.29,1.83-11.17,4.93-11.54.49-3.72-1.32-7.35-2-10.79.79.41,2.17.34,3.13,1,.16-4.59-.49-8.16.11-12.68C340.27,418.34,343,415.79,345.59,412.58Z"/><path class="cls-10" d="M360.94,443.26l-11-3.83,5.48,7.67,2.19,7.12h5.48l8.76,8.22,3.6,5.67a23.66,23.66,0,0,1,4.57,1.4c.09-2.13,0-4.35.14-6.47,2.48,1.2,4.48,3.22,7.39,3.17-.17-1,.49-2.63.27-3.71,2.74.09,5.08,1.34,7.48,2.79A238.62,238.62,0,0,1,378.9,446c-5.4-6.81-14.7-14.12-18.42-21.4a25.74,25.74,0,0,1-.49,6,85.18,85.18,0,0,1-5.07-6.92c-2.76-4.08-6.79-7.11-9.33-11.12l6,16.44Z"/><path class="cls-9" d="M431.53,422.18c2.94,2.49,17.13,21.37,20.85,28.27a44.39,44.39,0,0,0,4.66,6.87c1.23,1.48,5.4,4.23,5.26,6-3.17.3-5.83-1.19-8.86-1.54-2.5-.28-4.36.92-6.73,1.4a30.61,30.61,0,0,1-6.28.39c-2.29,0-4,0-5.48-1.16a14.28,14.28,0,0,1-3.68-5.06,8.77,8.77,0,0,0-1.32-2.65c-.92-1.09-2-1.76-2.63-3.13a24.69,24.69,0,0,1-2.46-9.29,7.06,7.06,0,0,1,1.05.16c0-2.13-.92-5.4-.16-7.27l.39-.06c-.69-1.64-.23-2.56.06-3.94.19-.05.41,0,.6-.07a23.44,23.44,0,0,0-.14-4.58c-.08-1-.81-2.92-.51-3.8.27.19,1.25.39,1.53.61,0-.32.1-.74.08-1.06.23.23.82.44,1,.64-.43-.42-.45-3.95-.19-4.22A26.44,26.44,0,0,0,431.53,422.18Z"/><path class="cls-10" d="M457,457.32a44.39,44.39,0,0,1-4.66-6.87c-3.72-6.9-17.91-25.78-20.85-28.27a21,21,0,0,1-2.36-2.71c.92,1.72,2.09,3.55,2.61,4.57,1.35,2.64,2.88,5.14,4.31,7.78-1-1.85-3.84-3.56-5.48-5.07,1.09,2.84,3.7,5.68,5.32,8.29,1.91,3.1,4.06,6,5.95,9.17-3.07-2.35-6.37-5.73-9.91-7.26,0,1.59,1.45,3.14,2.18,4.54-1.38-1-2.7-2.81-4.43-3,1.29,5.57,6.82,9.81,8.67,15.27a20.89,20.89,0,0,1-.16-4.39c1.19.62,2.4,1.65,3.68,1.94.58-1.28,0-2.74.06-4.11,1.52,1.85,3.3,3.49,4.92,5.25,1.26-.15,3.3,2.68,4.58,3.53a17.25,17.25,0,0,0-.18-2.29,39.38,39.38,0,0,0,7.74,5.67l.73.47C458.7,458.87,457.59,458,457,457.32Z"/><path class="cls-9" d="M290.94,414.9c2.25,1.15,3.48,3.86,5.43,5.44,1.41,1.15,2.92,2.19,4.36,3.32a25,25,0,0,1,3.75,4.08,114.78,114.78,0,0,0,8.6,9.3c1.61,1.55,2.49,3.41,3.91,5.08,1,1.21,2.42,2,3.48,3.13s1.54,2.23,2.51,3.21a30,30,0,0,1,2.25,2.41c-2.11.13-4.32-.43-6.4-.15-2.57.34-5.2.65-7.79,1s-4.93.86-7.56.49a15.78,15.78,0,0,1-3.94-1.48c-1.51-.6-2.83.06-3.64-1.62-1.12-2.31-1.3-5.72-1.85-8.25-.5-2.33-1.31-4.37-1.42-6.78a41.62,41.62,0,0,0-1-6,31.38,31.38,0,0,1-.87-6.81c.63.68,1.54,1.1,2.17,1.84C292.32,420.05,290.72,418.06,290.94,414.9Z"/><path class="cls-10" d="M320.47,445.25c-1.06-1.17-2.45-1.92-3.48-3.13-1.42-1.67-2.3-3.53-3.91-5.08a114.78,114.78,0,0,1-8.6-9.3,25,25,0,0,0-3.75-4.08c-1.44-1.13-3-2.17-4.36-3.32-1.95-1.58-3.18-4.29-5.43-5.44,1.73,2.8,5.29,9.82,8.25,13.05a8,8,0,0,0-2.91-1.64c.55,1,1.54,1.8,1.75,2.95-1.28-.36-2.6-1.84-3.9-1.93a151,151,0,0,0,8.21,14.6,7.33,7.33,0,0,1,.06-1.42c.76.2,1.25.93,2.06.95a14.43,14.43,0,0,0,0-1.47,4.43,4.43,0,0,0,1.12.95c-.44-2.73-2.21-5.79-3.59-8.18,1.14,1.05,2.21,2.78,3.6,3.57-.14-1.46-1.42-2.81-1.62-4.25a52.82,52.82,0,0,1,7.28,9.69A2.81,2.81,0,0,0,309,441c-.23,1.1.56,1.9.62,2.94-.36-.19-1-.13-1.3-.27.1.39,0,.86.15,1.27-.26-.13-.77-.19-1-.3.83,1.07,2.13,1.85,3,2.94s1.36,2.51,2.27,3.64l.18.23c2-.24,4-.48,5.91-.74s4.29.28,6.4.15a30,30,0,0,0-2.25-2.41C322,447.48,321.41,446.28,320.47,445.25Z"/><path class="cls-9" d="M278.2,435.41s-2.19-4.9-3.54-5.06-1-2.2-2.54-2.2-4.56,6.59-4.73,7.26S273.81,437.27,278.2,435.41Z"/><path class="cls-10" d="M272.74,428.32c.82.48.79,1.89,1.92,2,1.35.16,3.54,5.06,3.54,5.06C276.23,433.77,272.05,434.18,272.74,428.32Z"/><path class="cls-9" d="M474.73,498s-2-5.07-2.54-5.74-1.18-2-2.36-1.86a6.66,6.66,0,0,0-2.7,1.69,1.06,1.06,0,0,0-1.52-.17c-.85.67-3.72,6.08-3.72,6.08S470,500.49,474.73,498Z"/><path class="cls-10" d="M469.48,499.08a2.6,2.6,0,0,1,.86-1.12c3.21-2.85-1.14-1.42-.91-3.25.2-1.57-.9-2.17,1.43-4a6.32,6.32,0,0,1,1.33,1.56c.51.67,2.54,5.74,2.54,5.74A11.47,11.47,0,0,1,469.48,499.08Z"/><path class="cls-9" d="M435.28,487c1.13-1.4-7.09-8.95-10.46-9.62S407.93,479,407.93,479s5.57,6.76,12.5,7.94S433.93,488.64,435.28,487Z"/><path class="cls-9" d="M410.29,497.42c1.47-1,.68-4.22-2.36-5.57s.34-2.87,0-4.73-3.21-10.54-4.22-9.92-11.31,7.22-16.21,9.24-23,7.94-22.12,9.12,27,2.54,33.26,2.54S408.61,498.6,410.29,497.42Z"/><path class="cls-10" d="M403.71,477.2c3,.29,16,9.92,24.15,14s19.58,7,19.58,7h-41C395.27,498.19,403.71,477.2,403.71,477.2Z"/><path class="cls-9" d="M227,495.69c1-.72.47-3-1.66-3.91s.23-2,0-3.32-2.26-7.4-3-7S214.47,486.56,211,488s-16.12,5.57-15.53,6.4,19,1.78,23.35,1.78S225.85,496.52,227,495.69Z"/><path class="cls-10" d="M222.41,481.5c2.14.2,11.26,7,17,9.8a84.14,84.14,0,0,0,13.75,4.94H224.31C216.48,496.24,222.41,481.5,222.41,481.5Z"/><path class="cls-10" d="M424.82,477.33c5.74.33,28,12.15,28,12.15s-19.25,2.37-32.09,0S424.82,477.33,424.82,477.33Z"/><path class="cls-9" d="M489,469.1c.56-1.05-5.91-5.58-7.77-6.76s-6.42-1.85-7.26,0,0,5.24,0,5.24-2.36,0-2.87,1.52S487.84,471.29,489,469.1Z"/><path class="cls-10" d="M476.75,461.21a9.18,9.18,0,0,1,4.5,1.13c1.86,1.18,8.33,5.71,7.77,6.76C484.83,469.1,476.69,464.91,476.75,461.21Z"/><path class="cls-9" d="M350.71,481.61c.56-1.05-5.91-5.57-7.77-6.75s-6.42-1.86-7.26,0,0,5.23,0,5.23-2.36,0-2.87,1.52S349.53,483.81,350.71,481.61Z"/><path class="cls-9" d="M321.16,478.36s-2.53-5.14-3.89-4.66-4.55,4.66-4.55,4.66S318.63,479.33,321.16,478.36Z"/><path class="cls-10" d="M338.44,473.72a9.29,9.29,0,0,1,4.5,1.14c1.86,1.18,8.33,5.7,7.77,6.75C346.52,481.61,338.38,477.42,338.44,473.72Z"/><path class="cls-10" d="M317.27,473.7c1.36-.48,3.89,4.66,3.89,4.66a2.42,2.42,0,0,1-.76,0C318.33,478,315.48,475.37,317.27,473.7Z"/><path class="cls-9" d="M340,484.63s-2.2-4.9-3.55-5.07-1-2.19-2.53-2.19-4.56,6.58-4.73,7.26S335.6,486.49,340,484.63Z"/><path class="cls-10" d="M334.53,477.54c.82.48.79,1.88,1.91,2,1.35.17,3.55,5.07,3.55,5.07C338,483,333.83,483.4,334.53,477.54Z"/><path class="cls-9" d="M431.87,468.31c-.27-.27-10.69-5.57-11.88-6.67s-10,4.94-12.25,6.49S431.87,468.31,431.87,468.31Z"/><path class="cls-10" d="M420,461.64c1.19,1.1,11.61,6.4,11.88,6.67C431.87,468.31,417,466.12,420,461.64Z"/><path class="cls-9" d="M280.12,466.37c-1.37.27-10.69,1.37-18.65-3.2,0,0,8.14-2.56,10.61-3S280.12,466.37,280.12,466.37Z"/><path class="cls-10" d="M273.47,460.44c2.72,1.24,6.65,5.93,6.65,5.93S270.7,463.47,273.47,460.44Z"/><path class="cls-9" d="M374.29,509.13S360.9,498.26,359.22,498s-6.74,2.7-6.74,2.7-4.88-.93-6-.34-4.89,3.62-4.89,3.62-10.1-7-11.28-7.75-3.7-3.28-4.38-3.62-5.56,5.9-5.56,5.9-4.46-1.69-5.38-1.1a25.12,25.12,0,0,0-3,3s-4.21-2.56-4.72-2.3-7.91,8.58-7.91,8.58-4-3.2-5.73-1.85a46.33,46.33,0,0,0-4.46,4.3Z"/><path class="cls-10" d="M327.73,502a46.15,46.15,0,0,0-3.7-4,45.56,45.56,0,0,1-3.46,3.37c-.36.17-4.06-2.06-6.18-3.37a4.7,4.7,0,0,1,.63-.51c.92-.59,5.38,1.1,5.38,1.1s4.89-6.23,5.56-5.9,3.2,2.87,4.38,3.62c.88.57,6.74,4.61,9.65,6.62C340,502.86,329.16,503.82,327.73,502Z"/><path class="cls-10" d="M359.3,500.28s-5.39,1.94-6.82.43c0,0,5.06-2.95,6.74-2.7s15.07,11.12,15.07,11.12C366.38,508.28,359.3,500.28,359.3,500.28Z"/><path class="cls-10" d="M307.27,498.1c.35-.18,2.42,1,3.7,1.71C311,499.81,307.35,501,307.27,498.1Z"/><path class="cls-9" d="M289.82,483.15c-.28-.28-10.7-5.58-11.88-6.68s-10,4.94-12.25,6.49S289.82,483.15,289.82,483.15Z"/><path class="cls-10" d="M277.94,476.47c1.18,1.1,11.6,6.4,11.88,6.68C289.82,483.15,274.92,481,277.94,476.47Z"/><path class="cls-9" d="M576.4,481.82S563,471,561.33,470.7s-6.74,2.7-6.74,2.7-4.88-.93-6-.34-4.88,3.62-4.88,3.62-10.11-7-11.28-7.75-3.71-3.28-4.38-3.62-5.56,5.9-5.56,5.9-4.46-1.69-5.39-1.1a25.91,25.91,0,0,0-3,3s-4.21-2.56-4.71-2.3-7.92,8.58-7.92,8.58-4-3.2-5.72-1.85a46.9,46.9,0,0,0-4.47,4.3Z"/><path class="cls-10" d="M501.46,479.37s-5.88,1.63-6-1.62l.28-.23C497.5,476.17,501.46,479.37,501.46,479.37Z"/><path class="cls-9" d="M499,499s-2.53-5.13-3.88-4.65-4.56,4.65-4.56,4.65S496.49,500,499,499Z"/><path class="cls-10" d="M495.14,494.38C496.49,493.9,499,499,499,499a2.15,2.15,0,0,1-.76,0C496.19,498.7,493.35,496,495.14,494.38Z"/><path class="cls-9" d="M81.59,472.41s-2.19-6-3.54-6.25-1-2.71-2.54-2.71-4.55,8.13-4.72,9S77.2,474.7,81.59,472.41Z"/><path class="cls-10" d="M76.13,463.66c.83.59.8,2.33,1.92,2.5,1.35.21,3.54,6.25,3.54,6.25C79.62,470.38,75.44,470.89,76.13,463.66Z"/><path class="cls-9" d="M290.25,497.06c.57-1.3-5.91-6.87-7.76-8.33s-6.42-2.29-7.26,0,0,6.46,0,6.46-2.37,0-2.87,1.87S289.07,499.77,290.25,497.06Z"/><path class="cls-9" d="M260.71,493.05s-2.54-6.33-3.89-5.74-4.56,5.74-4.56,5.74S258.17,494.25,260.71,493.05Z"/><path class="cls-9" d="M57.18,499.65c1.12-1.73-7.09-11-10.47-11.87s-16.89,2.08-16.89,2.08,5.58,8.33,12.5,9.79S55.83,501.73,57.18,499.65Z"/><path class="cls-9" d="M32.19,512.55c1.47-1.26.67-5.2-2.37-6.87s.34-3.54,0-5.83-3.2-13-4.22-12.22S14.29,496.52,9.39,499s-23,9.79-22.12,11.24,27,3.13,33.27,3.13S30.5,514,32.19,512.55Z"/><path class="cls-10" d="M25.6,487.63c3,.35,16,12.22,24.15,17.22s19.59,8.67,19.59,8.67h-41C17.16,513.51,25.6,487.63,25.6,487.63Z"/><path class="cls-9" d="M529.85,462.93c1-.89.47-3.65-1.66-4.82s.23-2.49,0-4.1-2.25-9.12-3-8.58-7.94,6.25-11.38,8-16.12,6.87-15.53,7.89,19,2.2,23.36,2.2S528.66,464,529.85,462.93Z"/><path class="cls-10" d="M46.71,487.78c5.74.41,28,15,28,15s-19.25,2.91-32.08,0S46.71,487.78,46.71,487.78Z"/><path class="cls-10" d="M278,487.33a8,8,0,0,1,4.5,1.4c1.85,1.46,8.33,7,7.76,8.33C286.07,497.06,277.92,491.9,278,487.33Z"/><path class="cls-9" d="M110.91,477.63c.57-1.3-5.91-6.87-7.76-8.33s-6.42-2.29-7.27,0,0,6.46,0,6.46-2.36,0-2.87,1.87S109.73,480.34,110.91,477.63Z"/><path class="cls-10" d="M98.65,467.9a8,8,0,0,1,4.5,1.4c1.85,1.46,8.33,7,7.76,8.33C106.72,477.63,98.58,472.47,98.65,467.9Z"/><path class="cls-10" d="M256.82,487.31c1.35-.59,3.89,5.74,3.89,5.74a1.82,1.82,0,0,1-.77,0C257.87,492.64,255,489.36,256.82,487.31Z"/><path class="cls-9" d="M250.09,465.31c.56-1.29-5.91-6.87-7.77-8.33s-6.42-2.29-7.26,0,0,6.46,0,6.46-2.37,0-2.87,1.87S248.9,468,250.09,465.31Z"/><path class="cls-9" d="M220.54,461.3s-2.54-6.33-3.89-5.74-4.56,5.74-4.56,5.74S218,462.5,220.54,461.3Z"/><path class="cls-10" d="M237.82,455.59a8,8,0,0,1,4.5,1.39c1.86,1.46,8.33,7,7.77,8.33C245.9,465.31,237.75,460.15,237.82,455.59Z"/><path class="cls-10" d="M216.65,455.56c1.35-.59,3.89,5.74,3.89,5.74a1.81,1.81,0,0,1-.77,0C217.71,460.89,214.86,457.62,216.65,455.56Z"/><path class="cls-9" d="M239.37,469s-2.2-6-3.55-6.25-1-2.71-2.53-2.71-4.56,8.12-4.73,9S235,471.33,239.37,469Z"/><path class="cls-10" d="M233.91,460.29c.82.59.79,2.33,1.91,2.5,1.35.21,3.55,6.25,3.55,6.25C237.4,467,233.21,467.52,233.91,460.29Z"/><path class="cls-9" d="M49.88,456.1c-.28-.34-10.7-6.88-11.88-8.23s-10,6.08-12.25,8S49.88,456.1,49.88,456.1Z"/><path class="cls-10" d="M38,447.87c1.18,1.35,11.6,7.89,11.88,8.23C49.88,456.1,35,453.39,38,447.87Z"/><path class="cls-9" d="M241.41,445.87c-1.37.34-10.69,1.69-18.64-3.94,0,0,8.13-3.16,10.6-3.72S241.41,445.87,241.41,445.87Z"/><path class="cls-10" d="M234.77,438.57c2.72,1.52,6.64,7.3,6.64,7.3S232,442.31,234.77,438.57Z"/><path class="cls-9" d="M25.07,479.5S11.69,466.1,10,465.79s-6.73,3.33-6.73,3.33-4.89-1.15-6-.42-4.88,4.46-4.88,4.46-10.11-8.61-11.29-9.55-3.7-4.05-4.37-4.46-5.56,7.27-5.56,7.27-4.46-2.08-5.39-1.35a28.27,28.27,0,0,0-3,3.67s-4.21-3.15-4.72-2.84-7.91,10.59-7.91,10.59-4-3.95-5.73-2.29A53.73,53.73,0,0,0-60,479.5Z"/><path class="cls-10" d="M10.09,468.6s-5.39,2.38-6.82.52c0,0,5.05-3.64,6.73-3.33S25.07,479.5,25.07,479.5C17.16,478.46,10.09,468.6,10.09,468.6Z"/><path class="cls-9" d="M198.29,493.31s-13.39-13.39-15.07-13.7-6.74,3.32-6.74,3.32-4.88-1.14-6-.41-4.89,4.46-4.89,4.46-10.1-8.62-11.28-9.55-3.7-4.05-4.38-4.47-5.56,7.27-5.56,7.27-4.46-2.07-5.38-1.35a28.89,28.89,0,0,0-3,3.68s-4.21-3.16-4.72-2.85-7.91,10.59-7.91,10.59-4-3.94-5.73-2.28a52.56,52.56,0,0,0-4.46,5.29Z"/><path class="cls-10" d="M123.36,490.3s-5.89,2-6-2l.28-.28C119.4,486.36,123.36,490.3,123.36,490.3Z"/><path class="cls-10" d="M151.73,484.49a52.71,52.71,0,0,0-3.7-5,50.1,50.1,0,0,1-3.46,4.15c-.36.22-4.06-2.54-6.18-4.16a6,6,0,0,1,.63-.62c.92-.72,5.38,1.35,5.38,1.35s4.89-7.68,5.56-7.27,3.2,3.53,4.38,4.47c.88.7,6.74,5.68,9.65,8.16C164,485.59,153.16,486.77,151.73,484.49Z"/><path class="cls-10" d="M183.3,482.41s-5.39,2.39-6.82.52c0,0,5.06-3.63,6.74-3.32s15.07,13.7,15.07,13.7C190.38,492.28,183.3,482.41,183.3,482.41Z"/><path class="cls-10" d="M131.27,479.71c.35-.21,2.42,1.2,3.7,2.11C135,481.82,131.35,483.34,131.27,479.71Z"/><path class="cls-9" d="M141.79,499.11c-1.37.34-10.69,1.7-18.64-3.94,0,0,8.13-3.15,10.6-3.72S141.79,499.11,141.79,499.11Z"/><path class="cls-10" d="M135.15,491.81c2.72,1.52,6.64,7.3,6.64,7.3S132.38,495.55,135.15,491.81Z"/><path class="cls-9" d="M27.51,348.08c5.31,2.72,8.22,9.11,12.82,12.85,3.34,2.72,6.91,5.18,10.3,7.84,3.7,2.9,5.9,6.09,8.87,9.65a269.24,269.24,0,0,0,20.33,22c3.8,3.67,5.89,8.06,9.24,12,2.43,2.88,5.71,4.65,8.21,7.4,2.22,2.45,3.64,5.28,5.94,7.59a71.49,71.49,0,0,1,5.32,5.7c-5,.32-10.2-1-15.13-.35-6.06.81-12.28,1.52-18.4,2.28s-11.66,2-17.87,1.17c-3.77-.52-6-2.2-9.32-3.51-3.57-1.41-6.68.16-8.59-3.81-2.64-5.46-3.09-13.52-4.39-19.52-1.18-5.48-3.1-10.32-3.34-16-.22-5-1.45-9.37-2.34-14.2s-2.38-11.21-2.07-16.1c1.51,1.62,3.65,2.62,5.14,4.36C30.75,360.25,27,355.53,27.51,348.08Z"/><path class="cls-10" d="M97.28,419.79c-2.5-2.75-5.78-4.52-8.21-7.4-3.35-3.94-5.44-8.33-9.24-12a269.24,269.24,0,0,1-20.33-22c-3-3.56-5.17-6.75-8.87-9.65-3.39-2.66-7-5.12-10.3-7.84-4.6-3.74-7.51-10.13-12.82-12.85C31.6,354.69,40,371.29,47,378.9a18.75,18.75,0,0,0-6.87-3.85c1.29,2.34,3.63,4.25,4.13,7-3-.85-6.14-4.34-9.23-4.55a356.49,356.49,0,0,0,19.42,34.48c-.25-1.07.15-2.37.13-3.35,1.81.48,3,2.22,4.87,2.26-.11-1.07.32-2.42.09-3.48a10.57,10.57,0,0,0,2.65,2.24c-1-6.45-5.22-13.67-8.49-19.34,2.7,2.5,5.24,6.59,8.52,8.45-.33-3.45-3.36-6.63-3.82-10a125,125,0,0,1,17.2,22.89,6.62,6.62,0,0,0-5.5-1.78c-.54,2.59,1.33,4.49,1.47,6.94-.84-.46-2.29-.31-3.07-.65.25.94-.08,2,.35,3-.6-.31-1.8-.45-2.29-.71,2,2.54,5,4.38,7.1,6.95s3.21,5.94,5.36,8.61l.43.53c4.67-.57,9.36-1.13,14-1.74,4.93-.66,10.15.67,15.13.35a71.49,71.49,0,0,0-5.32-5.7C100.92,425.07,99.5,422.24,97.28,419.79Z"/><path class="cls-9" d="M3.37,367.44C8.54,371.82,33.47,405,40,417.1a76.5,76.5,0,0,0,8.19,12.07c2.15,2.6,9.48,7.43,9.22,10.55-5.55.53-10.22-2.09-15.55-2.69-4.4-.5-7.66,1.6-11.82,2.45a54.89,54.89,0,0,1-11,.69c-4,0-7,0-9.62-2.05a25.09,25.09,0,0,1-6.48-8.88c-.85-1.88-.9-3-2.31-4.66C-1,422.67-2.94,421.5-4,419.09c-2.35-5.22-4.19-10.88-4.31-16.32a13.26,13.26,0,0,1,1.83.29c0-3.75-1.61-9.49-.27-12.77l.67-.11c-1.2-2.88-.39-4.5.11-6.92.35-.09.73.05,1-.12a41,41,0,0,0-.24-8.05c-.14-1.7-1.43-5.13-.9-6.67.47.34,2.2.68,2.69,1.07-.06-.56.17-1.3.14-1.87.41.4,1.45.77,1.83,1.12-.76-.73-.8-6.92-.34-7.39A46.65,46.65,0,0,0,3.37,367.44Z"/><path class="cls-10" d="M48.19,429.17A76.5,76.5,0,0,1,40,417.1C33.47,405,8.54,371.82,3.37,367.44a36.44,36.44,0,0,1-4.14-4.75c1.62,3,3.67,6.24,4.58,8,2.37,4.63,5.07,9,7.58,13.67-1.84-3.24-6.74-6.26-9.63-8.91,1.91,5,6.5,10,9.34,14.56,3.37,5.45,7.14,10.63,10.46,16.11-5.4-4.13-11.19-10.07-17.4-12.75,0,2.79,2.54,5.52,3.82,8-2.43-1.78-4.74-4.93-7.78-5.27,2.27,9.78,12,17.23,15.23,26.82a35.67,35.67,0,0,1-.28-7.71c2.08,1.08,4.2,2.89,6.45,3.4,1-2.25,0-4.81.11-7.22,2.67,3.25,5.8,6.14,8.64,9.23,2.22-.26,5.79,4.71,8,6.19a29.31,29.31,0,0,0-.33-4c4,4.08,8.89,7,13.61,9.95.43.26.86.54,1.29.83A59.36,59.36,0,0,1,48.19,429.17Z"/><path class="cls-9" d="M-65.84,376.19a14,14,0,0,0,4.92,2.7,18.48,18.48,0,0,1,.28-2.14c3.17.86,5.84-.95,8.77-.47,4.18.68,7.13,5.88,10.62,8.12,9.48,6.07,18.21,10.9,25.6,19.43,6.43,7.41,13.05,14.51,20,21.42,4,4,13,10.14,13.75,15.91-4.76.34-8.52,1-13.3,1.1-6.49.18-12.33-3.28-18.78-3.08-7.52.23-15.38,1.78-22.9,2.59-4,.43-8.64,2.52-12.57,1-2.31-.88-5.13-3.69-6.7-5.58-2.23-2.69-1.43-1.54-2-4.56-.47-2.43.39-2.85-1.78-6s-1.75-2-2.82-5.38c-1.39-4.42-3.77-9.75-4.62-14.31-.35-1.92.3-4.13,0-5.76-.5-3.28-2.51-5.95-3.06-9.19C-67.09,390.81-67.76,380.11-65.84,376.19Z"/><path class="cls-10" d="M4.8,442.26c4.78-.14,8.54-.76,13.3-1.1-.75-5.77-9.73-11.91-13.75-15.91-6.95-6.91-13.57-14-20-21.42-7.39-8.53-16.12-13.36-25.6-19.43-3.49-2.24-6.44-7.44-10.62-8.12a13.86,13.86,0,0,0-4.79.47c3.44,5.41,7.49,10.52,9.73,16.26-1.32-.22-2.92.54-4,.53a16,16,0,0,0,3.46,4.6c-2.41-.14-5-.83-7.42-.81.44,4.94,6.29,12.46,8.54,17.39,3.5,7.7,4.76,14.76,12.25,19.89.27-2.88-.37-5.76-.45-8.63,2.28,1.88,5.07,7,8.16,6.38,1.18-4.54,7.18,3.66,10.25,6.93.74-.05,1.48-.09,2.21-.11C-7.53,439-1.69,442.44,4.8,442.26Z"/><path class="cls-9" d="M143.66,359c4.46,3.65,7.06,8.17,9.89,13.06.46.8,5.44,7,5.39,7.24.13-.54.4-1,.52-1.53a17.22,17.22,0,0,0,2.61,2.32c.08-.89.81-1.84.92-2.7,10,9.22,13.86,26.72,25.64,34.28a12.45,12.45,0,0,1-.21-1.5c6,2.52,13.25,13.23,15.5,19.43-1.56.1-3.16,0-4.71.11-.21,5.24-30.47,1.32-35.22,1.8-3.15.32-6.62,1.62-9.75,1.13-4.58-.72-8.4-3.66-13.28-2.61-1.85.39-2.64,1.46-4.91,1.6-3.05.19-6.27-.86-9.37-.82.14-2.53-1.29-4.56-2.36-6.73,1.27,1.55,1-2.72,1.27-4.13,9.25,1.11-1.29-17.64-1.64-21.33-.38-4,.61-8.33,0-12.29-.48-2.92-1.72-6-2.36-9,2.66.66,4.86,4.1,7.44,3.84-3.33-10.11-3.83-20.57-4.69-31.17,3.4,1.82,5.36,6,8.91,7.43-.2-1.2.22-2.65.07-3.87,0-.27,9.33,4.58,10.23,5.31Z"/><path class="cls-10" d="M188.42,410.15a12.45,12.45,0,0,0,.21,1.5C176.85,404.09,173,386.59,163,377.37c-.11.86-.84,1.81-.92,2.7a17.22,17.22,0,0,1-2.61-2.32c-.12.48-.39,1-.52,1.53.05-.19-4.93-6.44-5.39-7.24-2.83-4.89-5.43-9.41-9.89-13.06l-.15-.11c-.74-.6-7.16-4-9.43-5,3.81,6.25,9.2,11.57,11.8,18.76-2.08-2.06-5.11-3-7.89-3.78.81,1.9,2.36,3.52,3.19,5.46a11.71,11.71,0,0,1-4-.44c1,4.77,3.72,8.31,3.89,13.62.19,5.58-2.17,11.64-.32,17.13,4.64-2.18,4.09,1.85,7.73,3.56,2.46-4.73,4.18-1.87,6.32.86a99.17,99.17,0,0,0,13.29,14c0-3.64-1.57-7.42-1.2-11.24,2.19.22,3.23,3.39,4.59,5.18a38.53,38.53,0,0,0,8.32,7.65c3.46,2.52,6.75,5.15,10,7.84,5.33-.14,9.36-.83,9.43-2.73,1.55-.1,3.15,0,4.71-.11C201.67,423.38,194.46,412.67,188.42,410.15Z"/><path class="cls-9" d="M104.38,399.2c1.81,2.86,4.68,5,6.64,7.91a60.49,60.49,0,0,0,3.61,4.93,18.28,18.28,0,0,0,.36-4.27c2.64,5.19,9.27,10.39,13.11,15.24a169,169,0,0,0,11.71,13.72,11.14,11.14,0,0,0-5.33-2c.16.77-.31,2-.19,2.64-2.08,0-3.5-1.4-5.26-2.26-.1,1.51,0,3.09-.1,4.61-6-2.61-15.36-1.25-21.75-1.22-2.22,0-7.19,1.1-9,.53-2.76-.86-4.13-4.51-6.53-5.82,1.33-.84,2.56-1.86,4.11-2.07-.14-2.34,1.31-8,3.51-8.22.35-2.65-.94-5.24-1.45-7.68.56.29,1.55.24,2.23.71.11-3.27-.35-5.82.08-9C100.59,403.3,102.54,401.48,104.38,399.2Z"/><path class="cls-10" d="M115.31,421.05l-7.81-2.73,3.91,5.46,1.56,5.07h3.9l6.24,5.86,2.56,4a16.3,16.3,0,0,1,3.26,1c.06-1.52,0-3.1.1-4.61,1.76.86,3.18,2.29,5.26,2.26-.12-.68.35-1.87.19-2.64a11.14,11.14,0,0,1,5.33,2A169,169,0,0,1,128.1,423c-3.84-4.85-10.47-10.05-13.11-15.24a18.28,18.28,0,0,1-.36,4.27,60.49,60.49,0,0,1-3.61-4.93c-2-2.9-4.83-5.05-6.64-7.91l4.29,11.7Z"/><path class="cls-9" d="M154.13,422.18c2.94,2.49,17.14,21.37,20.86,28.27a43,43,0,0,0,4.66,6.87c1.23,1.48,5.4,4.23,5.25,6-3.16.3-5.82-1.19-8.85-1.54-2.51-.28-4.36.92-6.73,1.4a30.65,30.65,0,0,1-6.28.39c-2.29,0-4,0-5.48-1.16a14.31,14.31,0,0,1-3.69-5.06,8.52,8.52,0,0,0-1.31-2.65c-.93-1.09-2-1.76-2.64-3.13a24.86,24.86,0,0,1-2.45-9.29,6.94,6.94,0,0,1,1,.16c0-2.13-.91-5.4-.15-7.27l.38-.06c-.69-1.64-.22-2.56.06-3.94.2-.05.42,0,.6-.07a22.69,22.69,0,0,0-.14-4.58c-.07-1-.81-2.92-.51-3.8.27.19,1.25.39,1.53.61,0-.32.1-.74.08-1.06.23.23.83.44,1,.64-.43-.42-.45-3.95-.19-4.22A26.44,26.44,0,0,0,154.13,422.18Z"/><path class="cls-10" d="M179.65,457.32a43,43,0,0,1-4.66-6.87c-3.72-6.9-17.92-25.78-20.86-28.27a20.16,20.16,0,0,1-2.35-2.71c.92,1.72,2.08,3.55,2.6,4.57,1.35,2.64,2.89,5.14,4.32,7.78-1-1.85-3.84-3.56-5.48-5.07,1.08,2.84,3.7,5.68,5.31,8.29,1.92,3.1,4.07,6,6,9.17-3.08-2.35-6.37-5.73-9.91-7.26,0,1.59,1.45,3.14,2.18,4.54-1.39-1-2.7-2.81-4.43-3,1.29,5.57,6.81,9.81,8.67,15.27a20.89,20.89,0,0,1-.16-4.39c1.18.62,2.39,1.65,3.67,1.94.58-1.28,0-2.74.07-4.11,1.51,1.85,3.3,3.49,4.92,5.25,1.26-.15,3.29,2.68,4.58,3.53a17.25,17.25,0,0,0-.19-2.29,39.74,39.74,0,0,0,7.75,5.67l.73.47A36.08,36.08,0,0,1,179.65,457.32Z"/><path class="cls-9" d="M88.73,417.8c2.25,1.15,3.48,3.85,5.42,5.44,1.42,1.15,2.93,2.19,4.36,3.31a24.22,24.22,0,0,1,3.75,4.09,114.63,114.63,0,0,0,8.61,9.29c1.61,1.56,2.49,3.41,3.91,5.08,1,1.22,2.42,2,3.47,3.13s1.54,2.24,2.52,3.21a31.93,31.93,0,0,1,2.25,2.41c-2.11.14-4.32-.42-6.41-.14-2.56.34-5.19.64-7.78,1s-4.93.86-7.56.5c-1.6-.22-2.54-.94-4-1.49s-2.82.07-3.63-1.61c-1.12-2.31-1.31-5.72-1.86-8.26-.5-2.32-1.31-4.37-1.41-6.78a43.54,43.54,0,0,0-1-6,31.24,31.24,0,0,1-.88-6.81c.64.69,1.55,1.11,2.18,1.85C90.1,423,88.51,421,88.73,417.8Z"/><path class="cls-10" d="M118.25,448.14c-1-1.16-2.44-1.91-3.47-3.13-1.42-1.67-2.3-3.52-3.91-5.08a114.63,114.63,0,0,1-8.61-9.29,24.22,24.22,0,0,0-3.75-4.09c-1.43-1.12-2.94-2.16-4.36-3.31-1.94-1.59-3.17-4.29-5.42-5.44,1.73,2.8,5.29,9.82,8.25,13a8,8,0,0,0-2.91-1.63c.55,1,1.54,1.8,1.75,3-1.28-.37-2.6-1.84-3.91-1.93a151.83,151.83,0,0,0,8.22,14.59,7.41,7.41,0,0,1,.05-1.42c.77.2,1.25.94,2.07,1,0-.46.13-1,0-1.47a4.57,4.57,0,0,0,1.11.95c-.43-2.73-2.21-5.79-3.59-8.19,1.14,1.06,2.22,2.79,3.61,3.57-.14-1.45-1.42-2.8-1.62-4.24a52.49,52.49,0,0,1,7.28,9.69,2.79,2.79,0,0,0-2.33-.76c-.23,1.1.56,1.9.62,2.94-.35-.2-1-.13-1.29-.28.1.4,0,.86.14,1.27-.25-.13-.76-.19-1-.29.82,1.07,2.13,1.85,3,2.94s1.36,2.51,2.27,3.64l.18.22c2-.24,4-.47,5.9-.73,2.09-.28,4.3.28,6.41.14a31.93,31.93,0,0,0-2.25-2.41C119.79,450.38,119.19,449.18,118.25,448.14Z"/><path class="cls-3" d="M-143,63.53A339.64,339.64,0,0,0-35.14,77.17c25.25-.94,48.65-9.46,73.64-11.87,35.3-3.39,71.65-.57,106.39,5.22,66.06,11,126.52,31.08,192.82,10.56C384.19,66.69,429.58,45,479.25,47c41.83,1.64,104,23.87,163.75,35V-14H-143Z"/><path class="cls-11" d="M643-14H471.46a21.86,21.86,0,0,1,2.31,4.67c6.76,19.15-29,21.14-21.7,35,5,9.49,20.91,8.61,28.87,4.4,14.16-7.49,26.18-20.6,43.55-20,20.07.7,36.13,14.84,54.88,21.3,23.32,8,43.8,10.24,63.63,2.49Z"/><path class="cls-11" d="M311.25,44.9c10.19-16.9-.11-19.65-16.15-21.37-45.7-4.9-88.24,12.73-132.69-7.09-23.88-10.65-44.77-24.35-71.25-29C76.9-15,54.56-13.31,33-14H-143V11C-91.39,34-36.71,42,22.44,29.85c79-16.19,149.81,18.85,226.5,27.1C267.32,58.93,299.54,64.29,311.25,44.9Z"/><path class="cls-12" d="M136.09,15.88a1.74,1.74,0,1,1-1.74-1.74A1.73,1.73,0,0,1,136.09,15.88Z"/><path class="cls-12" d="M21,51.55l.72,3.23a.37.37,0,0,0,.27.27l3.23.72a.35.35,0,0,1,0,.68L22,57.17a.36.36,0,0,0-.27.27L21,60.66a.35.35,0,0,1-.68,0l-.72-3.22a.34.34,0,0,0-.27-.27l-3.22-.72a.35.35,0,0,1,0-.68l3.22-.72a.36.36,0,0,0,.27-.27l.72-3.23A.35.35,0,0,1,21,51.55Z"/><path class="cls-12" d="M48,27.65l.72,3.22a.34.34,0,0,0,.26.27l3.23.72a.35.35,0,0,1,0,.68L49,33.26a.36.36,0,0,0-.26.27L48,36.76a.36.36,0,0,1-.69,0l-.72-3.23a.36.36,0,0,0-.26-.27l-3.23-.72a.35.35,0,0,1,0-.68l3.23-.72a.34.34,0,0,0,.26-.27l.72-3.22A.35.35,0,0,1,48,27.65Z"/><path class="cls-12" d="M56,81.53a1.74,1.74,0,1,1-1.74-1.74A1.74,1.74,0,0,1,56,81.53Z"/><path class="cls-12" d="M44.45,83,45,85.25a.24.24,0,0,0,.18.18l2.25.5a.25.25,0,0,1,0,.48l-2.25.5a.27.27,0,0,0-.18.19l-.51,2.25a.25.25,0,0,1-.48,0l-.5-2.25a.27.27,0,0,0-.18-.19L41,86.41a.25.25,0,0,1,0-.48l2.26-.5a.24.24,0,0,0,.18-.18L44,83A.25.25,0,0,1,44.45,83Z"/><path class="cls-12" d="M45.46,68.58l.5,2.26a.24.24,0,0,0,.19.18l2.25.5a.25.25,0,0,1,0,.48l-2.25.51a.24.24,0,0,0-.19.18l-.5,2.25a.25.25,0,0,1-.48,0l-.5-2.25a.24.24,0,0,0-.19-.18L42,72a.25.25,0,0,1,0-.48l2.25-.5a.24.24,0,0,0,.19-.18l.5-2.26A.25.25,0,0,1,45.46,68.58Z"/><path class="cls-12" d="M44.4,119.83l.5,2.26a.25.25,0,0,0,.19.18l2.25.51a.24.24,0,0,1,0,.47l-2.25.51a.25.25,0,0,0-.19.18l-.5,2.26a.25.25,0,0,1-.48,0l-.5-2.26a.24.24,0,0,0-.19-.18L41,123.25a.24.24,0,0,1,0-.47l2.25-.51a.24.24,0,0,0,.19-.18l.5-2.26A.25.25,0,0,1,44.4,119.83Z"/><path class="cls-12" d="M173.65,11.65l.5,2.25a.25.25,0,0,0,.18.19l2.26.5a.25.25,0,0,1,0,.48l-2.26.5a.24.24,0,0,0-.18.19l-.5,2.25a.25.25,0,0,1-.48,0l-.51-2.25a.24.24,0,0,0-.18-.19l-2.25-.5a.25.25,0,0,1,0-.48l2.25-.5a.25.25,0,0,0,.18-.19l.51-2.25A.25.25,0,0,1,173.65,11.65Z"/><path class="cls-12" d="M107,51.16l.5,2.25a.26.26,0,0,0,.19.19l2.25.5a.25.25,0,0,1,0,.48l-2.25.5a.25.25,0,0,0-.19.19l-.5,2.25a.25.25,0,0,1-.48,0l-.5-2.25a.23.23,0,0,0-.19-.19l-2.25-.5a.25.25,0,0,1,0-.48l2.25-.5a.25.25,0,0,0,.19-.19l.5-2.25A.25.25,0,0,1,107,51.16Z"/><path class="cls-12" d="M97.19,33.86l1.07,4.79a.52.52,0,0,0,.4.39l4.78,1.07a.52.52,0,0,1,0,1L98.66,42.2a.52.52,0,0,0-.4.39l-1.07,4.79a.52.52,0,0,1-1,0l-1.07-4.79a.5.5,0,0,0-.39-.39l-4.79-1.07a.52.52,0,0,1,0-1L94.72,39a.5.5,0,0,0,.39-.39l1.07-4.79A.52.52,0,0,1,97.19,33.86Z"/><path class="cls-12" d="M78.4,16.64l.51,2.26a.24.24,0,0,0,.18.18l2.25.51a.24.24,0,0,1,0,.47l-2.25.51a.24.24,0,0,0-.18.18L78.4,23a.25.25,0,0,1-.48,0l-.5-2.26a.24.24,0,0,0-.18-.18L75,20.06a.24.24,0,0,1,0-.47l2.26-.51a.24.24,0,0,0,.18-.18l.5-2.26A.25.25,0,0,1,78.4,16.64Z"/><path class="cls-12" d="M16.83,121.7l1.06,4.79a.53.53,0,0,0,.4.39L23.08,128a.52.52,0,0,1,0,1L18.29,130a.54.54,0,0,0-.4.4l-1.06,4.79a.52.52,0,0,1-1,0l-1.07-4.79a.53.53,0,0,0-.39-.4L9.56,129a.52.52,0,0,1,0-1l4.79-1.07a.52.52,0,0,0,.39-.39l1.07-4.79A.52.52,0,0,1,16.83,121.7Z"/><path class="cls-12" d="M96.39,121.15a1.5,1.5,0,1,1-1.5-1.51A1.5,1.5,0,0,1,96.39,121.15Z"/><path class="cls-13" d="M216.1,8.4a1.74,1.74,0,1,1-1.74-1.73A1.74,1.74,0,0,1,216.1,8.4Z"/><path class="cls-13" d="M167.65,70.53a1,1,0,1,1-1-1A1,1,0,0,1,167.65,70.53Z"/><circle class="cls-13" cx="15.07" cy="14.65" r="2"/><circle class="cls-13" cx="76.74" cy="120.81" r="2.71"/><path class="cls-13" d="M33.74,142.46A2.71,2.71,0,1,1,31,139.75,2.71,2.71,0,0,1,33.74,142.46Z"/><path class="cls-13" d="M136.39,42.22a2.72,2.72,0,1,1-2.71-2.71A2.71,2.71,0,0,1,136.39,42.22Z"/><path class="cls-13" d="M78.34,163a1.6,1.6,0,1,1-1.6-1.6A1.6,1.6,0,0,1,78.34,163Z"/><path class="cls-12" d="M363.91,15.88a1.74,1.74,0,1,0,1.74-1.74A1.73,1.73,0,0,0,363.91,15.88Z"/><path class="cls-12" d="M479,51.55l-.72,3.23a.37.37,0,0,1-.27.27l-3.23.72a.35.35,0,0,0,0,.68l3.23.72a.36.36,0,0,1,.27.27l.72,3.22a.35.35,0,0,0,.68,0l.72-3.22a.34.34,0,0,1,.27-.27l3.22-.72a.35.35,0,0,0,0-.68l-3.22-.72a.36.36,0,0,1-.27-.27l-.72-3.23A.35.35,0,0,0,479,51.55Z"/><path class="cls-12" d="M452,27.65l-.72,3.22a.34.34,0,0,1-.26.27l-3.23.72a.35.35,0,0,0,0,.68l3.23.72a.36.36,0,0,1,.26.27l.72,3.23a.36.36,0,0,0,.69,0l.72-3.23a.36.36,0,0,1,.26-.27l3.23-.72a.35.35,0,0,0,0-.68l-3.23-.72a.34.34,0,0,1-.26-.27l-.72-3.22A.35.35,0,0,0,452,27.65Z"/><path class="cls-12" d="M444.05,81.53a1.74,1.74,0,1,0,1.74-1.74A1.74,1.74,0,0,0,444.05,81.53Z"/><path class="cls-12" d="M455.55,83,455,85.25a.24.24,0,0,1-.18.18l-2.25.5a.25.25,0,0,0,0,.48l2.25.5a.27.27,0,0,1,.18.19l.51,2.25a.25.25,0,0,0,.48,0l.5-2.25a.27.27,0,0,1,.18-.19l2.26-.5a.25.25,0,0,0,0-.48l-2.26-.5a.24.24,0,0,1-.18-.18L456,83A.25.25,0,0,0,455.55,83Z"/><path class="cls-12" d="M454.54,68.58l-.5,2.26a.24.24,0,0,1-.19.18l-2.25.5a.25.25,0,0,0,0,.48l2.25.51a.24.24,0,0,1,.19.18l.5,2.25a.25.25,0,0,0,.48,0l.5-2.25a.24.24,0,0,1,.19-.18L458,72a.25.25,0,0,0,0-.48l-2.25-.5a.24.24,0,0,1-.19-.18l-.5-2.26A.25.25,0,0,0,454.54,68.58Z"/><path class="cls-12" d="M455.6,119.83l-.5,2.26a.25.25,0,0,1-.19.18l-2.25.51a.24.24,0,0,0,0,.47l2.25.51a.25.25,0,0,1,.19.18l.5,2.26a.25.25,0,0,0,.48,0l.5-2.26a.24.24,0,0,1,.19-.18l2.25-.51a.24.24,0,0,0,0-.47l-2.25-.51a.24.24,0,0,1-.19-.18l-.5-2.26A.25.25,0,0,0,455.6,119.83Z"/><path class="cls-12" d="M326.35,11.65l-.5,2.25a.25.25,0,0,1-.18.19l-2.26.5a.25.25,0,0,0,0,.48l2.26.5a.24.24,0,0,1,.18.19l.5,2.25a.25.25,0,0,0,.48,0l.51-2.25a.24.24,0,0,1,.18-.19l2.25-.5a.25.25,0,0,0,0-.48l-2.25-.5a.25.25,0,0,1-.18-.19l-.51-2.25A.25.25,0,0,0,326.35,11.65Z"/><path class="cls-12" d="M393,51.16l-.5,2.25a.26.26,0,0,1-.19.19l-2.25.5a.25.25,0,0,0,0,.48l2.25.5a.25.25,0,0,1,.19.19l.5,2.25a.25.25,0,0,0,.48,0l.5-2.25a.23.23,0,0,1,.19-.19l2.25-.5a.25.25,0,0,0,0-.48l-2.25-.5a.25.25,0,0,1-.19-.19l-.5-2.25A.25.25,0,0,0,393,51.16Z"/><path class="cls-12" d="M402.81,33.86l-1.07,4.79a.52.52,0,0,1-.4.39l-4.78,1.07a.52.52,0,0,0,0,1l4.78,1.07a.52.52,0,0,1,.4.39l1.07,4.79a.52.52,0,0,0,1,0l1.07-4.79a.5.5,0,0,1,.39-.39l4.79-1.07a.52.52,0,0,0,0-1L405.28,39a.5.5,0,0,1-.39-.39l-1.07-4.79A.52.52,0,0,0,402.81,33.86Z"/><path class="cls-12" d="M421.6,16.64l-.51,2.26a.24.24,0,0,1-.18.18l-2.25.51a.24.24,0,0,0,0,.47l2.25.51a.24.24,0,0,1,.18.18L421.6,23a.25.25,0,0,0,.48,0l.5-2.26a.24.24,0,0,1,.18-.18l2.26-.51a.24.24,0,0,0,0-.47l-2.26-.51a.24.24,0,0,1-.18-.18l-.5-2.26A.25.25,0,0,0,421.6,16.64Z"/><path class="cls-12" d="M483.17,121.7l-1.06,4.79a.53.53,0,0,1-.4.39L476.92,128a.52.52,0,0,0,0,1l4.79,1.06a.54.54,0,0,1,.4.4l1.06,4.79a.52.52,0,0,0,1,0l1.07-4.79a.53.53,0,0,1,.39-.4l4.79-1.06a.52.52,0,0,0,0-1l-4.79-1.07a.52.52,0,0,1-.39-.39l-1.07-4.79A.52.52,0,0,0,483.17,121.7Z"/><path class="cls-12" d="M403.61,121.15a1.5,1.5,0,1,0,1.5-1.51A1.5,1.5,0,0,0,403.61,121.15Z"/><path class="cls-13" d="M283.9,8.4a1.74,1.74,0,1,0,1.74-1.73A1.74,1.74,0,0,0,283.9,8.4Z"/><path class="cls-13" d="M332.35,70.53a1,1,0,1,0,1-1A1,1,0,0,0,332.35,70.53Z"/><circle class="cls-13" cx="484.93" cy="14.65" r="2"/><circle class="cls-13" cx="423.26" cy="120.81" r="2.71"/><path class="cls-13" d="M466.26,142.46a2.71,2.71,0,1,0,2.71-2.71A2.71,2.71,0,0,0,466.26,142.46Z"/><path class="cls-13" d="M363.61,42.22a2.72,2.72,0,1,0,2.71-2.71A2.71,2.71,0,0,0,363.61,42.22Z"/><path class="cls-13" d="M421.66,163a1.6,1.6,0,1,0,1.6-1.6A1.6,1.6,0,0,0,421.66,163Z"/></g></svg>